<svg width="50" height="50" viewBox="0 0 50 50" fill="none" xmlns="http://www.w3.org/2000/svg">
<circle cx="25" cy="25" r="23" fill="#F8FAFB" stroke="#374957" stroke-width="4"/>
<g clip-path="url(#clip0_80_355)">
<path d="M35.5 34H18.5C17.837 34 17.2011 33.7366 16.7322 33.2678C16.2634 32.7989 16 32.163 16 31.5V14.5C16 14.1022 15.842 13.7206 15.5607 13.4393C15.2794 13.158 14.8978 13 14.5 13C14.1022 13 13.7206 13.158 13.4393 13.4393C13.158 13.7206 13 14.1022 13 14.5V31.5C13.0016 32.9582 13.5816 34.3562 14.6127 35.3873C15.6438 36.4184 17.0418 36.9984 18.5 37H35.5C35.8978 37 36.2794 36.842 36.5607 36.5607C36.842 36.2794 37 35.8978 37 35.5C37 35.1022 36.842 34.7206 36.5607 34.4393C36.2794 34.158 35.8978 34 35.5 34Z" fill="#374957"/>
<path d="M22.5001 22C22.1023 22 21.7208 22.158 21.4395 22.4393C21.1582 22.7206 21.0001 23.1022 21.0001 23.5V30.5C21.0001 30.8978 21.1582 31.2794 21.4395 31.5607C21.7208 31.842 22.1023 32 22.5001 32C22.8979 32 23.2795 31.842 23.5608 31.5607C23.8421 31.2794 24.0001 30.8978 24.0001 30.5V23.5C24.0001 23.1022 23.8421 22.7206 23.5608 22.4393C23.2795 22.158 22.8979 22 22.5001 22Z" fill="#374957"/>
<path d="M27.0001 26.5V30.5C27.0001 30.8978 27.1582 31.2794 27.4395 31.5607C27.7208 31.842 28.1023 32 28.5001 32C28.8979 32 29.2795 31.842 29.5608 31.5607C29.8421 31.2794 30.0001 30.8978 30.0001 30.5V26.5C30.0001 26.1022 29.8421 25.7206 29.5608 25.4393C29.2795 25.158 28.8979 25 28.5001 25C28.1023 25 27.7208 25.158 27.4395 25.4393C27.1582 25.7206 27.0001 26.1022 27.0001 26.5V26.5Z" fill="#374957"/>
<path d="M33.0002 22.4999V30.4999C33.0002 30.8977 33.1582 31.2792 33.4395 31.5605C33.7208 31.8418 34.1024 31.9999 34.5002 31.9999C34.898 31.9999 35.2795 31.8418 35.5608 31.5605C35.8421 31.2792 36.0002 30.8977 36.0002 30.4999V22.4999C36.0002 22.1021 35.8421 21.7205 35.5608 21.4392C35.2795 21.1579 34.898 20.9999 34.5002 20.9999C34.1024 20.9999 33.7208 21.1579 33.4395 21.4392C33.1582 21.7205 33.0002 22.1021 33.0002 22.4999Z" fill="#374957"/>
<path d="M19.0002 20.5C19.3407 20.5008 19.671 20.3846 19.9362 20.171L22.2142 18.35C22.6742 17.9807 23.2544 17.7944 23.8434 17.8269C24.4324 17.8594 24.9886 18.1084 25.4052 18.526C26.3666 19.4752 27.6473 20.0319 28.9972 20.0874C30.347 20.1429 31.6691 19.6931 32.7052 18.826L36.4692 15.641C36.6295 15.5171 36.7631 15.3619 36.8618 15.1849C36.9606 15.0079 37.0224 14.8127 37.0436 14.6111C37.0648 14.4095 37.0449 14.2058 36.9852 14.0121C36.9255 13.8184 36.8271 13.6388 36.696 13.4842C36.5649 13.3296 36.4039 13.2032 36.2226 13.1126C36.0413 13.0219 35.8435 12.969 35.6412 12.9569C35.4389 12.9448 35.2362 12.9739 35.0454 13.0423C34.8546 13.1107 34.6797 13.2171 34.5312 13.355L30.7682 16.54C30.3073 16.9244 29.7196 17.123 29.1201 17.0971C28.5206 17.0712 27.9522 16.8227 27.5262 16.4C26.5882 15.4595 25.336 14.8984 24.0097 14.8246C22.6835 14.7508 21.3767 15.1694 20.3402 16L18.0632 17.829C17.8206 18.0232 17.6443 18.288 17.5587 18.5867C17.4731 18.8854 17.4823 19.2033 17.5852 19.4966C17.688 19.7898 17.8794 20.0438 18.1329 20.2236C18.3864 20.4034 18.6894 20.4999 19.0002 20.5V20.5Z" fill="#374957"/>
</g>
<defs>
<clipPath id="clip0_80_355">
<rect width="24" height="24" fill="white" transform="translate(13 13)"/>
</clipPath>
</defs>
</svg>
