<svg width="69" height="17" viewBox="0 0 69 17" fill="none" xmlns="http://www.w3.org/2000/svg">
<path d="M0.3 16C0.3 13.76 0.3 11.4933 0.3 9.2C0.3 6.90667 0.3 4.64 0.3 2.4C1.12667 2.4 1.95333 2.4 2.78 2.4C3.62 2.4 4.44667 2.4 5.26 2.4C6.18 2.4 6.98667 2.56667 7.68 2.9C8.37333 3.22 8.91333 3.67333 9.3 4.26C9.68667 4.83333 9.88 5.51333 9.88 6.3C9.88 6.86 9.77333 7.36667 9.56 7.82C9.34667 8.27333 9.02667 8.65333 8.6 8.96C9.16 9.29333 9.58667 9.72667 9.88 10.26C10.1733 10.78 10.32 11.36 10.32 12C10.32 12.8 10.1133 13.5 9.7 14.1C9.3 14.7 8.73333 15.1667 8 15.5C7.28 15.8333 6.43333 16 5.46 16C4.60667 16 3.74667 16 2.88 16C2.01333 16 1.15333 16 0.3 16ZM6.38 6.64C6.38 6.29333 6.27333 6.01333 6.06 5.8C5.84667 5.57333 5.56667 5.46 5.22 5.46C4.98 5.46 4.73333 5.46 4.48 5.46C4.24 5.46 4 5.46 3.76 5.46C3.76 5.83333 3.76 6.22 3.76 6.62C3.76 7.00667 3.76 7.39333 3.76 7.78C4 7.78 4.24 7.78 4.48 7.78C4.73333 7.78 4.98 7.78 5.22 7.78C5.56667 7.78 5.84667 7.68 6.06 7.48C6.27333 7.26667 6.38 6.98667 6.38 6.64ZM6.82 11.68C6.82 11.3067 6.69333 11.0133 6.44 10.8C6.2 10.5733 5.86667 10.46 5.44 10.46C5.16 10.46 4.88 10.46 4.6 10.46C4.32 10.46 4.04 10.46 3.76 10.46C3.76 10.8733 3.76 11.2867 3.76 11.7C3.76 12.1133 3.76 12.5267 3.76 12.94C4.04 12.94 4.32 12.94 4.6 12.94C4.88 12.94 5.16 12.94 5.44 12.94C5.86667 12.94 6.2 12.8267 6.44 12.6C6.69333 12.3733 6.82 12.0667 6.82 11.68ZM13.7741 4.48C13.3874 4.48 13.0341 4.38667 12.7141 4.2C12.4074 4.01333 12.1607 3.76667 11.9741 3.46C11.7874 3.15333 11.6941 2.81333 11.6941 2.44C11.6941 2.06667 11.7874 1.73333 11.9741 1.44C12.1607 1.13333 12.4074 0.886666 12.7141 0.699999C13.0341 0.513332 13.3874 0.419999 13.7741 0.419999C14.1474 0.419999 14.4874 0.513332 14.7941 0.699999C15.1141 0.886666 15.3674 1.13333 15.5541 1.44C15.7407 1.73333 15.8341 2.06667 15.8341 2.44C15.8341 2.81333 15.7407 3.15333 15.5541 3.46C15.3674 3.76667 15.1141 4.01333 14.7941 4.2C14.4874 4.38667 14.1474 4.48 13.7741 4.48ZM12.1141 16C12.1141 14.2933 12.1141 12.5733 12.1141 10.84C12.1141 9.09333 12.1141 7.36667 12.1141 5.66C12.6607 5.66 13.2141 5.66 13.7741 5.66C14.3341 5.66 14.8807 5.66 15.4141 5.66C15.4141 7.36667 15.4141 9.09333 15.4141 10.84C15.4141 12.5733 15.4141 14.2933 15.4141 16C14.8807 16 14.3341 16 13.7741 16C13.2141 16 12.6607 16 12.1141 16ZM18.7972 16C18.7972 14.7733 18.7972 13.54 18.7972 12.3C18.7972 11.06 18.7972 9.83333 18.7972 8.62C18.5305 8.62 18.2572 8.62 17.9772 8.62C17.7105 8.62 17.4439 8.62 17.1772 8.62C17.1772 8.12667 17.1772 7.63333 17.1772 7.14C17.1772 6.64667 17.1772 6.15333 17.1772 5.66C17.4439 5.66 17.7105 5.66 17.9772 5.66C18.2572 5.66 18.5305 5.66 18.7972 5.66C18.7972 5.19333 18.7972 4.73333 18.7972 4.28C18.7972 3.81333 18.7972 3.35333 18.7972 2.9C19.3439 2.9 19.8972 2.9 20.4572 2.9C21.0172 2.9 21.5639 2.9 22.0972 2.9C22.0972 3.35333 22.0972 3.81333 22.0972 4.28C22.0972 4.73333 22.0972 5.19333 22.0972 5.66C22.4039 5.66 22.7172 5.66 23.0372 5.66C23.3572 5.66 23.6705 5.66 23.9772 5.66C23.9772 6.15333 23.9772 6.64667 23.9772 7.14C23.9772 7.63333 23.9772 8.12667 23.9772 8.62C23.6705 8.62 23.3572 8.62 23.0372 8.62C22.7172 8.62 22.4039 8.62 22.0972 8.62C22.0972 9.83333 22.0972 11.06 22.0972 12.3C22.0972 13.54 22.0972 14.7733 22.0972 16C21.5639 16 21.0172 16 20.4572 16C19.8972 16 19.3439 16 18.7972 16ZM25.7688 16C25.7688 13.76 25.7688 11.4933 25.7688 9.2C25.7688 6.90667 25.7688 4.64 25.7688 2.4C26.3554 2.4 26.9421 2.4 27.5288 2.4C28.1154 2.4 28.6954 2.4 29.2688 2.4C29.2688 4.12 29.2688 5.86 29.2688 7.62C29.2688 9.36667 29.2688 11.1 29.2688 12.82C29.9754 12.82 30.6888 12.82 31.4088 12.82C32.1288 12.82 32.8354 12.82 33.5288 12.82C33.5288 13.34 33.5288 13.8733 33.5288 14.42C33.5288 14.9533 33.5288 15.48 33.5288 16C32.2488 16 30.9554 16 29.6488 16C28.3421 16 27.0488 16 25.7688 16ZM36.9967 4.48C36.6101 4.48 36.2567 4.38667 35.9367 4.2C35.6301 4.01333 35.3834 3.76667 35.1967 3.46C35.0101 3.15333 34.9167 2.81333 34.9167 2.44C34.9167 2.06667 35.0101 1.73333 35.1967 1.44C35.3834 1.13333 35.6301 0.886666 35.9367 0.699999C36.2567 0.513332 36.6101 0.419999 36.9967 0.419999C37.3701 0.419999 37.7101 0.513332 38.0167 0.699999C38.3367 0.886666 38.5901 1.13333 38.7767 1.44C38.9634 1.73333 39.0567 2.06667 39.0567 2.44C39.0567 2.81333 38.9634 3.15333 38.7767 3.46C38.5901 3.76667 38.3367 4.01333 38.0167 4.2C37.7101 4.38667 37.3701 4.48 36.9967 4.48ZM35.3367 16C35.3367 14.2933 35.3367 12.5733 35.3367 10.84C35.3367 9.09333 35.3367 7.36667 35.3367 5.66C35.8834 5.66 36.4367 5.66 36.9967 5.66C37.5567 5.66 38.1034 5.66 38.6367 5.66C38.6367 7.36667 38.6367 9.09333 38.6367 10.84C38.6367 12.5733 38.6367 14.2933 38.6367 16C38.1034 16 37.5567 16 36.9967 16C36.4367 16 35.8834 16 35.3367 16ZM40.9398 16C40.9398 14.2933 40.9398 12.5733 40.9398 10.84C40.9398 9.09333 40.9398 7.36667 40.9398 5.66C41.4865 5.66 42.0398 5.66 42.5998 5.66C43.1598 5.66 43.7065 5.66 44.2398 5.66C44.2398 5.75333 44.2398 5.84 44.2398 5.92C44.2398 6 44.2398 6.08667 44.2398 6.18C44.5998 5.92667 44.9998 5.73333 45.4398 5.6C45.8932 5.45333 46.3798 5.38 46.8998 5.38C47.6598 5.38 48.3265 5.55333 48.8998 5.9C49.4865 6.24667 49.9398 6.74667 50.2598 7.4C50.5932 8.04 50.7598 8.81333 50.7598 9.72C50.7598 10.76 50.7598 11.8067 50.7598 12.86C50.7598 13.9133 50.7598 14.96 50.7598 16C50.2265 16 49.6798 16 49.1198 16C48.5598 16 48.0065 16 47.4598 16C47.4598 15.04 47.4598 14.0667 47.4598 13.08C47.4598 12.0933 47.4598 11.12 47.4598 10.16C47.4598 9.62667 47.3332 9.2 47.0798 8.88C46.8398 8.54667 46.4532 8.38 45.9198 8.38C45.3865 8.38 44.9732 8.53333 44.6798 8.84C44.3865 9.14667 44.2398 9.58667 44.2398 10.16C44.2398 11.12 44.2398 12.0933 44.2398 13.08C44.2398 14.0667 44.2398 15.04 44.2398 16C43.7065 16 43.1598 16 42.5998 16C42.0398 16 41.4865 16 40.9398 16ZM52.7977 16C52.7977 13.5867 52.7977 11.1533 52.7977 8.7C52.7977 6.24667 52.7977 3.81333 52.7977 1.4C53.3443 1.4 53.8977 1.4 54.4577 1.4C55.0177 1.4 55.5643 1.4 56.0977 1.4C56.0977 2.70667 56.0977 4.03333 56.0977 5.38C56.0977 6.72667 56.0977 8.05333 56.0977 9.36C56.5777 8.74667 57.0577 8.13333 57.5377 7.52C58.0177 6.89333 58.4977 6.27333 58.9777 5.66C59.6177 5.66 60.2577 5.66 60.8977 5.66C61.551 5.66 62.1977 5.66 62.8377 5.66C62.211 6.44667 61.571 7.24 60.9177 8.04C60.2777 8.84 59.6443 9.63333 59.0177 10.42C59.6843 11.34 60.351 12.2733 61.0177 13.22C61.6977 14.1533 62.3643 15.08 63.0177 16C62.3643 16 61.711 16 61.0577 16C60.4043 16 59.751 16 59.0977 16C58.6043 15.2933 58.1043 14.58 57.5977 13.86C57.091 13.1267 56.591 12.4067 56.0977 11.7C56.0977 12.4067 56.0977 13.1267 56.0977 13.86C56.0977 14.58 56.0977 15.2933 56.0977 16C55.5643 16 55.0177 16 54.4577 16C53.8977 16 53.3443 16 52.7977 16ZM65.9434 16.32C65.5568 16.32 65.1968 16.2267 64.8634 16.04C64.5434 15.8533 64.2901 15.6 64.1034 15.28C63.9168 14.96 63.8234 14.6133 63.8234 14.24C63.8234 13.8667 63.9168 13.5267 64.1034 13.22C64.2901 12.9 64.5434 12.6467 64.8634 12.46C65.1968 12.2733 65.5568 12.18 65.9434 12.18C66.3301 12.18 66.6768 12.2733 66.9834 12.46C67.3034 12.6467 67.5568 12.9 67.7434 13.22C67.9434 13.5267 68.0434 13.8667 68.0434 14.24C68.0434 14.6133 67.9434 14.96 67.7434 15.28C67.5568 15.6 67.3034 15.8533 66.9834 16.04C66.6768 16.2267 66.3301 16.32 65.9434 16.32Z" fill="#F8FAFB"/>
</svg>
