<svg width="265" height="88" viewBox="0 0 265 88" fill="none" xmlns="http://www.w3.org/2000/svg">
<ellipse cx="132.5" cy="44" rx="132.5" ry="44" fill="#374957"/>
<path d="M64.6 58C64.6 53.52 64.6 48.9867 64.6 44.4C64.6 39.8133 64.6 35.28 64.6 30.8C66.2533 30.8 67.9067 30.8 69.56 30.8C71.24 30.8 72.8933 30.8 74.52 30.8C76.36 30.8 77.9733 31.1333 79.36 31.8C80.7467 32.44 81.8267 33.3467 82.6 34.52C83.3733 35.6667 83.76 37.0267 83.76 38.6C83.76 39.72 83.5467 40.7333 83.12 41.64C82.6933 42.5467 82.0533 43.3067 81.2 43.92C82.32 44.5867 83.1733 45.4533 83.76 46.52C84.3467 47.56 84.64 48.72 84.64 50C84.64 51.6 84.2267 53 83.4 54.2C82.6 55.4 81.4667 56.3333 80 57C78.56 57.6667 76.8667 58 74.92 58C73.2133 58 71.4933 58 69.76 58C68.0267 58 66.3067 58 64.6 58ZM76.76 39.28C76.76 38.5867 76.5467 38.0267 76.12 37.6C75.6933 37.1467 75.1333 36.92 74.44 36.92C73.96 36.92 73.4667 36.92 72.96 36.92C72.48 36.92 72 36.92 71.52 36.92C71.52 37.6667 71.52 38.44 71.52 39.24C71.52 40.0133 71.52 40.7867 71.52 41.56C72 41.56 72.48 41.56 72.96 41.56C73.4667 41.56 73.96 41.56 74.44 41.56C75.1333 41.56 75.6933 41.36 76.12 40.96C76.5467 40.5333 76.76 39.9733 76.76 39.28ZM77.64 49.36C77.64 48.6133 77.3867 48.0267 76.88 47.6C76.4 47.1467 75.7333 46.92 74.88 46.92C74.32 46.92 73.76 46.92 73.2 46.92C72.64 46.92 72.08 46.92 71.52 46.92C71.52 47.7467 71.52 48.5733 71.52 49.4C71.52 50.2267 71.52 51.0533 71.52 51.88C72.08 51.88 72.64 51.88 73.2 51.88C73.76 51.88 74.32 51.88 74.88 51.88C75.7333 51.88 76.4 51.6533 76.88 51.2C77.3867 50.7467 77.64 50.1333 77.64 49.36ZM91.5481 34.96C90.7748 34.96 90.0681 34.7733 89.4281 34.4C88.8148 34.0267 88.3215 33.5333 87.9481 32.92C87.5748 32.3067 87.3881 31.6267 87.3881 30.88C87.3881 30.1333 87.5748 29.4667 87.9481 28.88C88.3215 28.2667 88.8148 27.7733 89.4281 27.4C90.0681 27.0267 90.7748 26.84 91.5481 26.84C92.2948 26.84 92.9748 27.0267 93.5881 27.4C94.2281 27.7733 94.7348 28.2667 95.1081 28.88C95.4815 29.4667 95.6681 30.1333 95.6681 30.88C95.6681 31.6267 95.4815 32.3067 95.1081 32.92C94.7348 33.5333 94.2281 34.0267 93.5881 34.4C92.9748 34.7733 92.2948 34.96 91.5481 34.96ZM88.2281 58C88.2281 54.5867 88.2281 51.1467 88.2281 47.68C88.2281 44.1867 88.2281 40.7333 88.2281 37.32C89.3215 37.32 90.4281 37.32 91.5481 37.32C92.6681 37.32 93.7615 37.32 94.8281 37.32C94.8281 40.7333 94.8281 44.1867 94.8281 47.68C94.8281 51.1467 94.8281 54.5867 94.8281 58C93.7615 58 92.6681 58 91.5481 58C90.4281 58 89.3215 58 88.2281 58ZM101.594 58C101.594 55.5467 101.594 53.08 101.594 50.6C101.594 48.12 101.594 45.6667 101.594 43.24C101.061 43.24 100.514 43.24 99.9544 43.24C99.421 43.24 98.8877 43.24 98.3544 43.24C98.3544 42.2533 98.3544 41.2667 98.3544 40.28C98.3544 39.2933 98.3544 38.3067 98.3544 37.32C98.8877 37.32 99.421 37.32 99.9544 37.32C100.514 37.32 101.061 37.32 101.594 37.32C101.594 36.3867 101.594 35.4667 101.594 34.56C101.594 33.6267 101.594 32.7067 101.594 31.8C102.688 31.8 103.794 31.8 104.914 31.8C106.034 31.8 107.128 31.8 108.194 31.8C108.194 32.7067 108.194 33.6267 108.194 34.56C108.194 35.4667 108.194 36.3867 108.194 37.32C108.808 37.32 109.434 37.32 110.074 37.32C110.714 37.32 111.341 37.32 111.954 37.32C111.954 38.3067 111.954 39.2933 111.954 40.28C111.954 41.2667 111.954 42.2533 111.954 43.24C111.341 43.24 110.714 43.24 110.074 43.24C109.434 43.24 108.808 43.24 108.194 43.24C108.194 45.6667 108.194 48.12 108.194 50.6C108.194 53.08 108.194 55.5467 108.194 58C107.128 58 106.034 58 104.914 58C103.794 58 102.688 58 101.594 58ZM115.538 58C115.538 53.52 115.538 48.9867 115.538 44.4C115.538 39.8133 115.538 35.28 115.538 30.8C116.711 30.8 117.884 30.8 119.058 30.8C120.231 30.8 121.391 30.8 122.538 30.8C122.538 34.24 122.538 37.72 122.538 41.24C122.538 44.7333 122.538 48.2 122.538 51.64C123.951 51.64 125.378 51.64 126.818 51.64C128.258 51.64 129.671 51.64 131.058 51.64C131.058 52.68 131.058 53.7467 131.058 54.84C131.058 55.9067 131.058 56.96 131.058 58C128.498 58 125.911 58 123.298 58C120.684 58 118.098 58 115.538 58ZM137.993 34.96C137.22 34.96 136.513 34.7733 135.873 34.4C135.26 34.0267 134.767 33.5333 134.393 32.92C134.02 32.3067 133.833 31.6267 133.833 30.88C133.833 30.1333 134.02 29.4667 134.393 28.88C134.767 28.2667 135.26 27.7733 135.873 27.4C136.513 27.0267 137.22 26.84 137.993 26.84C138.74 26.84 139.42 27.0267 140.033 27.4C140.673 27.7733 141.18 28.2667 141.553 28.88C141.927 29.4667 142.113 30.1333 142.113 30.88C142.113 31.6267 141.927 32.3067 141.553 32.92C141.18 33.5333 140.673 34.0267 140.033 34.4C139.42 34.7733 138.74 34.96 137.993 34.96ZM134.673 58C134.673 54.5867 134.673 51.1467 134.673 47.68C134.673 44.1867 134.673 40.7333 134.673 37.32C135.767 37.32 136.873 37.32 137.993 37.32C139.113 37.32 140.207 37.32 141.273 37.32C141.273 40.7333 141.273 44.1867 141.273 47.68C141.273 51.1467 141.273 54.5867 141.273 58C140.207 58 139.113 58 137.993 58C136.873 58 135.767 58 134.673 58ZM145.88 58C145.88 54.5867 145.88 51.1467 145.88 47.68C145.88 44.1867 145.88 40.7333 145.88 37.32C146.973 37.32 148.08 37.32 149.2 37.32C150.32 37.32 151.413 37.32 152.48 37.32C152.48 37.5067 152.48 37.68 152.48 37.84C152.48 38 152.48 38.1733 152.48 38.36C153.2 37.8533 154 37.4667 154.88 37.2C155.786 36.9067 156.76 36.76 157.8 36.76C159.32 36.76 160.653 37.1067 161.8 37.8C162.973 38.4933 163.88 39.4933 164.52 40.8C165.186 42.08 165.52 43.6267 165.52 45.44C165.52 47.52 165.52 49.6133 165.52 51.72C165.52 53.8267 165.52 55.92 165.52 58C164.453 58 163.36 58 162.24 58C161.12 58 160.013 58 158.92 58C158.92 56.08 158.92 54.1333 158.92 52.16C158.92 50.1867 158.92 48.24 158.92 46.32C158.92 45.2533 158.666 44.4 158.16 43.76C157.68 43.0933 156.906 42.76 155.84 42.76C154.773 42.76 153.946 43.0667 153.36 43.68C152.773 44.2933 152.48 45.1733 152.48 46.32C152.48 48.24 152.48 50.1867 152.48 52.16C152.48 54.1333 152.48 56.08 152.48 58C151.413 58 150.32 58 149.2 58C148.08 58 146.973 58 145.88 58ZM169.595 58C169.595 53.1733 169.595 48.3067 169.595 43.4C169.595 38.4933 169.595 33.6267 169.595 28.8C170.689 28.8 171.795 28.8 172.915 28.8C174.035 28.8 175.129 28.8 176.195 28.8C176.195 31.4133 176.195 34.0667 176.195 36.76C176.195 39.4533 176.195 42.1067 176.195 44.72C177.155 43.4933 178.115 42.2667 179.075 41.04C180.035 39.7867 180.995 38.5467 181.955 37.32C183.235 37.32 184.515 37.32 185.795 37.32C187.102 37.32 188.395 37.32 189.675 37.32C188.422 38.8933 187.142 40.48 185.835 42.08C184.555 43.68 183.289 45.2667 182.035 46.84C183.369 48.68 184.702 50.5467 186.035 52.44C187.395 54.3067 188.729 56.16 190.035 58C188.729 58 187.422 58 186.115 58C184.809 58 183.502 58 182.195 58C181.209 56.5867 180.209 55.16 179.195 53.72C178.182 52.2533 177.182 50.8133 176.195 49.4C176.195 50.8133 176.195 52.2533 176.195 53.72C176.195 55.16 176.195 56.5867 176.195 58C175.129 58 174.035 58 172.915 58C171.795 58 170.689 58 169.595 58ZM195.887 58.64C195.114 58.64 194.394 58.4533 193.727 58.08C193.087 57.7067 192.58 57.2 192.207 56.56C191.834 55.92 191.647 55.2267 191.647 54.48C191.647 53.7333 191.834 53.0533 192.207 52.44C192.58 51.8 193.087 51.2933 193.727 50.92C194.394 50.5467 195.114 50.36 195.887 50.36C196.66 50.36 197.354 50.5467 197.967 50.92C198.607 51.2933 199.114 51.8 199.487 52.44C199.887 53.0533 200.087 53.7333 200.087 54.48C200.087 55.2267 199.887 55.92 199.487 56.56C199.114 57.2 198.607 57.7067 197.967 58.08C197.354 58.4533 196.66 58.64 195.887 58.64Z" fill="#F8FAFB"/>
</svg>
