<svg width="50" height="50" viewBox="0 0 50 50" fill="none" xmlns="http://www.w3.org/2000/svg">
<g clip-path="url(#clip0_368_518)">
<path d="M31.0001 26.4998V20.5708C31.0035 19.7165 30.8373 18.87 30.5111 18.0804C30.185 17.2908 29.7054 16.5737 29.1001 15.9708L28.0251 14.8998C27.4222 14.2945 26.7052 13.8149 25.9155 13.4888C25.1259 13.1627 24.2794 12.9964 23.4251 12.9998H20.5001C19.0419 13.0014 17.6439 13.5814 16.6128 14.6125C15.5817 15.6436 15.0017 17.0416 15.0001 18.4998V26.4998C15.0017 27.958 15.5817 29.356 16.6128 30.3871C17.6439 31.4182 19.0419 31.9982 20.5001 31.9998H25.5001C26.9583 31.9982 28.3563 31.4182 29.3875 30.3871C30.4186 29.356 30.9985 27.958 31.0001 26.4998V26.4998ZM18.0001 26.4998V18.4998C18.0001 17.8368 18.2635 17.2009 18.7324 16.732C19.2012 16.2632 19.8371 15.9998 20.5001 15.9998H23.4291C23.6207 16.0028 23.8116 16.0215 24.0001 16.0558V17.9998C24.0001 18.5302 24.2108 19.0389 24.5859 19.414C24.961 19.7891 25.4697 19.9998 26.0001 19.9998H27.9441C27.9784 20.1883 27.9971 20.3793 28.0001 20.5708V26.4998C28.0001 27.1628 27.7367 27.7987 27.2679 28.2676C26.799 28.7364 26.1632 28.9998 25.5001 28.9998H20.5001C19.8371 28.9998 19.2012 28.7364 18.7324 28.2676C18.2635 27.7987 18.0001 27.1628 18.0001 26.4998V26.4998ZM36.0001 21.4998V31.4998C35.9985 32.958 35.4186 34.356 34.3875 35.3871C33.3563 36.4182 31.9583 36.9982 30.5001 36.9998H22.5001C22.1023 36.9998 21.7208 36.8418 21.4395 36.5605C21.1582 36.2792 21.0001 35.8976 21.0001 35.4998C21.0001 35.102 21.1582 34.7205 21.4395 34.4391C21.7208 34.1578 22.1023 33.9998 22.5001 33.9998H30.5001C31.1632 33.9998 31.799 33.7364 32.2679 33.2676C32.7367 32.7987 33.0001 32.1628 33.0001 31.4998V21.4998C33.0001 21.102 33.1582 20.7205 33.4395 20.4391C33.7208 20.1578 34.1023 19.9998 34.5001 19.9998C34.8979 19.9998 35.2795 20.1578 35.5608 20.4391C35.8421 20.7205 36.0001 21.102 36.0001 21.4998Z" fill="#374957"/>
</g>
<circle cx="25" cy="25" r="23" stroke="#374957" stroke-width="4"/>
<defs>
<clipPath id="clip0_368_518">
<rect width="24" height="24" fill="white" transform="translate(13 13)"/>
</clipPath>
</defs>
</svg>
