<svg width="360" height="800" viewBox="0 0 360 800" fill="none" xmlns="http://www.w3.org/2000/svg">
<g clip-path="url(#clip0_65_287)">
<rect width="360" height="800" fill="#F8FAFB"/>
<rect width="360" height="800" fill="#374957"/>
<path d="M112.6 409C112.6 404.52 112.6 399.987 112.6 395.4C112.6 390.813 112.6 386.28 112.6 381.8C114.253 381.8 115.907 381.8 117.56 381.8C119.24 381.8 120.893 381.8 122.52 381.8C124.36 381.8 125.973 382.133 127.36 382.8C128.747 383.44 129.827 384.347 130.6 385.52C131.373 386.667 131.76 388.027 131.76 389.6C131.76 390.72 131.547 391.733 131.12 392.64C130.693 393.547 130.053 394.307 129.2 394.92C130.32 395.587 131.173 396.453 131.76 397.52C132.347 398.56 132.64 399.72 132.64 401C132.64 402.6 132.227 404 131.4 405.2C130.6 406.4 129.467 407.333 128 408C126.56 408.667 124.867 409 122.92 409C121.213 409 119.493 409 117.76 409C116.027 409 114.307 409 112.6 409ZM124.76 390.28C124.76 389.587 124.547 389.027 124.12 388.6C123.693 388.147 123.133 387.92 122.44 387.92C121.96 387.92 121.467 387.92 120.96 387.92C120.48 387.92 120 387.92 119.52 387.92C119.52 388.667 119.52 389.44 119.52 390.24C119.52 391.013 119.52 391.787 119.52 392.56C120 392.56 120.48 392.56 120.96 392.56C121.467 392.56 121.96 392.56 122.44 392.56C123.133 392.56 123.693 392.36 124.12 391.96C124.547 391.533 124.76 390.973 124.76 390.28ZM125.64 400.36C125.64 399.613 125.387 399.027 124.88 398.6C124.4 398.147 123.733 397.92 122.88 397.92C122.32 397.92 121.76 397.92 121.2 397.92C120.64 397.92 120.08 397.92 119.52 397.92C119.52 398.747 119.52 399.573 119.52 400.4C119.52 401.227 119.52 402.053 119.52 402.88C120.08 402.88 120.64 402.88 121.2 402.88C121.76 402.88 122.32 402.88 122.88 402.88C123.733 402.88 124.4 402.653 124.88 402.2C125.387 401.747 125.64 401.133 125.64 400.36ZM139.548 385.96C138.775 385.96 138.068 385.773 137.428 385.4C136.815 385.027 136.321 384.533 135.948 383.92C135.575 383.307 135.388 382.627 135.388 381.88C135.388 381.133 135.575 380.467 135.948 379.88C136.321 379.267 136.815 378.773 137.428 378.4C138.068 378.027 138.775 377.84 139.548 377.84C140.295 377.84 140.975 378.027 141.588 378.4C142.228 378.773 142.735 379.267 143.108 379.88C143.481 380.467 143.668 381.133 143.668 381.88C143.668 382.627 143.481 383.307 143.108 383.92C142.735 384.533 142.228 385.027 141.588 385.4C140.975 385.773 140.295 385.96 139.548 385.96ZM136.228 409C136.228 405.587 136.228 402.147 136.228 398.68C136.228 395.187 136.228 391.733 136.228 388.32C137.321 388.32 138.428 388.32 139.548 388.32C140.668 388.32 141.761 388.32 142.828 388.32C142.828 391.733 142.828 395.187 142.828 398.68C142.828 402.147 142.828 405.587 142.828 409C141.761 409 140.668 409 139.548 409C138.428 409 137.321 409 136.228 409ZM149.594 409C149.594 406.547 149.594 404.08 149.594 401.6C149.594 399.12 149.594 396.667 149.594 394.24C149.061 394.24 148.514 394.24 147.954 394.24C147.421 394.24 146.888 394.24 146.354 394.24C146.354 393.253 146.354 392.267 146.354 391.28C146.354 390.293 146.354 389.307 146.354 388.32C146.888 388.32 147.421 388.32 147.954 388.32C148.514 388.32 149.061 388.32 149.594 388.32C149.594 387.387 149.594 386.467 149.594 385.56C149.594 384.627 149.594 383.707 149.594 382.8C150.688 382.8 151.794 382.8 152.914 382.8C154.034 382.8 155.128 382.8 156.194 382.8C156.194 383.707 156.194 384.627 156.194 385.56C156.194 386.467 156.194 387.387 156.194 388.32C156.808 388.32 157.434 388.32 158.074 388.32C158.714 388.32 159.341 388.32 159.954 388.32C159.954 389.307 159.954 390.293 159.954 391.28C159.954 392.267 159.954 393.253 159.954 394.24C159.341 394.24 158.714 394.24 158.074 394.24C157.434 394.24 156.808 394.24 156.194 394.24C156.194 396.667 156.194 399.12 156.194 401.6C156.194 404.08 156.194 406.547 156.194 409C155.128 409 154.034 409 152.914 409C151.794 409 150.688 409 149.594 409ZM163.538 409C163.538 404.52 163.538 399.987 163.538 395.4C163.538 390.813 163.538 386.28 163.538 381.8C164.711 381.8 165.884 381.8 167.058 381.8C168.231 381.8 169.391 381.8 170.538 381.8C170.538 385.24 170.538 388.72 170.538 392.24C170.538 395.733 170.538 399.2 170.538 402.64C171.951 402.64 173.378 402.64 174.818 402.64C176.258 402.64 177.671 402.64 179.058 402.64C179.058 403.68 179.058 404.747 179.058 405.84C179.058 406.907 179.058 407.96 179.058 409C176.498 409 173.911 409 171.298 409C168.684 409 166.098 409 163.538 409ZM185.993 385.96C185.22 385.96 184.513 385.773 183.873 385.4C183.26 385.027 182.767 384.533 182.393 383.92C182.02 383.307 181.833 382.627 181.833 381.88C181.833 381.133 182.02 380.467 182.393 379.88C182.767 379.267 183.26 378.773 183.873 378.4C184.513 378.027 185.22 377.84 185.993 377.84C186.74 377.84 187.42 378.027 188.033 378.4C188.673 378.773 189.18 379.267 189.553 379.88C189.927 380.467 190.113 381.133 190.113 381.88C190.113 382.627 189.927 383.307 189.553 383.92C189.18 384.533 188.673 385.027 188.033 385.4C187.42 385.773 186.74 385.96 185.993 385.96ZM182.673 409C182.673 405.587 182.673 402.147 182.673 398.68C182.673 395.187 182.673 391.733 182.673 388.32C183.767 388.32 184.873 388.32 185.993 388.32C187.113 388.32 188.207 388.32 189.273 388.32C189.273 391.733 189.273 395.187 189.273 398.68C189.273 402.147 189.273 405.587 189.273 409C188.207 409 187.113 409 185.993 409C184.873 409 183.767 409 182.673 409ZM193.88 409C193.88 405.587 193.88 402.147 193.88 398.68C193.88 395.187 193.88 391.733 193.88 388.32C194.973 388.32 196.08 388.32 197.2 388.32C198.32 388.32 199.413 388.32 200.48 388.32C200.48 388.507 200.48 388.68 200.48 388.84C200.48 389 200.48 389.173 200.48 389.36C201.2 388.853 202 388.467 202.88 388.2C203.786 387.907 204.76 387.76 205.8 387.76C207.32 387.76 208.653 388.107 209.8 388.8C210.973 389.493 211.88 390.493 212.52 391.8C213.186 393.08 213.52 394.627 213.52 396.44C213.52 398.52 213.52 400.613 213.52 402.72C213.52 404.827 213.52 406.92 213.52 409C212.453 409 211.36 409 210.24 409C209.12 409 208.013 409 206.92 409C206.92 407.08 206.92 405.133 206.92 403.16C206.92 401.187 206.92 399.24 206.92 397.32C206.92 396.253 206.666 395.4 206.16 394.76C205.68 394.093 204.906 393.76 203.84 393.76C202.773 393.76 201.946 394.067 201.36 394.68C200.773 395.293 200.48 396.173 200.48 397.32C200.48 399.24 200.48 401.187 200.48 403.16C200.48 405.133 200.48 407.08 200.48 409C199.413 409 198.32 409 197.2 409C196.08 409 194.973 409 193.88 409ZM217.595 409C217.595 404.173 217.595 399.307 217.595 394.4C217.595 389.493 217.595 384.627 217.595 379.8C218.689 379.8 219.795 379.8 220.915 379.8C222.035 379.8 223.129 379.8 224.195 379.8C224.195 382.413 224.195 385.067 224.195 387.76C224.195 390.453 224.195 393.107 224.195 395.72C225.155 394.493 226.115 393.267 227.075 392.04C228.035 390.787 228.995 389.547 229.955 388.32C231.235 388.32 232.515 388.32 233.795 388.32C235.102 388.32 236.395 388.32 237.675 388.32C236.422 389.893 235.142 391.48 233.835 393.08C232.555 394.68 231.289 396.267 230.035 397.84C231.369 399.68 232.702 401.547 234.035 403.44C235.395 405.307 236.729 407.16 238.035 409C236.729 409 235.422 409 234.115 409C232.809 409 231.502 409 230.195 409C229.209 407.587 228.209 406.16 227.195 404.72C226.182 403.253 225.182 401.813 224.195 400.4C224.195 401.813 224.195 403.253 224.195 404.72C224.195 406.16 224.195 407.587 224.195 409C223.129 409 222.035 409 220.915 409C219.795 409 218.689 409 217.595 409ZM243.887 409.64C243.114 409.64 242.394 409.453 241.727 409.08C241.087 408.707 240.58 408.2 240.207 407.56C239.834 406.92 239.647 406.227 239.647 405.48C239.647 404.733 239.834 404.053 240.207 403.44C240.58 402.8 241.087 402.293 241.727 401.92C242.394 401.547 243.114 401.36 243.887 401.36C244.66 401.36 245.354 401.547 245.967 401.92C246.607 402.293 247.114 402.8 247.487 403.44C247.887 404.053 248.087 404.733 248.087 405.48C248.087 406.227 247.887 406.92 247.487 407.56C247.114 408.2 246.607 408.707 245.967 409.08C245.354 409.453 244.66 409.64 243.887 409.64Z" fill="#F8FAFB"/>
<path d="M82.7033 420.9C82.7033 420.13 82.8233 419.43 83.0633 418.8C83.3133 418.16 83.6633 417.605 84.1133 417.135C84.5633 416.665 85.1033 416.3 85.7333 416.04C86.3633 415.78 87.0583 415.64 87.8183 415.62C88.5883 415.6 89.4083 415.72 90.2783 415.98C90.2783 416.4 90.2783 416.825 90.2783 417.255C90.2783 417.675 90.2783 418.095 90.2783 418.515C89.6883 418.235 89.1033 418.075 88.5233 418.035C87.9433 417.995 87.4183 418.075 86.9483 418.275C86.4783 418.475 86.1033 418.795 85.8233 419.235C85.5433 419.665 85.4033 420.22 85.4033 420.9C85.4033 421.58 85.5433 422.14 85.8233 422.58C86.1033 423.01 86.4783 423.325 86.9483 423.525C87.4183 423.725 87.9433 423.805 88.5233 423.765C89.1033 423.725 89.6883 423.565 90.2783 423.285C90.2783 423.705 90.2783 424.13 90.2783 424.56C90.2783 424.98 90.2783 425.4 90.2783 425.82C89.4083 426.08 88.5883 426.2 87.8183 426.18C87.0583 426.16 86.3633 426.02 85.7333 425.76C85.1033 425.5 84.5633 425.135 84.1133 424.665C83.6633 424.195 83.3133 423.645 83.0633 423.015C82.8233 422.375 82.7033 421.67 82.7033 420.9ZM95.3809 426.24C94.8009 426.24 94.2609 426.14 93.7609 425.94C93.2609 425.73 92.8259 425.44 92.4559 425.07C92.0859 424.69 91.7959 424.25 91.5859 423.75C91.3859 423.25 91.2859 422.705 91.2859 422.115C91.2859 421.525 91.3859 420.98 91.5859 420.48C91.7959 419.98 92.0859 419.545 92.4559 419.175C92.8259 418.805 93.2609 418.52 93.7609 418.32C94.2609 418.11 94.8009 418.005 95.3809 418.005C95.9709 418.005 96.5109 418.11 97.0009 418.32C97.5009 418.52 97.9359 418.805 98.3059 419.175C98.6759 419.545 98.9609 419.98 99.1609 420.48C99.3709 420.98 99.4759 421.525 99.4759 422.115C99.4759 422.705 99.3709 423.25 99.1609 423.75C98.9609 424.25 98.6759 424.69 98.3059 425.07C97.9359 425.44 97.5009 425.73 97.0009 425.94C96.5109 426.14 95.9709 426.24 95.3809 426.24ZM95.3809 424.005C95.8709 424.005 96.2609 423.83 96.5509 423.48C96.8509 423.12 97.0009 422.665 97.0009 422.115C97.0009 421.555 96.8509 421.105 96.5509 420.765C96.2609 420.415 95.8709 420.24 95.3809 420.24C94.8909 420.24 94.4959 420.415 94.1959 420.765C93.9059 421.105 93.7609 421.555 93.7609 422.115C93.7609 422.665 93.9059 423.12 94.1959 423.48C94.4959 423.83 94.8909 424.005 95.3809 424.005ZM100.7 426C100.7 424.72 100.7 423.43 100.7 422.13C100.7 420.82 100.7 419.525 100.7 418.245C101.11 418.245 101.525 418.245 101.945 418.245C102.365 418.245 102.775 418.245 103.175 418.245C103.175 418.315 103.175 418.38 103.175 418.44C103.175 418.5 103.175 418.565 103.175 418.635C103.445 418.445 103.745 418.3 104.075 418.2C104.415 418.09 104.78 418.035 105.17 418.035C105.74 418.035 106.24 418.165 106.67 418.425C107.11 418.685 107.45 419.06 107.69 419.55C107.94 420.03 108.065 420.61 108.065 421.29C108.065 422.07 108.065 422.855 108.065 423.645C108.065 424.435 108.065 425.22 108.065 426C107.665 426 107.255 426 106.835 426C106.415 426 106 426 105.59 426C105.59 425.28 105.59 424.55 105.59 423.81C105.59 423.07 105.59 422.34 105.59 421.62C105.59 421.22 105.495 420.9 105.305 420.66C105.125 420.41 104.835 420.285 104.435 420.285C104.035 420.285 103.725 420.4 103.505 420.63C103.285 420.86 103.175 421.19 103.175 421.62C103.175 422.34 103.175 423.07 103.175 423.81C103.175 424.55 103.175 425.28 103.175 426C102.775 426 102.365 426 101.945 426C101.525 426 101.11 426 100.7 426ZM110.402 426C110.402 425.08 110.402 424.155 110.402 423.225C110.402 422.295 110.402 421.375 110.402 420.465C110.202 420.465 109.997 420.465 109.787 420.465C109.587 420.465 109.387 420.465 109.187 420.465C109.187 420.095 109.187 419.725 109.187 419.355C109.187 418.985 109.187 418.615 109.187 418.245C109.387 418.245 109.587 418.245 109.787 418.245C109.997 418.245 110.202 418.245 110.402 418.245C110.402 417.895 110.402 417.55 110.402 417.21C110.402 416.86 110.402 416.515 110.402 416.175C110.812 416.175 111.227 416.175 111.647 416.175C112.067 416.175 112.477 416.175 112.877 416.175C112.877 416.515 112.877 416.86 112.877 417.21C112.877 417.55 112.877 417.895 112.877 418.245C113.107 418.245 113.342 418.245 113.582 418.245C113.822 418.245 114.057 418.245 114.287 418.245C114.287 418.615 114.287 418.985 114.287 419.355C114.287 419.725 114.287 420.095 114.287 420.465C114.057 420.465 113.822 420.465 113.582 420.465C113.342 420.465 113.107 420.465 112.877 420.465C112.877 421.375 112.877 422.295 112.877 423.225C112.877 424.155 112.877 425.08 112.877 426C112.477 426 112.067 426 111.647 426C111.227 426 110.812 426 110.402 426ZM115.48 426C115.48 424.72 115.48 423.43 115.48 422.13C115.48 420.82 115.48 419.525 115.48 418.245C115.89 418.245 116.305 418.245 116.725 418.245C117.145 418.245 117.555 418.245 117.955 418.245C117.955 418.315 117.955 418.385 117.955 418.455C117.955 418.525 117.955 418.595 117.955 418.665C118.265 418.445 118.615 418.28 119.005 418.17C119.395 418.06 119.82 418.03 120.28 418.08C120.28 418.48 120.28 418.885 120.28 419.295C120.28 419.705 120.28 420.11 120.28 420.51C119.49 420.4 118.905 420.47 118.525 420.72C118.145 420.96 117.955 421.355 117.955 421.905C117.955 422.575 117.955 423.255 117.955 423.945C117.955 424.635 117.955 425.32 117.955 426C117.555 426 117.145 426 116.725 426C116.305 426 115.89 426 115.48 426ZM125 426.24C124.42 426.24 123.88 426.14 123.38 425.94C122.88 425.73 122.445 425.44 122.075 425.07C121.705 424.69 121.415 424.25 121.205 423.75C121.005 423.25 120.905 422.705 120.905 422.115C120.905 421.525 121.005 420.98 121.205 420.48C121.415 419.98 121.705 419.545 122.075 419.175C122.445 418.805 122.88 418.52 123.38 418.32C123.88 418.11 124.42 418.005 125 418.005C125.59 418.005 126.13 418.11 126.62 418.32C127.12 418.52 127.555 418.805 127.925 419.175C128.295 419.545 128.58 419.98 128.78 420.48C128.99 420.98 129.095 421.525 129.095 422.115C129.095 422.705 128.99 423.25 128.78 423.75C128.58 424.25 128.295 424.69 127.925 425.07C127.555 425.44 127.12 425.73 126.62 425.94C126.13 426.14 125.59 426.24 125 426.24ZM125 424.005C125.49 424.005 125.88 423.83 126.17 423.48C126.47 423.12 126.62 422.665 126.62 422.115C126.62 421.555 126.47 421.105 126.17 420.765C125.88 420.415 125.49 420.24 125 420.24C124.51 420.24 124.115 420.415 123.815 420.765C123.525 421.105 123.38 421.555 123.38 422.115C123.38 422.665 123.525 423.12 123.815 423.48C124.115 423.83 124.51 424.005 125 424.005ZM130.394 426C130.394 424.19 130.394 422.365 130.394 420.525C130.394 418.685 130.394 416.86 130.394 415.05C130.804 415.05 131.219 415.05 131.639 415.05C132.059 415.05 132.469 415.05 132.869 415.05C132.869 416.86 132.869 418.685 132.869 420.525C132.869 422.365 132.869 424.19 132.869 426C132.469 426 132.059 426 131.639 426C131.219 426 130.804 426 130.394 426ZM138.466 428.4C138.666 427.87 138.871 427.335 139.081 426.795C139.301 426.265 139.511 425.74 139.711 425.22C139.241 424.07 138.761 422.91 138.271 421.74C137.791 420.56 137.316 419.395 136.846 418.245C137.286 418.245 137.726 418.245 138.166 418.245C138.606 418.245 139.041 418.245 139.471 418.245C139.731 418.885 139.991 419.535 140.251 420.195C140.521 420.855 140.786 421.51 141.046 422.16C141.286 421.51 141.531 420.855 141.781 420.195C142.031 419.535 142.276 418.885 142.516 418.245C142.946 418.245 143.376 418.245 143.806 418.245C144.236 418.245 144.666 418.245 145.096 418.245C144.426 419.915 143.751 421.61 143.071 423.33C142.401 425.04 141.731 426.73 141.061 428.4C140.631 428.4 140.196 428.4 139.756 428.4C139.326 428.4 138.896 428.4 138.466 428.4ZM149.375 426.24C148.795 426.24 148.255 426.14 147.755 425.94C147.255 425.73 146.82 425.44 146.45 425.07C146.08 424.69 145.79 424.25 145.58 423.75C145.38 423.25 145.28 422.705 145.28 422.115C145.28 421.525 145.38 420.98 145.58 420.48C145.79 419.98 146.08 419.545 146.45 419.175C146.82 418.805 147.255 418.52 147.755 418.32C148.255 418.11 148.795 418.005 149.375 418.005C149.965 418.005 150.505 418.11 150.995 418.32C151.495 418.52 151.93 418.805 152.3 419.175C152.67 419.545 152.955 419.98 153.155 420.48C153.365 420.98 153.47 421.525 153.47 422.115C153.47 422.705 153.365 423.25 153.155 423.75C152.955 424.25 152.67 424.69 152.3 425.07C151.93 425.44 151.495 425.73 150.995 425.94C150.505 426.14 149.965 426.24 149.375 426.24ZM149.375 424.005C149.865 424.005 150.255 423.83 150.545 423.48C150.845 423.12 150.995 422.665 150.995 422.115C150.995 421.555 150.845 421.105 150.545 420.765C150.255 420.415 149.865 420.24 149.375 420.24C148.885 420.24 148.49 420.415 148.19 420.765C147.9 421.105 147.755 421.555 147.755 422.115C147.755 422.665 147.9 423.12 148.19 423.48C148.49 423.83 148.885 424.005 149.375 424.005ZM161.939 418.245C161.939 419.525 161.939 420.82 161.939 422.13C161.939 423.43 161.939 424.72 161.939 426C161.539 426 161.129 426 160.709 426C160.289 426 159.874 426 159.464 426C159.464 425.93 159.464 425.865 159.464 425.805C159.464 425.745 159.464 425.68 159.464 425.61C159.194 425.8 158.889 425.945 158.549 426.045C158.219 426.155 157.859 426.21 157.469 426.21C156.899 426.21 156.394 426.08 155.954 425.82C155.524 425.56 155.184 425.185 154.934 424.695C154.694 424.205 154.574 423.625 154.574 422.955C154.574 422.175 154.574 421.39 154.574 420.6C154.574 419.81 154.574 419.025 154.574 418.245C154.984 418.245 155.399 418.245 155.819 418.245C156.239 418.245 156.649 418.245 157.049 418.245C157.049 418.965 157.049 419.695 157.049 420.435C157.049 421.175 157.049 421.905 157.049 422.625C157.049 423.025 157.139 423.35 157.319 423.6C157.509 423.84 157.804 423.96 158.204 423.96C158.604 423.96 158.914 423.845 159.134 423.615C159.354 423.385 159.464 423.055 159.464 422.625C159.464 421.905 159.464 421.175 159.464 420.435C159.464 419.695 159.464 418.965 159.464 418.245C159.874 418.245 160.289 418.245 160.709 418.245C161.129 418.245 161.539 418.245 161.939 418.245ZM163.586 426C163.586 424.72 163.586 423.43 163.586 422.13C163.586 420.82 163.586 419.525 163.586 418.245C163.996 418.245 164.411 418.245 164.831 418.245C165.251 418.245 165.661 418.245 166.061 418.245C166.061 418.315 166.061 418.385 166.061 418.455C166.061 418.525 166.061 418.595 166.061 418.665C166.371 418.445 166.721 418.28 167.111 418.17C167.501 418.06 167.926 418.03 168.386 418.08C168.386 418.48 168.386 418.885 168.386 419.295C168.386 419.705 168.386 420.11 168.386 420.51C167.596 420.4 167.011 420.47 166.631 420.72C166.251 420.96 166.061 421.355 166.061 421.905C166.061 422.575 166.061 423.255 166.061 423.945C166.061 424.635 166.061 425.32 166.061 426C165.661 426 165.251 426 164.831 426C164.411 426 163.996 426 163.586 426ZM172.728 426C172.728 424.19 172.728 422.365 172.728 420.525C172.728 418.685 172.728 416.86 172.728 415.05C173.138 415.05 173.553 415.05 173.973 415.05C174.393 415.05 174.803 415.05 175.203 415.05C175.203 416.86 175.203 418.685 175.203 420.525C175.203 422.365 175.203 424.19 175.203 426C174.803 426 174.393 426 173.973 426C173.553 426 173.138 426 172.728 426ZM178.25 417.36C177.96 417.36 177.695 417.29 177.455 417.15C177.225 417.01 177.04 416.825 176.9 416.595C176.76 416.365 176.69 416.11 176.69 415.83C176.69 415.55 176.76 415.3 176.9 415.08C177.04 414.85 177.225 414.665 177.455 414.525C177.695 414.385 177.96 414.315 178.25 414.315C178.53 414.315 178.785 414.385 179.015 414.525C179.255 414.665 179.445 414.85 179.585 415.08C179.725 415.3 179.795 415.55 179.795 415.83C179.795 416.11 179.725 416.365 179.585 416.595C179.445 416.825 179.255 417.01 179.015 417.15C178.785 417.29 178.53 417.36 178.25 417.36ZM177.005 426C177.005 424.72 177.005 423.43 177.005 422.13C177.005 420.82 177.005 419.525 177.005 418.245C177.415 418.245 177.83 418.245 178.25 418.245C178.67 418.245 179.08 418.245 179.48 418.245C179.48 419.525 179.48 420.82 179.48 422.13C179.48 423.43 179.48 424.72 179.48 426C179.08 426 178.67 426 178.25 426C177.83 426 177.415 426 177.005 426ZM181.208 426C181.208 424.72 181.208 423.43 181.208 422.13C181.208 420.82 181.208 419.525 181.208 418.245C181.618 418.245 182.033 418.245 182.453 418.245C182.873 418.245 183.283 418.245 183.683 418.245C183.683 418.315 183.683 418.38 183.683 418.44C183.683 418.5 183.683 418.565 183.683 418.635C183.953 418.445 184.253 418.3 184.583 418.2C184.923 418.09 185.288 418.035 185.678 418.035C186.248 418.035 186.748 418.165 187.178 418.425C187.618 418.685 187.958 419.06 188.198 419.55C188.448 420.03 188.573 420.61 188.573 421.29C188.573 422.07 188.573 422.855 188.573 423.645C188.573 424.435 188.573 425.22 188.573 426C188.173 426 187.763 426 187.343 426C186.923 426 186.508 426 186.098 426C186.098 425.28 186.098 424.55 186.098 423.81C186.098 423.07 186.098 422.34 186.098 421.62C186.098 421.22 186.003 420.9 185.813 420.66C185.633 420.41 185.343 420.285 184.943 420.285C184.543 420.285 184.233 420.4 184.013 420.63C183.793 420.86 183.683 421.19 183.683 421.62C183.683 422.34 183.683 423.07 183.683 423.81C183.683 424.55 183.683 425.28 183.683 426C183.283 426 182.873 426 182.453 426C182.033 426 181.618 426 181.208 426ZM190.101 426C190.101 424.19 190.101 422.365 190.101 420.525C190.101 418.685 190.101 416.86 190.101 415.05C190.511 415.05 190.926 415.05 191.346 415.05C191.766 415.05 192.176 415.05 192.576 415.05C192.576 416.03 192.576 417.025 192.576 418.035C192.576 419.045 192.576 420.04 192.576 421.02C192.936 420.56 193.296 420.1 193.656 419.64C194.016 419.17 194.376 418.705 194.736 418.245C195.216 418.245 195.696 418.245 196.176 418.245C196.666 418.245 197.151 418.245 197.631 418.245C197.161 418.835 196.681 419.43 196.191 420.03C195.711 420.63 195.236 421.225 194.766 421.815C195.266 422.505 195.766 423.205 196.266 423.915C196.776 424.615 197.276 425.31 197.766 426C197.276 426 196.786 426 196.296 426C195.806 426 195.316 426 194.826 426C194.456 425.47 194.081 424.935 193.701 424.395C193.321 423.845 192.946 423.305 192.576 422.775C192.576 423.305 192.576 423.845 192.576 424.395C192.576 424.935 192.576 425.47 192.576 426C192.176 426 191.766 426 191.346 426C190.926 426 190.511 426 190.101 426ZM203.065 417.36C202.775 417.36 202.51 417.29 202.27 417.15C202.04 417.01 201.855 416.825 201.715 416.595C201.575 416.365 201.505 416.11 201.505 415.83C201.505 415.55 201.575 415.3 201.715 415.08C201.855 414.85 202.04 414.665 202.27 414.525C202.51 414.385 202.775 414.315 203.065 414.315C203.345 414.315 203.6 414.385 203.83 414.525C204.07 414.665 204.26 414.85 204.4 415.08C204.54 415.3 204.61 415.55 204.61 415.83C204.61 416.11 204.54 416.365 204.4 416.595C204.26 416.825 204.07 417.01 203.83 417.15C203.6 417.29 203.345 417.36 203.065 417.36ZM201.82 426C201.82 424.72 201.82 423.43 201.82 422.13C201.82 420.82 201.82 419.525 201.82 418.245C202.23 418.245 202.645 418.245 203.065 418.245C203.485 418.245 203.895 418.245 204.295 418.245C204.295 419.525 204.295 420.82 204.295 422.13C204.295 423.43 204.295 424.72 204.295 426C203.895 426 203.485 426 203.065 426C202.645 426 202.23 426 201.82 426ZM206.022 426C206.022 424.72 206.022 423.43 206.022 422.13C206.022 420.82 206.022 419.525 206.022 418.245C206.432 418.245 206.847 418.245 207.267 418.245C207.687 418.245 208.097 418.245 208.497 418.245C208.497 418.315 208.497 418.38 208.497 418.44C208.497 418.5 208.497 418.565 208.497 418.635C208.767 418.445 209.067 418.3 209.397 418.2C209.737 418.09 210.102 418.035 210.492 418.035C211.062 418.035 211.562 418.165 211.992 418.425C212.432 418.685 212.772 419.06 213.012 419.55C213.262 420.03 213.387 420.61 213.387 421.29C213.387 422.07 213.387 422.855 213.387 423.645C213.387 424.435 213.387 425.22 213.387 426C212.987 426 212.577 426 212.157 426C211.737 426 211.322 426 210.912 426C210.912 425.28 210.912 424.55 210.912 423.81C210.912 423.07 210.912 422.34 210.912 421.62C210.912 421.22 210.817 420.9 210.627 420.66C210.447 420.41 210.157 420.285 209.757 420.285C209.357 420.285 209.047 420.4 208.827 420.63C208.607 420.86 208.497 421.19 208.497 421.62C208.497 422.34 208.497 423.07 208.497 423.81C208.497 424.55 208.497 425.28 208.497 426C208.097 426 207.687 426 207.267 426C206.847 426 206.432 426 206.022 426ZM221.738 426.24C221.158 426.24 220.618 426.14 220.118 425.94C219.618 425.73 219.183 425.44 218.813 425.07C218.443 424.69 218.153 424.25 217.943 423.75C217.743 423.25 217.643 422.705 217.643 422.115C217.643 421.525 217.743 420.98 217.943 420.48C218.153 419.98 218.443 419.545 218.813 419.175C219.183 418.805 219.618 418.52 220.118 418.32C220.618 418.11 221.158 418.005 221.738 418.005C222.328 418.005 222.868 418.11 223.358 418.32C223.858 418.52 224.293 418.805 224.663 419.175C225.033 419.545 225.318 419.98 225.518 420.48C225.728 420.98 225.833 421.525 225.833 422.115C225.833 422.705 225.728 423.25 225.518 423.75C225.318 424.25 225.033 424.69 224.663 425.07C224.293 425.44 223.858 425.73 223.358 425.94C222.868 426.14 222.328 426.24 221.738 426.24ZM221.738 424.005C222.228 424.005 222.618 423.83 222.908 423.48C223.208 423.12 223.358 422.665 223.358 422.115C223.358 421.555 223.208 421.105 222.908 420.765C222.618 420.415 222.228 420.24 221.738 420.24C221.248 420.24 220.853 420.415 220.553 420.765C220.263 421.105 220.118 421.555 220.118 422.115C220.118 422.665 220.263 423.12 220.553 423.48C220.853 423.83 221.248 424.005 221.738 424.005ZM227.057 426C227.057 424.72 227.057 423.43 227.057 422.13C227.057 420.82 227.057 419.525 227.057 418.245C227.467 418.245 227.882 418.245 228.302 418.245C228.722 418.245 229.132 418.245 229.532 418.245C229.532 418.315 229.532 418.38 229.532 418.44C229.532 418.5 229.532 418.565 229.532 418.635C229.802 418.445 230.102 418.3 230.432 418.2C230.772 418.09 231.137 418.035 231.527 418.035C232.097 418.035 232.597 418.165 233.027 418.425C233.467 418.685 233.807 419.06 234.047 419.55C234.297 420.03 234.422 420.61 234.422 421.29C234.422 422.07 234.422 422.855 234.422 423.645C234.422 424.435 234.422 425.22 234.422 426C234.022 426 233.612 426 233.192 426C232.772 426 232.357 426 231.947 426C231.947 425.28 231.947 424.55 231.947 423.81C231.947 423.07 231.947 422.34 231.947 421.62C231.947 421.22 231.852 420.9 231.662 420.66C231.482 420.41 231.192 420.285 230.792 420.285C230.392 420.285 230.082 420.4 229.862 420.63C229.642 420.86 229.532 421.19 229.532 421.62C229.532 422.34 229.532 423.07 229.532 423.81C229.532 424.55 229.532 425.28 229.532 426C229.132 426 228.722 426 228.302 426C227.882 426 227.467 426 227.057 426ZM242.624 425.64C241.934 425.93 241.249 426.11 240.569 426.18C239.889 426.25 239.244 426.21 238.634 426.06C238.034 425.92 237.499 425.675 237.029 425.325C236.559 424.975 236.189 424.53 235.919 423.99C235.659 423.45 235.529 422.825 235.529 422.115C235.529 421.525 235.624 420.985 235.814 420.495C236.014 419.995 236.294 419.56 236.654 419.19C237.014 418.81 237.439 418.52 237.929 418.32C238.419 418.11 238.954 418.005 239.534 418.005C240.054 418.005 240.524 418.09 240.944 418.26C241.364 418.43 241.729 418.67 242.039 418.98C242.349 419.28 242.599 419.64 242.789 420.06C242.979 420.48 243.099 420.94 243.149 421.44C243.199 421.94 243.169 422.47 243.059 423.03C242.239 423.03 241.414 423.03 240.584 423.03C239.754 423.03 238.929 423.03 238.109 423.03C238.299 423.41 238.614 423.68 239.054 423.84C239.504 424 240.034 424.05 240.644 423.99C241.264 423.93 241.924 423.77 242.624 423.51C242.624 423.86 242.624 424.215 242.624 424.575C242.624 424.935 242.624 425.29 242.624 425.64ZM239.474 420.225C239.184 420.225 238.914 420.305 238.664 420.465C238.424 420.625 238.239 420.87 238.109 421.2C238.559 421.2 239.009 421.2 239.459 421.2C239.919 421.2 240.374 421.2 240.824 421.2C240.704 420.86 240.524 420.615 240.284 420.465C240.054 420.305 239.784 420.225 239.474 420.225ZM252.784 426C252.784 425.92 252.784 425.845 252.784 425.775C252.784 425.695 252.784 425.62 252.784 425.55C252.534 425.76 252.249 425.92 251.929 426.03C251.619 426.15 251.284 426.21 250.924 426.21C250.414 426.21 249.934 426.115 249.484 425.925C249.034 425.725 248.634 425.445 248.284 425.085C247.944 424.715 247.674 424.28 247.474 423.78C247.284 423.28 247.189 422.725 247.189 422.115C247.189 421.495 247.284 420.935 247.474 420.435C247.674 419.935 247.944 419.51 248.284 419.16C248.634 418.8 249.034 418.525 249.484 418.335C249.934 418.135 250.409 418.035 250.909 418.035C251.269 418.035 251.609 418.095 251.929 418.215C252.249 418.325 252.534 418.48 252.784 418.68C252.784 418.6 252.784 418.525 252.784 418.455C252.784 418.385 252.784 418.315 252.784 418.245C253.194 418.245 253.609 418.245 254.029 418.245C254.449 418.245 254.859 418.245 255.259 418.245C255.259 419.525 255.259 420.82 255.259 422.13C255.259 423.43 255.259 424.72 255.259 426C254.859 426 254.449 426 254.029 426C253.609 426 253.194 426 252.784 426ZM251.254 424.02C251.734 424.02 252.119 423.845 252.409 423.495C252.699 423.145 252.844 422.685 252.844 422.115C252.844 421.545 252.699 421.09 252.409 420.75C252.119 420.4 251.734 420.225 251.254 420.225C250.764 420.225 250.374 420.395 250.084 420.735C249.804 421.075 249.664 421.535 249.664 422.115C249.664 422.695 249.804 423.16 250.084 423.51C250.374 423.85 250.764 424.02 251.254 424.02ZM259.386 428.4C258.986 428.4 258.576 428.4 258.156 428.4C257.736 428.4 257.321 428.4 256.911 428.4C256.911 426.73 256.911 425.04 256.911 423.33C256.911 421.61 256.911 419.915 256.911 418.245C257.321 418.245 257.736 418.245 258.156 418.245C258.576 418.245 258.986 418.245 259.386 418.245C259.386 418.315 259.386 418.385 259.386 418.455C259.386 418.525 259.386 418.6 259.386 418.68C259.636 418.48 259.921 418.325 260.241 418.215C260.561 418.095 260.901 418.035 261.261 418.035C261.761 418.035 262.236 418.135 262.686 418.335C263.136 418.525 263.531 418.8 263.871 419.16C264.221 419.52 264.491 419.95 264.681 420.45C264.881 420.95 264.981 421.505 264.981 422.115C264.981 422.715 264.881 423.265 264.681 423.765C264.491 424.265 264.221 424.7 263.871 425.07C263.531 425.43 263.136 425.71 262.686 425.91C262.236 426.11 261.756 426.21 261.246 426.21C260.886 426.21 260.546 426.15 260.226 426.03C259.916 425.92 259.636 425.76 259.386 425.55C259.386 426.02 259.386 426.495 259.386 426.975C259.386 427.455 259.386 427.93 259.386 428.4ZM260.916 424.02C261.406 424.02 261.791 423.85 262.071 423.51C262.361 423.16 262.506 422.695 262.506 422.115C262.506 421.535 262.361 421.075 262.071 420.735C261.791 420.395 261.406 420.225 260.916 420.225C260.436 420.225 260.051 420.4 259.761 420.75C259.471 421.09 259.326 421.545 259.326 422.115C259.326 422.685 259.471 423.145 259.761 423.495C260.051 423.845 260.436 424.02 260.916 424.02ZM268.688 428.4C268.288 428.4 267.878 428.4 267.458 428.4C267.038 428.4 266.623 428.4 266.213 428.4C266.213 426.73 266.213 425.04 266.213 423.33C266.213 421.61 266.213 419.915 266.213 418.245C266.623 418.245 267.038 418.245 267.458 418.245C267.878 418.245 268.288 418.245 268.688 418.245C268.688 418.315 268.688 418.385 268.688 418.455C268.688 418.525 268.688 418.6 268.688 418.68C268.938 418.48 269.223 418.325 269.543 418.215C269.863 418.095 270.203 418.035 270.563 418.035C271.063 418.035 271.538 418.135 271.988 418.335C272.438 418.525 272.833 418.8 273.173 419.16C273.523 419.52 273.793 419.95 273.983 420.45C274.183 420.95 274.283 421.505 274.283 422.115C274.283 422.715 274.183 423.265 273.983 423.765C273.793 424.265 273.523 424.7 273.173 425.07C272.833 425.43 272.438 425.71 271.988 425.91C271.538 426.11 271.058 426.21 270.548 426.21C270.188 426.21 269.848 426.15 269.528 426.03C269.218 425.92 268.938 425.76 268.688 425.55C268.688 426.02 268.688 426.495 268.688 426.975C268.688 427.455 268.688 427.93 268.688 428.4ZM270.218 424.02C270.708 424.02 271.093 423.85 271.373 423.51C271.663 423.16 271.808 422.695 271.808 422.115C271.808 421.535 271.663 421.075 271.373 420.735C271.093 420.395 270.708 420.225 270.218 420.225C269.738 420.225 269.353 420.4 269.063 420.75C268.773 421.09 268.628 421.545 268.628 422.115C268.628 422.685 268.773 423.145 269.063 423.495C269.353 423.845 269.738 424.02 270.218 424.02ZM276.586 426.24C276.296 426.24 276.026 426.17 275.776 426.03C275.536 425.89 275.346 425.7 275.206 425.46C275.066 425.22 274.996 424.96 274.996 424.68C274.996 424.4 275.066 424.145 275.206 423.915C275.346 423.675 275.536 423.485 275.776 423.345C276.026 423.205 276.296 423.135 276.586 423.135C276.876 423.135 277.136 423.205 277.366 423.345C277.606 423.485 277.796 423.675 277.936 423.915C278.086 424.145 278.161 424.4 278.161 424.68C278.161 424.96 278.086 425.22 277.936 425.46C277.796 425.7 277.606 425.89 277.366 426.03C277.136 426.17 276.876 426.24 276.586 426.24Z" fill="#F8FAFB"/>
</g>
<defs>
<clipPath id="clip0_65_287">
<rect width="360" height="800" fill="white"/>
</clipPath>
</defs>
</svg>
