<svg width="24" height="24" viewBox="0 0 24 24" fill="none" xmlns="http://www.w3.org/2000/svg">
<g clip-path="url(#clip0_366_498)">
<path d="M3.08612 10.6841C3.81027 5.76306 8.38657 2.36083 13.3076 3.08498C14.9865 3.33203 16.5615 4.04842 17.8511 5.15163L16.6902 6.31251C16.3011 6.7017 16.3012 7.33267 16.6904 7.72176C16.8772 7.90851 17.1306 8.01347 17.3947 8.01351H21.9646C22.515 8.01351 22.9611 7.56739 22.9611 7.01705V2.44715C22.961 1.89681 22.5147 1.45077 21.9644 1.45087C21.7002 1.45091 21.4469 1.55587 21.2601 1.74262L19.9646 3.03803C15.0245 -1.36557 7.44993 -0.930701 3.04632 4.00937C1.48625 5.75947 0.47385 7.92878 0.134547 10.2486C0.000769038 11.071 0.559003 11.8462 1.38138 11.98C1.45547 11.992 1.5303 11.9985 1.60536 11.9994C2.35777 11.9913 2.98934 11.4303 3.08612 10.6841Z" fill="#374957"/>
<path d="M22.3938 11.9993C21.6414 12.0074 21.0099 12.5684 20.9131 13.3146C20.1889 18.2356 15.6126 21.6379 10.6916 20.9138C9.01267 20.6667 7.4377 19.9503 6.14812 18.8471L7.30901 17.6862C7.69811 17.297 7.69801 16.6661 7.30878 16.277C7.12198 16.0902 6.86863 15.9853 6.60448 15.9852H2.03468C1.48434 15.9852 1.03821 16.4314 1.03821 16.9817V21.5516C1.03835 22.1019 1.48457 22.548 2.03491 22.5479C2.29906 22.5478 2.55241 22.4429 2.73921 22.2561L4.03462 20.9607C8.97353 25.3648 16.5475 24.9312 20.9517 19.9923C22.5126 18.2418 23.5254 16.0718 23.8647 13.7511C23.999 12.9288 23.4413 12.1533 22.619 12.0189C22.5445 12.0067 22.4693 12.0002 22.3938 11.9993Z" fill="#374957"/>
</g>
<defs>
<clipPath id="clip0_366_498">
<rect width="24" height="24" fill="white"/>
</clipPath>
</defs>
</svg>
