<svg width="104" height="104" viewBox="0 0 104 104" fill="none" xmlns="http://www.w3.org/2000/svg">
<circle cx="52" cy="52" r="52" fill="#374957"/>
<g clip-path="url(#clip0_273_471)">
<mask id="mask0_273_471" style="mask-type:luminance" maskUnits="userSpaceOnUse" x="40" y="40" width="24" height="24">
<path d="M64 40H40V64H64V40Z" fill="white"/>
</mask>
<g mask="url(#mask0_273_471)">
<path d="M47.7602 46.6515L50.5411 43.8696L50.5621 57.501C50.5621 58.3294 51.2337 59.001 52.0621 59.001C52.8905 59.001 53.562 58.3294 53.562 57.501L53.541 43.8866L56.3059 46.6515C56.8814 47.2474 57.831 47.2639 58.4268 46.6884C59.0227 46.1129 59.0392 45.1633 58.4637 44.5674C58.4516 44.5549 58.4393 44.5427 58.4268 44.5306L55.2149 41.3187C53.4577 39.5614 50.6085 39.5614 48.8512 41.3187L45.6393 44.5306C45.0638 45.1264 45.0803 46.076 45.6762 46.6515C46.2574 47.2129 47.179 47.2129 47.7602 46.6515Z" fill="white"/>
<path d="M62.4996 54.5005C61.6712 54.5005 60.9996 55.1721 60.9996 56.0004V60.5912C60.9991 60.8169 60.8163 60.9997 60.5907 61.0002H43.4093C43.1837 60.9996 43.0009 60.8169 43.0004 60.5912V56.0004C43.0004 55.1721 42.3288 54.5005 41.5004 54.5005C40.672 54.5005 40.0005 55.1721 40.0005 56.0004V60.5912C40.0027 62.473 41.5276 63.9978 43.4093 64.0001H60.5906C62.4724 63.9978 63.9972 62.4729 63.9994 60.5912V56.0004C63.9995 55.1721 63.3279 54.5005 62.4996 54.5005Z" fill="white"/>
</g>
</g>
<defs>
<clipPath id="clip0_273_471">
<rect width="24" height="24" fill="white" transform="translate(40 40)"/>
</clipPath>
</defs>
</svg>
