<svg width="15" height="15" viewBox="0 0 15 15" fill="none" xmlns="http://www.w3.org/2000/svg">
<path d="M8.82567 7.49989L11.25 5.07301C11.4074 4.89411 11.4908 4.66199 11.4832 4.42382C11.4756 4.18565 11.3776 3.95932 11.2091 3.79082C11.0406 3.62233 10.8143 3.52432 10.5761 3.51671C10.3379 3.50911 10.1058 3.59248 9.92692 3.74989L7.50004 6.17426L5.06879 3.74239C4.98171 3.6553 4.87833 3.58623 4.76455 3.5391C4.65077 3.49197 4.52882 3.46771 4.40567 3.46771C4.28251 3.46771 4.16056 3.49197 4.04678 3.5391C3.93301 3.58623 3.82962 3.6553 3.74254 3.74239C3.65546 3.82947 3.58638 3.93285 3.53925 4.04663C3.49212 4.16041 3.46787 4.28236 3.46787 4.40551C3.46787 4.52867 3.49212 4.65061 3.53925 4.76439C3.58638 4.87817 3.65546 4.98155 3.74254 5.06864L6.17442 7.49989L3.75004 9.92614C3.65496 10.0111 3.57822 10.1146 3.52452 10.2303C3.47081 10.346 3.44127 10.4714 3.43771 10.5989C3.43414 10.7263 3.45662 10.8532 3.50377 10.9717C3.55092 11.0902 3.62175 11.1978 3.71193 11.288C3.8021 11.3782 3.90973 11.449 4.02823 11.4962C4.14672 11.5433 4.27359 11.5658 4.40107 11.5622C4.52855 11.5587 4.65396 11.5291 4.76963 11.4754C4.8853 11.4217 4.9888 11.345 5.07379 11.2499L7.50004 8.82551L9.92379 11.2499C10.0997 11.4258 10.3382 11.5246 10.5869 11.5246C10.8356 11.5246 11.0742 11.4258 11.25 11.2499C11.4259 11.074 11.5247 10.8355 11.5247 10.5868C11.5247 10.338 11.4259 10.0995 11.25 9.92364L8.82567 7.49989Z" fill="#374957"/>
</svg>
