<svg width="24" height="26" viewBox="0 0 24 26" fill="none" xmlns="http://www.w3.org/2000/svg">
<g clip-path="url(#clip0_326_478)">
<path d="M7 6.47402H23C23.2652 6.47402 23.5196 6.36035 23.7071 6.15801C23.8946 5.95566 24 5.68123 24 5.39508C24 5.10892 23.8946 4.83449 23.7071 4.63215C23.5196 4.42981 23.2652 4.31613 23 4.31613H7C6.73478 4.31613 6.48043 4.42981 6.29289 4.63215C6.10536 4.83449 6 5.10892 6 5.39508C6 5.68123 6.10536 5.95566 6.29289 6.15801C6.48043 6.36035 6.73478 6.47402 7 6.47402Z" fill="#374957"/>
<path d="M23 11.8681H7C6.73478 11.8681 6.48043 11.9818 6.29289 12.1841C6.10536 12.3865 6 12.6609 6 12.9471C6 13.2332 6.10536 13.5076 6.29289 13.71C6.48043 13.9123 6.73478 14.026 7 14.026H23C23.2652 14.026 23.5196 13.9123 23.7071 13.71C23.8946 13.5076 24 13.2332 24 12.9471C24 12.6609 23.8946 12.3865 23.7071 12.1841C23.5196 11.9818 23.2652 11.8681 23 11.8681Z" fill="#374957"/>
<path d="M23 19.4211H7C6.73478 19.4211 6.48043 19.5347 6.29289 19.7371C6.10536 19.9394 6 20.2138 6 20.5C6 20.7862 6.10536 21.0606 6.29289 21.2629C6.48043 21.4653 6.73478 21.579 7 21.579H23C23.2652 21.579 23.5196 21.4653 23.7071 21.2629C23.8946 21.0606 24 20.7862 24 20.5C24 20.2138 23.8946 19.9394 23.7071 19.7371C23.5196 19.5347 23.2652 19.4211 23 19.4211Z" fill="#374957"/>
<path d="M2 7.55263C3.10457 7.55263 4 6.58651 4 5.39474C4 4.20297 3.10457 3.23685 2 3.23685C0.89543 3.23685 0 4.20297 0 5.39474C0 6.58651 0.89543 7.55263 2 7.55263Z" fill="#374957"/>
<path d="M2 15.1056C3.10457 15.1056 4 14.1395 4 12.9477C4 11.7559 3.10457 10.7898 2 10.7898C0.89543 10.7898 0 11.7559 0 12.9477C0 14.1395 0.89543 15.1056 2 15.1056Z" fill="#374957"/>
<path d="M2 22.6575C3.10457 22.6575 4 21.6914 4 20.4997C4 19.3079 3.10457 18.3418 2 18.3418C0.89543 18.3418 0 19.3079 0 20.4997C0 21.6914 0.89543 22.6575 2 22.6575Z" fill="#374957"/>
</g>
<defs>
<clipPath id="clip0_326_478">
<rect width="24" height="25.8947" fill="white"/>
</clipPath>
</defs>
</svg>
