<svg width="41" height="41" viewBox="0 0 41 41" fill="none" xmlns="http://www.w3.org/2000/svg">
<path d="M11.1006 34.8947C11.1006 33.8867 11.1006 32.8667 11.1006 31.8347C11.1006 30.8027 11.1006 29.7827 11.1006 28.7747C11.3646 28.7747 11.6286 28.7747 11.8926 28.7747C12.1566 28.7747 12.4176 28.7747 12.6756 28.7747C12.6756 29.5487 12.6756 30.3317 12.6756 31.1237C12.6756 31.9097 12.6756 32.6897 12.6756 33.4637C12.9936 33.4637 13.3146 33.4637 13.6386 33.4637C13.9626 33.4637 14.2806 33.4637 14.5926 33.4637C14.5926 33.6977 14.5926 33.9377 14.5926 34.1837C14.5926 34.4237 14.5926 34.6607 14.5926 34.8947C14.0166 34.8947 13.4346 34.8947 12.8466 34.8947C12.2586 34.8947 11.6766 34.8947 11.1006 34.8947ZM16.1532 29.7107C15.9792 29.7107 15.8202 29.6687 15.6762 29.5847C15.5382 29.5007 15.4272 29.3897 15.3432 29.2517C15.2592 29.1137 15.2172 28.9607 15.2172 28.7927C15.2172 28.6247 15.2592 28.4747 15.3432 28.3427C15.4272 28.2047 15.5382 28.0937 15.6762 28.0097C15.8202 27.9257 15.9792 27.8837 16.1532 27.8837C16.3212 27.8837 16.4742 27.9257 16.6122 28.0097C16.7562 28.0937 16.8702 28.2047 16.9542 28.3427C17.0382 28.4747 17.0802 28.6247 17.0802 28.7927C17.0802 28.9607 17.0382 29.1137 16.9542 29.2517C16.8702 29.3897 16.7562 29.5007 16.6122 29.5847C16.4742 29.6687 16.3212 29.7107 16.1532 29.7107ZM15.4062 34.8947C15.4062 34.1267 15.4062 33.3527 15.4062 32.5727C15.4062 31.7867 15.4062 31.0097 15.4062 30.2417C15.6522 30.2417 15.9012 30.2417 16.1532 30.2417C16.4052 30.2417 16.6512 30.2417 16.8912 30.2417C16.8912 31.0097 16.8912 31.7867 16.8912 32.5727C16.8912 33.3527 16.8912 34.1267 16.8912 34.8947C16.6512 34.8947 16.4052 34.8947 16.1532 34.8947C15.9012 34.8947 15.6522 34.8947 15.4062 34.8947ZM17.9276 34.8947C17.9276 34.1267 17.9276 33.3527 17.9276 32.5727C17.9276 31.7867 17.9276 31.0097 17.9276 30.2417C18.1736 30.2417 18.4226 30.2417 18.6746 30.2417C18.9266 30.2417 19.1726 30.2417 19.4126 30.2417C19.4126 30.2837 19.4126 30.3227 19.4126 30.3587C19.4126 30.3947 19.4126 30.4337 19.4126 30.4757C19.5746 30.3617 19.7546 30.2747 19.9526 30.2147C20.1566 30.1487 20.3756 30.1157 20.6096 30.1157C20.9516 30.1157 21.2516 30.1937 21.5096 30.3497C21.7736 30.5057 21.9776 30.7307 22.1216 31.0247C22.2716 31.3127 22.3466 31.6607 22.3466 32.0687C22.3466 32.5367 22.3466 33.0077 22.3466 33.4817C22.3466 33.9557 22.3466 34.4267 22.3466 34.8947C22.1066 34.8947 21.8606 34.8947 21.6086 34.8947C21.3566 34.8947 21.1076 34.8947 20.8616 34.8947C20.8616 34.4627 20.8616 34.0247 20.8616 33.5807C20.8616 33.1367 20.8616 32.6987 20.8616 32.2667C20.8616 32.0267 20.8046 31.8347 20.6906 31.6907C20.5826 31.5407 20.4086 31.4657 20.1686 31.4657C19.9286 31.4657 19.7426 31.5347 19.6106 31.6727C19.4786 31.8107 19.4126 32.0087 19.4126 32.2667C19.4126 32.6987 19.4126 33.1367 19.4126 33.5807C19.4126 34.0247 19.4126 34.4627 19.4126 34.8947C19.1726 34.8947 18.9266 34.8947 18.6746 34.8947C18.4226 34.8947 18.1736 34.8947 17.9276 34.8947ZM23.2636 34.8947C23.2636 33.8087 23.2636 32.7137 23.2636 31.6097C23.2636 30.5057 23.2636 29.4107 23.2636 28.3247C23.5096 28.3247 23.7586 28.3247 24.0106 28.3247C24.2626 28.3247 24.5086 28.3247 24.7486 28.3247C24.7486 28.9127 24.7486 29.5097 24.7486 30.1157C24.7486 30.7217 24.7486 31.3187 24.7486 31.9067C24.9646 31.6307 25.1806 31.3547 25.3966 31.0787C25.6126 30.7967 25.8286 30.5177 26.0446 30.2417C26.3326 30.2417 26.6206 30.2417 26.9086 30.2417C27.2026 30.2417 27.4936 30.2417 27.7816 30.2417C27.4996 30.5957 27.2116 30.9527 26.9176 31.3127C26.6296 31.6727 26.3446 32.0297 26.0626 32.3837C26.3626 32.7977 26.6626 33.2177 26.9626 33.6437C27.2686 34.0637 27.5686 34.4807 27.8626 34.8947C27.5686 34.8947 27.2746 34.8947 26.9806 34.8947C26.6866 34.8947 26.3926 34.8947 26.0986 34.8947C25.8766 34.5767 25.6516 34.2557 25.4236 33.9317C25.1956 33.6017 24.9706 33.2777 24.7486 32.9597C24.7486 33.2777 24.7486 33.6017 24.7486 33.9317C24.7486 34.2557 24.7486 34.5767 24.7486 34.8947C24.5086 34.8947 24.2626 34.8947 24.0106 34.8947C23.7586 34.8947 23.5096 34.8947 23.2636 34.8947ZM29.1792 35.0387C29.0052 35.0387 28.8432 34.9967 28.6932 34.9127C28.5492 34.8287 28.4352 34.7147 28.3512 34.5707C28.2672 34.4267 28.2252 34.2707 28.2252 34.1027C28.2252 33.9347 28.2672 33.7817 28.3512 33.6437C28.4352 33.4997 28.5492 33.3857 28.6932 33.3017C28.8432 33.2177 29.0052 33.1757 29.1792 33.1757C29.3532 33.1757 29.5092 33.2177 29.6472 33.3017C29.7912 33.3857 29.9052 33.4997 29.9892 33.6437C30.0792 33.7817 30.1242 33.9347 30.1242 34.1027C30.1242 34.2707 30.0792 34.4267 29.9892 34.5707C29.9052 34.7147 29.7912 34.8287 29.6472 34.9127C29.5092 34.9967 29.3532 35.0387 29.1792 35.0387Z" fill="#374957"/>
<g clip-path="url(#clip0_321_511)">
<path d="M15 6.47402H31C31.2652 6.47402 31.5196 6.36035 31.7071 6.15801C31.8946 5.95566 32 5.68123 32 5.39508C32 5.10892 31.8946 4.83449 31.7071 4.63215C31.5196 4.42981 31.2652 4.31613 31 4.31613H15C14.7348 4.31613 14.4804 4.42981 14.2929 4.63215C14.1054 4.83449 14 5.10892 14 5.39508C14 5.68123 14.1054 5.95566 14.2929 6.15801C14.4804 6.36035 14.7348 6.47402 15 6.47402Z" fill="#374957"/>
<path d="M31 11.8681H15C14.7348 11.8681 14.4804 11.9818 14.2929 12.1841C14.1054 12.3865 14 12.6609 14 12.9471C14 13.2332 14.1054 13.5076 14.2929 13.71C14.4804 13.9123 14.7348 14.026 15 14.026H31C31.2652 14.026 31.5196 13.9123 31.7071 13.71C31.8946 13.5076 32 13.2332 32 12.9471C32 12.6609 31.8946 12.3865 31.7071 12.1841C31.5196 11.9818 31.2652 11.8681 31 11.8681Z" fill="#374957"/>
<path d="M31 19.4211H15C14.7348 19.4211 14.4804 19.5347 14.2929 19.7371C14.1054 19.9394 14 20.2138 14 20.5C14 20.7862 14.1054 21.0606 14.2929 21.2629C14.4804 21.4653 14.7348 21.579 15 21.579H31C31.2652 21.579 31.5196 21.4653 31.7071 21.2629C31.8946 21.0606 32 20.7862 32 20.5C32 20.2138 31.8946 19.9394 31.7071 19.7371C31.5196 19.5347 31.2652 19.4211 31 19.4211Z" fill="#374957"/>
<path d="M10 7.55263C11.1046 7.55263 12 6.58651 12 5.39474C12 4.20297 11.1046 3.23685 10 3.23685C8.89543 3.23685 8 4.20297 8 5.39474C8 6.58651 8.89543 7.55263 10 7.55263Z" fill="#374957"/>
<path d="M10 15.1056C11.1046 15.1056 12 14.1395 12 12.9477C12 11.7559 11.1046 10.7898 10 10.7898C8.89543 10.7898 8 11.7559 8 12.9477C8 14.1395 8.89543 15.1056 10 15.1056Z" fill="#374957"/>
<path d="M10 22.6575C11.1046 22.6575 12 21.6914 12 20.4997C12 19.3079 11.1046 18.3418 10 18.3418C8.89543 18.3418 8 19.3079 8 20.4997C8 21.6914 8.89543 22.6575 10 22.6575Z" fill="#374957"/>
</g>
<defs>
<clipPath id="clip0_321_511">
<rect width="24" height="25.8947" fill="white" transform="translate(8)"/>
</clipPath>
</defs>
</svg>
