<svg width="120" height="120" viewBox="0 0 120 120" fill="none" xmlns="http://www.w3.org/2000/svg">
<g clip-path="url(#clip0_299_463)">
<rect width="120" height="120" fill="#F8FAFB"/>
<rect width="120" height="120" fill="#374957"/>
<path d="M26.3 68C26.3 65.76 26.3 63.4933 26.3 61.2C26.3 58.9067 26.3 56.64 26.3 54.4C27.1267 54.4 27.9533 54.4 28.78 54.4C29.62 54.4 30.4467 54.4 31.26 54.4C32.18 54.4 32.9867 54.5667 33.68 54.9C34.3733 55.22 34.9133 55.6733 35.3 56.26C35.6867 56.8333 35.88 57.5133 35.88 58.3C35.88 58.86 35.7733 59.3667 35.56 59.82C35.3467 60.2733 35.0267 60.6533 34.6 60.96C35.16 61.2933 35.5867 61.7267 35.88 62.26C36.1733 62.78 36.32 63.36 36.32 64C36.32 64.8 36.1133 65.5 35.7 66.1C35.3 66.7 34.7333 67.1667 34 67.5C33.28 67.8333 32.4333 68 31.46 68C30.6067 68 29.7467 68 28.88 68C28.0133 68 27.1533 68 26.3 68ZM32.38 58.64C32.38 58.2933 32.2733 58.0133 32.06 57.8C31.8467 57.5733 31.5667 57.46 31.22 57.46C30.98 57.46 30.7333 57.46 30.48 57.46C30.24 57.46 30 57.46 29.76 57.46C29.76 57.8333 29.76 58.22 29.76 58.62C29.76 59.0067 29.76 59.3933 29.76 59.78C30 59.78 30.24 59.78 30.48 59.78C30.7333 59.78 30.98 59.78 31.22 59.78C31.5667 59.78 31.8467 59.68 32.06 59.48C32.2733 59.2667 32.38 58.9867 32.38 58.64ZM32.82 63.68C32.82 63.3067 32.6933 63.0133 32.44 62.8C32.2 62.5733 31.8667 62.46 31.44 62.46C31.16 62.46 30.88 62.46 30.6 62.46C30.32 62.46 30.04 62.46 29.76 62.46C29.76 62.8733 29.76 63.2867 29.76 63.7C29.76 64.1133 29.76 64.5267 29.76 64.94C30.04 64.94 30.32 64.94 30.6 64.94C30.88 64.94 31.16 64.94 31.44 64.94C31.8667 64.94 32.2 64.8267 32.44 64.6C32.6933 64.3733 32.82 64.0667 32.82 63.68ZM39.7741 56.48C39.3874 56.48 39.0341 56.3867 38.7141 56.2C38.4074 56.0133 38.1607 55.7667 37.9741 55.46C37.7874 55.1533 37.6941 54.8133 37.6941 54.44C37.6941 54.0667 37.7874 53.7333 37.9741 53.44C38.1607 53.1333 38.4074 52.8867 38.7141 52.7C39.0341 52.5133 39.3874 52.42 39.7741 52.42C40.1474 52.42 40.4874 52.5133 40.7941 52.7C41.1141 52.8867 41.3674 53.1333 41.5541 53.44C41.7407 53.7333 41.8341 54.0667 41.8341 54.44C41.8341 54.8133 41.7407 55.1533 41.5541 55.46C41.3674 55.7667 41.1141 56.0133 40.7941 56.2C40.4874 56.3867 40.1474 56.48 39.7741 56.48ZM38.1141 68C38.1141 66.2933 38.1141 64.5733 38.1141 62.84C38.1141 61.0933 38.1141 59.3667 38.1141 57.66C38.6607 57.66 39.2141 57.66 39.7741 57.66C40.3341 57.66 40.8807 57.66 41.4141 57.66C41.4141 59.3667 41.4141 61.0933 41.4141 62.84C41.4141 64.5733 41.4141 66.2933 41.4141 68C40.8807 68 40.3341 68 39.7741 68C39.2141 68 38.6607 68 38.1141 68ZM44.7972 68C44.7972 66.7733 44.7972 65.54 44.7972 64.3C44.7972 63.06 44.7972 61.8333 44.7972 60.62C44.5305 60.62 44.2572 60.62 43.9772 60.62C43.7105 60.62 43.4439 60.62 43.1772 60.62C43.1772 60.1267 43.1772 59.6333 43.1772 59.14C43.1772 58.6467 43.1772 58.1533 43.1772 57.66C43.4439 57.66 43.7105 57.66 43.9772 57.66C44.2572 57.66 44.5305 57.66 44.7972 57.66C44.7972 57.1933 44.7972 56.7333 44.7972 56.28C44.7972 55.8133 44.7972 55.3533 44.7972 54.9C45.3439 54.9 45.8972 54.9 46.4572 54.9C47.0172 54.9 47.5639 54.9 48.0972 54.9C48.0972 55.3533 48.0972 55.8133 48.0972 56.28C48.0972 56.7333 48.0972 57.1933 48.0972 57.66C48.4039 57.66 48.7172 57.66 49.0372 57.66C49.3572 57.66 49.6705 57.66 49.9772 57.66C49.9772 58.1533 49.9772 58.6467 49.9772 59.14C49.9772 59.6333 49.9772 60.1267 49.9772 60.62C49.6705 60.62 49.3572 60.62 49.0372 60.62C48.7172 60.62 48.4039 60.62 48.0972 60.62C48.0972 61.8333 48.0972 63.06 48.0972 64.3C48.0972 65.54 48.0972 66.7733 48.0972 68C47.5639 68 47.0172 68 46.4572 68C45.8972 68 45.3439 68 44.7972 68ZM51.7688 68C51.7688 65.76 51.7688 63.4933 51.7688 61.2C51.7688 58.9067 51.7688 56.64 51.7688 54.4C52.3554 54.4 52.9421 54.4 53.5288 54.4C54.1154 54.4 54.6954 54.4 55.2688 54.4C55.2688 56.12 55.2688 57.86 55.2688 59.62C55.2688 61.3667 55.2688 63.1 55.2688 64.82C55.9754 64.82 56.6888 64.82 57.4088 64.82C58.1288 64.82 58.8354 64.82 59.5288 64.82C59.5288 65.34 59.5288 65.8733 59.5288 66.42C59.5288 66.9533 59.5288 67.48 59.5288 68C58.2488 68 56.9554 68 55.6488 68C54.3421 68 53.0488 68 51.7688 68ZM62.9967 56.48C62.6101 56.48 62.2567 56.3867 61.9367 56.2C61.6301 56.0133 61.3834 55.7667 61.1967 55.46C61.0101 55.1533 60.9167 54.8133 60.9167 54.44C60.9167 54.0667 61.0101 53.7333 61.1967 53.44C61.3834 53.1333 61.6301 52.8867 61.9367 52.7C62.2567 52.5133 62.6101 52.42 62.9967 52.42C63.3701 52.42 63.7101 52.5133 64.0167 52.7C64.3367 52.8867 64.5901 53.1333 64.7767 53.44C64.9634 53.7333 65.0567 54.0667 65.0567 54.44C65.0567 54.8133 64.9634 55.1533 64.7767 55.46C64.5901 55.7667 64.3367 56.0133 64.0167 56.2C63.7101 56.3867 63.3701 56.48 62.9967 56.48ZM61.3367 68C61.3367 66.2933 61.3367 64.5733 61.3367 62.84C61.3367 61.0933 61.3367 59.3667 61.3367 57.66C61.8834 57.66 62.4367 57.66 62.9967 57.66C63.5567 57.66 64.1034 57.66 64.6367 57.66C64.6367 59.3667 64.6367 61.0933 64.6367 62.84C64.6367 64.5733 64.6367 66.2933 64.6367 68C64.1034 68 63.5567 68 62.9967 68C62.4367 68 61.8834 68 61.3367 68ZM66.9398 68C66.9398 66.2933 66.9398 64.5733 66.9398 62.84C66.9398 61.0933 66.9398 59.3667 66.9398 57.66C67.4865 57.66 68.0398 57.66 68.5998 57.66C69.1598 57.66 69.7065 57.66 70.2398 57.66C70.2398 57.7533 70.2398 57.84 70.2398 57.92C70.2398 58 70.2398 58.0867 70.2398 58.18C70.5998 57.9267 70.9998 57.7333 71.4398 57.6C71.8932 57.4533 72.3798 57.38 72.8998 57.38C73.6598 57.38 74.3265 57.5533 74.8998 57.9C75.4865 58.2467 75.9398 58.7467 76.2598 59.4C76.5932 60.04 76.7598 60.8133 76.7598 61.72C76.7598 62.76 76.7598 63.8067 76.7598 64.86C76.7598 65.9133 76.7598 66.96 76.7598 68C76.2265 68 75.6798 68 75.1198 68C74.5598 68 74.0065 68 73.4598 68C73.4598 67.04 73.4598 66.0667 73.4598 65.08C73.4598 64.0933 73.4598 63.12 73.4598 62.16C73.4598 61.6267 73.3332 61.2 73.0798 60.88C72.8398 60.5467 72.4532 60.38 71.9198 60.38C71.3865 60.38 70.9732 60.5333 70.6798 60.84C70.3865 61.1467 70.2398 61.5867 70.2398 62.16C70.2398 63.12 70.2398 64.0933 70.2398 65.08C70.2398 66.0667 70.2398 67.04 70.2398 68C69.7065 68 69.1598 68 68.5998 68C68.0398 68 67.4865 68 66.9398 68ZM78.7977 68C78.7977 65.5867 78.7977 63.1533 78.7977 60.7C78.7977 58.2467 78.7977 55.8133 78.7977 53.4C79.3443 53.4 79.8977 53.4 80.4577 53.4C81.0177 53.4 81.5643 53.4 82.0977 53.4C82.0977 54.7067 82.0977 56.0333 82.0977 57.38C82.0977 58.7267 82.0977 60.0533 82.0977 61.36C82.5777 60.7467 83.0577 60.1333 83.5377 59.52C84.0177 58.8933 84.4977 58.2733 84.9777 57.66C85.6177 57.66 86.2577 57.66 86.8977 57.66C87.551 57.66 88.1977 57.66 88.8377 57.66C88.211 58.4467 87.571 59.24 86.9177 60.04C86.2777 60.84 85.6443 61.6333 85.0177 62.42C85.6843 63.34 86.351 64.2733 87.0177 65.22C87.6977 66.1533 88.3643 67.08 89.0177 68C88.3643 68 87.711 68 87.0577 68C86.4043 68 85.751 68 85.0977 68C84.6043 67.2933 84.1043 66.58 83.5977 65.86C83.091 65.1267 82.591 64.4067 82.0977 63.7C82.0977 64.4067 82.0977 65.1267 82.0977 65.86C82.0977 66.58 82.0977 67.2933 82.0977 68C81.5643 68 81.0177 68 80.4577 68C79.8977 68 79.3443 68 78.7977 68ZM91.9434 68.32C91.5568 68.32 91.1968 68.2267 90.8634 68.04C90.5434 67.8533 90.2901 67.6 90.1034 67.28C89.9168 66.96 89.8234 66.6133 89.8234 66.24C89.8234 65.8667 89.9168 65.5267 90.1034 65.22C90.2901 64.9 90.5434 64.6467 90.8634 64.46C91.1968 64.2733 91.5568 64.18 91.9434 64.18C92.3301 64.18 92.6768 64.2733 92.9834 64.46C93.3034 64.6467 93.5568 64.9 93.7434 65.22C93.9434 65.5267 94.0434 65.8667 94.0434 66.24C94.0434 66.6133 93.9434 66.96 93.7434 67.28C93.5568 67.6 93.3034 67.8533 92.9834 68.04C92.6768 68.2267 92.3301 68.32 91.9434 68.32Z" fill="#F8FAFB"/>
</g>
<defs>
<clipPath id="clip0_299_463">
<rect width="120" height="120" fill="white"/>
</clipPath>
</defs>
</svg>
