<svg width="41" height="41" viewBox="0 0 41 41" fill="none" xmlns="http://www.w3.org/2000/svg">
<path d="M3.4058 36C3.4058 34.992 3.4058 33.972 3.4058 32.94C3.4058 31.908 3.4058 30.888 3.4058 29.88C3.7778 29.88 4.1498 29.88 4.5218 29.88C4.8998 29.88 5.2718 29.88 5.6378 29.88C6.0998 29.88 6.5018 29.97 6.8438 30.15C7.1858 30.324 7.4528 30.57 7.6448 30.888C7.8368 31.206 7.9328 31.578 7.9328 32.004C7.9328 32.424 7.8368 32.793 7.6448 33.111C7.4588 33.429 7.2008 33.675 6.8708 33.849C6.5468 34.023 6.1778 34.11 5.7638 34.11C5.6318 34.11 5.4998 34.11 5.3678 34.11C5.2418 34.11 5.1128 34.11 4.9808 34.11C4.9808 34.422 4.9808 34.737 4.9808 35.055C4.9808 35.373 4.9808 35.688 4.9808 36C4.7228 36 4.4618 36 4.1978 36C3.9338 36 3.6698 36 3.4058 36ZM5.6378 31.293C5.5298 31.293 5.4188 31.293 5.3048 31.293C5.1968 31.293 5.0888 31.293 4.9808 31.293C4.9808 31.533 4.9808 31.776 4.9808 32.022C4.9808 32.262 4.9808 32.502 4.9808 32.742C5.1008 32.742 5.2238 32.742 5.3498 32.742C5.4818 32.742 5.6078 32.742 5.7278 32.742C5.9138 32.742 6.0638 32.673 6.1778 32.535C6.2978 32.397 6.3578 32.226 6.3578 32.022C6.3578 31.812 6.2948 31.638 6.1688 31.5C6.0428 31.362 5.8658 31.293 5.6378 31.293ZM8.65076 36C8.65076 35.232 8.65076 34.458 8.65076 33.678C8.65076 32.892 8.65076 32.115 8.65076 31.347C8.89676 31.347 9.14576 31.347 9.39776 31.347C9.64976 31.347 9.89576 31.347 10.1358 31.347C10.1358 31.389 10.1358 31.431 10.1358 31.473C10.1358 31.515 10.1358 31.557 10.1358 31.599C10.3218 31.467 10.5318 31.368 10.7658 31.302C10.9998 31.236 11.2548 31.218 11.5308 31.248C11.5308 31.488 11.5308 31.731 11.5308 31.977C11.5308 32.223 11.5308 32.466 11.5308 32.706C11.0568 32.64 10.7058 32.682 10.4778 32.832C10.2498 32.976 10.1358 33.213 10.1358 33.543C10.1358 33.945 10.1358 34.353 10.1358 34.767C10.1358 35.181 10.1358 35.592 10.1358 36C9.89576 36 9.64976 36 9.39776 36C9.14576 36 8.89676 36 8.65076 36ZM16.1626 35.784C15.7486 35.958 15.3376 36.066 14.9296 36.108C14.5216 36.15 14.1346 36.126 13.7686 36.036C13.4086 35.952 13.0876 35.805 12.8056 35.595C12.5236 35.385 12.3016 35.118 12.1396 34.794C11.9836 34.47 11.9056 34.095 11.9056 33.669C11.9056 33.315 11.9626 32.991 12.0766 32.697C12.1966 32.397 12.3646 32.136 12.5806 31.914C12.7966 31.686 13.0516 31.512 13.3456 31.392C13.6396 31.266 13.9606 31.203 14.3086 31.203C14.6206 31.203 14.9026 31.254 15.1546 31.356C15.4066 31.458 15.6256 31.602 15.8116 31.788C15.9976 31.968 16.1476 32.184 16.2616 32.436C16.3756 32.688 16.4476 32.964 16.4776 33.264C16.5076 33.564 16.4896 33.882 16.4236 34.218C15.9316 34.218 15.4366 34.218 14.9386 34.218C14.4406 34.218 13.9456 34.218 13.4536 34.218C13.5676 34.446 13.7566 34.608 14.0206 34.704C14.2906 34.8 14.6086 34.83 14.9746 34.794C15.3466 34.758 15.7426 34.662 16.1626 34.506C16.1626 34.716 16.1626 34.929 16.1626 35.145C16.1626 35.361 16.1626 35.574 16.1626 35.784ZM14.2726 32.535C14.0986 32.535 13.9366 32.583 13.7866 32.679C13.6426 32.775 13.5316 32.922 13.4536 33.12C13.7236 33.12 13.9936 33.12 14.2636 33.12C14.5396 33.12 14.8126 33.12 15.0826 33.12C15.0106 32.916 14.9026 32.769 14.7586 32.679C14.6206 32.583 14.4586 32.535 14.2726 32.535ZM18.2472 36C17.9832 35.232 17.7132 34.458 17.4372 33.678C17.1672 32.892 16.9002 32.115 16.6362 31.347C16.8942 31.347 17.1522 31.347 17.4102 31.347C17.6742 31.347 17.9352 31.347 18.1932 31.347C18.3492 31.821 18.5052 32.298 18.6612 32.778C18.8232 33.252 18.9792 33.726 19.1292 34.2C19.2852 33.726 19.4412 33.252 19.5972 32.778C19.7532 32.298 19.9062 31.821 20.0562 31.347C20.3082 31.347 20.5632 31.347 20.8212 31.347C21.0792 31.347 21.3342 31.347 21.5862 31.347C21.3222 32.115 21.0522 32.892 20.7762 33.678C20.5062 34.458 20.2392 35.232 19.9752 36C19.6932 36 19.4052 36 19.1112 36C18.8172 36 18.5292 36 18.2472 36ZM22.8285 30.816C22.6545 30.816 22.4955 30.774 22.3515 30.69C22.2135 30.606 22.1025 30.495 22.0185 30.357C21.9345 30.219 21.8925 30.066 21.8925 29.898C21.8925 29.73 21.9345 29.58 22.0185 29.448C22.1025 29.31 22.2135 29.199 22.3515 29.115C22.4955 29.031 22.6545 28.989 22.8285 28.989C22.9965 28.989 23.1495 29.031 23.2875 29.115C23.4315 29.199 23.5455 29.31 23.6295 29.448C23.7135 29.58 23.7555 29.73 23.7555 29.898C23.7555 30.066 23.7135 30.219 23.6295 30.357C23.5455 30.495 23.4315 30.606 23.2875 30.69C23.1495 30.774 22.9965 30.816 22.8285 30.816ZM22.0815 36C22.0815 35.232 22.0815 34.458 22.0815 33.678C22.0815 32.892 22.0815 32.115 22.0815 31.347C22.3275 31.347 22.5765 31.347 22.8285 31.347C23.0805 31.347 23.3265 31.347 23.5665 31.347C23.5665 32.115 23.5665 32.892 23.5665 33.678C23.5665 34.458 23.5665 35.232 23.5665 36C23.3265 36 23.0805 36 22.8285 36C22.5765 36 22.3275 36 22.0815 36ZM28.6079 35.784C28.1939 35.958 27.7829 36.066 27.3749 36.108C26.9669 36.15 26.5799 36.126 26.2139 36.036C25.8539 35.952 25.5329 35.805 25.2509 35.595C24.9689 35.385 24.7469 35.118 24.5849 34.794C24.4289 34.47 24.3509 34.095 24.3509 33.669C24.3509 33.315 24.4079 32.991 24.5219 32.697C24.6419 32.397 24.8099 32.136 25.0259 31.914C25.2419 31.686 25.4969 31.512 25.7909 31.392C26.0849 31.266 26.4059 31.203 26.7539 31.203C27.0659 31.203 27.3479 31.254 27.5999 31.356C27.8519 31.458 28.0709 31.602 28.2569 31.788C28.4429 31.968 28.5929 32.184 28.7069 32.436C28.8209 32.688 28.8929 32.964 28.9229 33.264C28.9529 33.564 28.9349 33.882 28.8689 34.218C28.3769 34.218 27.8819 34.218 27.3839 34.218C26.8859 34.218 26.3909 34.218 25.8989 34.218C26.0129 34.446 26.2019 34.608 26.4659 34.704C26.7359 34.8 27.0539 34.83 27.4199 34.794C27.7919 34.758 28.1879 34.662 28.6079 34.506C28.6079 34.716 28.6079 34.929 28.6079 35.145C28.6079 35.361 28.6079 35.574 28.6079 35.784ZM26.7179 32.535C26.5439 32.535 26.3819 32.583 26.2319 32.679C26.0879 32.775 25.9769 32.922 25.8989 33.12C26.1689 33.12 26.4389 33.12 26.7089 33.12C26.9849 33.12 27.2579 33.12 27.5279 33.12C27.4559 32.916 27.3479 32.769 27.2039 32.679C27.0659 32.583 26.9039 32.535 26.7179 32.535ZM30.5665 36C30.3325 35.232 30.0955 34.458 29.8555 33.678C29.6215 32.892 29.3875 32.115 29.1535 31.347C29.3995 31.347 29.6485 31.347 29.9005 31.347C30.1585 31.347 30.4105 31.347 30.6565 31.347C30.7765 31.767 30.8965 32.193 31.0165 32.625C31.1425 33.051 31.2625 33.474 31.3765 33.894C31.4785 33.474 31.5805 33.051 31.6825 32.625C31.7905 32.193 31.8925 31.767 31.9885 31.347C32.1985 31.347 32.4085 31.347 32.6185 31.347C32.8345 31.347 33.0475 31.347 33.2575 31.347C33.3595 31.767 33.4615 32.196 33.5635 32.634C33.6715 33.066 33.7735 33.495 33.8695 33.921C33.9895 33.495 34.1095 33.066 34.2295 32.634C34.3555 32.196 34.4755 31.767 34.5895 31.347C34.8355 31.347 35.0815 31.347 35.3275 31.347C35.5795 31.347 35.8255 31.347 36.0655 31.347C35.8315 32.115 35.5945 32.892 35.3545 33.678C35.1205 34.458 34.8865 35.232 34.6525 36C34.4125 36 34.1695 36 33.9235 36C33.6775 36 33.4345 36 33.1945 36C33.0985 35.628 32.9995 35.253 32.8975 34.875C32.8015 34.497 32.7055 34.125 32.6095 33.759C32.5135 34.125 32.4145 34.497 32.3125 34.875C32.2165 35.253 32.1205 35.628 32.0245 36C31.7845 36 31.5415 36 31.2955 36C31.0495 36 30.8065 36 30.5665 36ZM36.8741 36.144C36.7001 36.144 36.5381 36.102 36.3881 36.018C36.2441 35.934 36.1301 35.82 36.0461 35.676C35.9621 35.532 35.9201 35.376 35.9201 35.208C35.9201 35.04 35.9621 34.887 36.0461 34.749C36.1301 34.605 36.2441 34.491 36.3881 34.407C36.5381 34.323 36.7001 34.281 36.8741 34.281C37.0481 34.281 37.2041 34.323 37.3421 34.407C37.4861 34.491 37.6001 34.605 37.6841 34.749C37.7741 34.887 37.8191 35.04 37.8191 35.208C37.8191 35.376 37.7741 35.532 37.6841 35.676C37.6001 35.82 37.4861 35.934 37.3421 36.018C37.2041 36.102 37.0481 36.144 36.8741 36.144Z" fill="#374957"/>
<path d="M28.494 7.96762L18.954 0.967621C18.2089 0.422006 17.3272 0.0934154 16.4068 0.0182844C15.4863 -0.0568467 14.563 0.124418 13.7393 0.541978C12.9156 0.959539 12.2236 1.59708 11.7401 2.38391C11.2565 3.17073 11.0004 4.0761 11 4.99962V18.9996C11.0002 19.9236 11.2563 20.8294 11.7401 21.6166C12.2238 22.4037 12.9162 23.0415 13.7404 23.459C14.5646 23.8766 15.4884 24.0576 16.4092 23.982C17.3301 23.9063 18.212 23.577 18.957 23.0306L28.497 16.0306C29.1303 15.5662 29.6452 14.9592 30.0002 14.2587C30.3552 13.5582 30.5402 12.7839 30.5402 11.9986C30.5402 11.2133 30.3552 10.4391 30.0002 9.73856C29.6452 9.03806 29.1303 8.43103 28.497 7.96662L28.494 7.96762ZM27.31 14.4176L17.77 21.4176C17.323 21.7442 16.7944 21.9408 16.2426 21.9856C15.6908 22.0304 15.1374 21.9216 14.6436 21.6712C14.1498 21.4209 13.7349 21.0389 13.4448 20.5674C13.1547 20.0958 13.0008 19.5532 13 18.9996V4.99962C12.9945 4.44497 13.1455 3.9 13.4358 3.42734C13.7261 2.95469 14.1438 2.57351 14.641 2.32762C15.0639 2.11251 15.5315 2.00014 16.006 1.99962C16.6419 2.00205 17.2602 2.20851 17.77 2.58862L27.31 9.58862C27.6895 9.86732 27.9981 10.2314 28.2107 10.6515C28.4234 11.0716 28.5343 11.5358 28.5343 12.0066C28.5343 12.4775 28.4234 12.9417 28.2107 13.3618C27.9981 13.7818 27.6895 14.1459 27.31 14.4246V14.4176Z" fill="#374957"/>
</svg>
