<svg width="41" height="41" viewBox="0 0 41 41" fill="none" xmlns="http://www.w3.org/2000/svg">
<g clip-path="url(#clip0_31_34)">
<path d="M32.4583 41H8.54167C6.27711 40.9973 4.10608 40.0965 2.50479 38.4952C0.903507 36.8939 0.00271259 34.7229 0 32.4583L0 8.54167C0.00271259 6.27711 0.903507 4.10608 2.50479 2.50479C4.10608 0.903507 6.27711 0.00271259 8.54167 0L32.4583 0C34.7229 0.00271259 36.8939 0.903507 38.4952 2.50479C40.0965 4.10608 40.9973 6.27711 41 8.54167V32.4583C40.9973 34.7229 40.0965 36.8939 38.4952 38.4952C36.8939 40.0965 34.7229 40.9973 32.4583 41ZM8.54167 3.41667C7.18243 3.41667 5.87887 3.95662 4.91774 4.91774C3.95662 5.87887 3.41667 7.18243 3.41667 8.54167V32.4583C3.41667 33.8176 3.95662 35.1211 4.91774 36.0823C5.87887 37.0434 7.18243 37.5833 8.54167 37.5833H32.4583C33.8176 37.5833 35.1211 37.0434 36.0823 36.0823C37.0434 35.1211 37.5833 33.8176 37.5833 32.4583V8.54167C37.5833 7.18243 37.0434 5.87887 36.0823 4.91774C35.1211 3.95662 33.8176 3.41667 32.4583 3.41667H8.54167ZM15.9593 29.0502C15.2471 29.0478 14.5482 28.8575 13.9332 28.4984C13.3256 28.1507 12.8213 27.6478 12.4719 27.0411C12.1225 26.4345 11.9406 25.7459 11.9447 25.0459V15.9541C11.9441 15.254 12.1277 14.5659 12.477 13.9591C12.8262 13.3523 13.329 12.848 13.9347 12.4969C14.5405 12.1457 15.2279 11.96 15.9281 11.9585C16.6283 11.9569 17.3165 12.1395 17.9238 12.4879L26.9404 16.9894C27.5667 17.3275 28.0912 17.8269 28.4595 18.436C28.8278 19.045 29.0266 19.7415 29.0351 20.4532C29.0436 21.1649 28.8617 21.8659 28.5081 22.4836C28.1545 23.1013 27.6421 23.6132 27.0241 23.9662L17.8401 28.5565C17.2673 28.8832 16.6187 29.0535 15.9593 29.0502ZM15.9165 15.3835C15.8224 15.3835 15.7299 15.4083 15.6483 15.4553C15.5597 15.5046 15.4862 15.577 15.4357 15.6649C15.3851 15.7528 15.3594 15.8528 15.3613 15.9541V25.0459C15.3619 25.1457 15.3885 25.2437 15.4384 25.3302C15.4883 25.4167 15.5598 25.4888 15.646 25.5392C15.7321 25.5897 15.8299 25.6169 15.9298 25.6182C16.0296 25.6195 16.1281 25.5947 16.2155 25.5464L25.3995 20.9544C25.4679 20.9009 25.5223 20.8316 25.558 20.7525C25.5937 20.6733 25.6097 20.5867 25.6045 20.5C25.6066 20.3984 25.5809 20.2981 25.5299 20.2102C25.479 20.1222 25.405 20.0499 25.3158 20.0012L16.306 15.4997C16.1886 15.4276 16.0543 15.3876 15.9165 15.3835Z" fill="#374957"/>
</g>
<defs>
<clipPath id="clip0_31_34">
<rect width="41" height="41" fill="white"/>
</clipPath>
</defs>
</svg>
