<svg width="41" height="41" viewBox="0 0 41 41" fill="none" xmlns="http://www.w3.org/2000/svg">
<path d="M5.67777 36C5.67777 34.992 5.67777 33.972 5.67777 32.94C5.67777 31.908 5.67777 30.888 5.67777 29.88C6.04977 29.88 6.42177 29.88 6.79377 29.88C7.17177 29.88 7.54377 29.88 7.90977 29.88C8.37177 29.88 8.77377 29.97 9.11577 30.15C9.45777 30.324 9.72477 30.57 9.91677 30.888C10.1088 31.206 10.2048 31.578 10.2048 32.004C10.2048 32.424 10.1088 32.793 9.91677 33.111C9.73077 33.429 9.47277 33.675 9.14277 33.849C8.81877 34.023 8.44977 34.11 8.03577 34.11C7.90377 34.11 7.77177 34.11 7.63977 34.11C7.51377 34.11 7.38477 34.11 7.25277 34.11C7.25277 34.422 7.25277 34.737 7.25277 35.055C7.25277 35.373 7.25277 35.688 7.25277 36C6.99477 36 6.73377 36 6.46977 36C6.20577 36 5.94177 36 5.67777 36ZM7.90977 31.293C7.80177 31.293 7.69077 31.293 7.57677 31.293C7.46877 31.293 7.36077 31.293 7.25277 31.293C7.25277 31.533 7.25277 31.776 7.25277 32.022C7.25277 32.262 7.25277 32.502 7.25277 32.742C7.37277 32.742 7.49577 32.742 7.62177 32.742C7.75377 32.742 7.87977 32.742 7.99977 32.742C8.18577 32.742 8.33577 32.673 8.44977 32.535C8.56977 32.397 8.62977 32.226 8.62977 32.022C8.62977 31.812 8.56677 31.638 8.44077 31.5C8.31477 31.362 8.13777 31.293 7.90977 31.293ZM10.9227 36C10.9227 35.232 10.9227 34.458 10.9227 33.678C10.9227 32.892 10.9227 32.115 10.9227 31.347C11.1687 31.347 11.4177 31.347 11.6697 31.347C11.9217 31.347 12.1677 31.347 12.4077 31.347C12.4077 31.389 12.4077 31.431 12.4077 31.473C12.4077 31.515 12.4077 31.557 12.4077 31.599C12.5937 31.467 12.8037 31.368 13.0377 31.302C13.2717 31.236 13.5267 31.218 13.8027 31.248C13.8027 31.488 13.8027 31.731 13.8027 31.977C13.8027 32.223 13.8027 32.466 13.8027 32.706C13.3287 32.64 12.9777 32.682 12.7497 32.832C12.5217 32.976 12.4077 33.213 12.4077 33.543C12.4077 33.945 12.4077 34.353 12.4077 34.767C12.4077 35.181 12.4077 35.592 12.4077 36C12.1677 36 11.9217 36 11.6697 36C11.4177 36 11.1687 36 10.9227 36ZM16.6346 36.144C16.2866 36.144 15.9626 36.084 15.6626 35.964C15.3626 35.838 15.1016 35.664 14.8796 35.442C14.6576 35.214 14.4836 34.95 14.3576 34.65C14.2376 34.35 14.1776 34.023 14.1776 33.669C14.1776 33.315 14.2376 32.988 14.3576 32.688C14.4836 32.388 14.6576 32.127 14.8796 31.905C15.1016 31.683 15.3626 31.512 15.6626 31.392C15.9626 31.266 16.2866 31.203 16.6346 31.203C16.9886 31.203 17.3126 31.266 17.6066 31.392C17.9066 31.512 18.1676 31.683 18.3896 31.905C18.6116 32.127 18.7826 32.388 18.9026 32.688C19.0286 32.988 19.0916 33.315 19.0916 33.669C19.0916 34.023 19.0286 34.35 18.9026 34.65C18.7826 34.95 18.6116 35.214 18.3896 35.442C18.1676 35.664 17.9066 35.838 17.6066 35.964C17.3126 36.084 16.9886 36.144 16.6346 36.144ZM16.6346 34.803C16.9286 34.803 17.1626 34.698 17.3366 34.488C17.5166 34.272 17.6066 33.999 17.6066 33.669C17.6066 33.333 17.5166 33.063 17.3366 32.859C17.1626 32.649 16.9286 32.544 16.6346 32.544C16.3406 32.544 16.1036 32.649 15.9236 32.859C15.7496 33.063 15.6626 33.333 15.6626 33.669C15.6626 33.999 15.7496 34.272 15.9236 34.488C16.1036 34.698 16.3406 34.803 16.6346 34.803ZM19.5391 32.679C19.5391 32.457 19.5391 32.235 19.5391 32.013C19.5391 31.791 19.5391 31.569 19.5391 31.347C19.6591 31.347 19.7791 31.347 19.8991 31.347C20.0251 31.347 20.1481 31.347 20.2681 31.347C20.2681 31.317 20.2681 31.29 20.2681 31.266C20.2681 31.242 20.2681 31.218 20.2681 31.194C20.2681 30.792 20.3491 30.456 20.5111 30.186C20.6791 29.91 20.8981 29.7 21.1681 29.556C21.4441 29.406 21.7441 29.322 22.0681 29.304C22.3981 29.28 22.7251 29.322 23.0491 29.43C23.0491 29.652 23.0491 29.88 23.0491 30.114C23.0491 30.348 23.0491 30.579 23.0491 30.807C22.6891 30.687 22.3831 30.663 22.1311 30.735C21.8791 30.807 21.7531 30.963 21.7531 31.203C21.7531 31.227 21.7531 31.251 21.7531 31.275C21.7531 31.299 21.7531 31.323 21.7531 31.347C21.9391 31.347 22.1251 31.347 22.3111 31.347C22.4971 31.347 22.6831 31.347 22.8691 31.347C22.8691 31.569 22.8691 31.791 22.8691 32.013C22.8691 32.235 22.8691 32.457 22.8691 32.679C22.6831 32.679 22.4971 32.679 22.3111 32.679C22.1251 32.679 21.9391 32.679 21.7531 32.679C21.7531 33.225 21.7531 33.777 21.7531 34.335C21.7531 34.893 21.7531 35.448 21.7531 36C21.5131 36 21.2671 36 21.0151 36C20.7631 36 20.5141 36 20.2681 36C20.2681 35.448 20.2681 34.893 20.2681 34.335C20.2681 33.777 20.2681 33.225 20.2681 32.679C20.1481 32.679 20.0251 32.679 19.8991 32.679C19.7791 32.679 19.6591 32.679 19.5391 32.679ZM24.4237 30.816C24.2497 30.816 24.0907 30.774 23.9467 30.69C23.8087 30.606 23.6977 30.495 23.6137 30.357C23.5297 30.219 23.4877 30.066 23.4877 29.898C23.4877 29.73 23.5297 29.58 23.6137 29.448C23.6977 29.31 23.8087 29.199 23.9467 29.115C24.0907 29.031 24.2497 28.989 24.4237 28.989C24.5917 28.989 24.7447 29.031 24.8827 29.115C25.0267 29.199 25.1407 29.31 25.2247 29.448C25.3087 29.58 25.3507 29.73 25.3507 29.898C25.3507 30.066 25.3087 30.219 25.2247 30.357C25.1407 30.495 25.0267 30.606 24.8827 30.69C24.7447 30.774 24.5917 30.816 24.4237 30.816ZM23.6767 36C23.6767 35.232 23.6767 34.458 23.6767 33.678C23.6767 32.892 23.6767 32.115 23.6767 31.347C23.9227 31.347 24.1717 31.347 24.4237 31.347C24.6757 31.347 24.9217 31.347 25.1617 31.347C25.1617 32.115 25.1617 32.892 25.1617 33.678C25.1617 34.458 25.1617 35.232 25.1617 36C24.9217 36 24.6757 36 24.4237 36C24.1717 36 23.9227 36 23.6767 36ZM26.2431 36C26.2431 34.914 26.2431 33.819 26.2431 32.715C26.2431 31.611 26.2431 30.516 26.2431 29.43C26.4891 29.43 26.7381 29.43 26.9901 29.43C27.2421 29.43 27.4881 29.43 27.7281 29.43C27.7281 30.516 27.7281 31.611 27.7281 32.715C27.7281 33.819 27.7281 34.914 27.7281 36C27.4881 36 27.2421 36 26.9901 36C26.7381 36 26.4891 36 26.2431 36ZM32.7695 35.784C32.3555 35.958 31.9445 36.066 31.5365 36.108C31.1285 36.15 30.7415 36.126 30.3755 36.036C30.0155 35.952 29.6945 35.805 29.4125 35.595C29.1305 35.385 28.9085 35.118 28.7465 34.794C28.5905 34.47 28.5125 34.095 28.5125 33.669C28.5125 33.315 28.5695 32.991 28.6835 32.697C28.8035 32.397 28.9715 32.136 29.1875 31.914C29.4035 31.686 29.6585 31.512 29.9525 31.392C30.2465 31.266 30.5675 31.203 30.9155 31.203C31.2275 31.203 31.5095 31.254 31.7615 31.356C32.0135 31.458 32.2325 31.602 32.4185 31.788C32.6045 31.968 32.7545 32.184 32.8685 32.436C32.9825 32.688 33.0545 32.964 33.0845 33.264C33.1145 33.564 33.0965 33.882 33.0305 34.218C32.5385 34.218 32.0435 34.218 31.5455 34.218C31.0475 34.218 30.5525 34.218 30.0605 34.218C30.1745 34.446 30.3635 34.608 30.6275 34.704C30.8975 34.8 31.2155 34.83 31.5815 34.794C31.9535 34.758 32.3495 34.662 32.7695 34.506C32.7695 34.716 32.7695 34.929 32.7695 35.145C32.7695 35.361 32.7695 35.574 32.7695 35.784ZM30.8795 32.535C30.7055 32.535 30.5435 32.583 30.3935 32.679C30.2495 32.775 30.1385 32.922 30.0605 33.12C30.3305 33.12 30.6005 33.12 30.8705 33.12C31.1465 33.12 31.4195 33.12 31.6895 33.12C31.6175 32.916 31.5095 32.769 31.3655 32.679C31.2275 32.583 31.0655 32.535 30.8795 32.535ZM34.6021 36.144C34.4281 36.144 34.2661 36.102 34.1161 36.018C33.9721 35.934 33.8581 35.82 33.7741 35.676C33.6901 35.532 33.6481 35.376 33.6481 35.208C33.6481 35.04 33.6901 34.887 33.7741 34.749C33.8581 34.605 33.9721 34.491 34.1161 34.407C34.2661 34.323 34.4281 34.281 34.6021 34.281C34.7761 34.281 34.9321 34.323 35.0701 34.407C35.2141 34.491 35.3281 34.605 35.4121 34.749C35.5021 34.887 35.5471 35.04 35.5471 35.208C35.5471 35.376 35.5021 35.532 35.4121 35.676C35.3281 35.82 35.2141 35.934 35.0701 36.018C34.9321 36.102 34.7761 36.144 34.6021 36.144Z" fill="#374957"/>
<g clip-path="url(#clip0_321_537)">
<path d="M20 11.9999C21.1867 11.9999 22.3467 11.648 23.3334 10.9888C24.3201 10.3295 25.0892 9.3924 25.5433 8.29604C25.9974 7.19969 26.1162 5.99329 25.8847 4.8294C25.6532 3.66551 25.0818 2.59642 24.2426 1.7573C23.4035 0.918186 22.3344 0.346741 21.1705 0.11523C20.0067 -0.116281 18.8003 0.00253868 17.7039 0.456664C16.6075 0.91079 15.6705 1.67983 15.0112 2.66652C14.3519 3.65322 14 4.81325 14 5.99994C14.0016 7.59075 14.6342 9.11595 15.7591 10.2408C16.884 11.3657 18.4092 11.9984 20 11.9999ZM20 1.99994C20.7911 1.99994 21.5645 2.23454 22.2223 2.67406C22.8801 3.11359 23.3928 3.7383 23.6955 4.46921C23.9983 5.20011 24.0775 6.00438 23.9231 6.7803C23.7688 7.55623 23.3878 8.26896 22.8284 8.82837C22.269 9.38778 21.5563 9.76874 20.7804 9.92308C20.0044 10.0774 19.2002 9.99821 18.4693 9.69546C17.7384 9.39271 17.1136 8.88002 16.6741 8.22222C16.2346 7.56443 16 6.79107 16 5.99994C16 4.93908 16.4214 3.92166 17.1716 3.17151C17.9217 2.42137 18.9391 1.99994 20 1.99994V1.99994Z" fill="#374957"/>
<path d="M20 14.0006C17.6139 14.0033 15.3262 14.9523 13.639 16.6396C11.9517 18.3268 11.0026 20.6145 11 23.0006C11 23.2658 11.1054 23.5202 11.2929 23.7077C11.4804 23.8953 11.7348 24.0006 12 24.0006C12.2652 24.0006 12.5196 23.8953 12.7071 23.7077C12.8946 23.5202 13 23.2658 13 23.0006C13 21.1441 13.7375 19.3636 15.0503 18.0509C16.363 16.7381 18.1435 16.0006 20 16.0006C21.8565 16.0006 23.637 16.7381 24.9497 18.0509C26.2625 19.3636 27 21.1441 27 23.0006C27 23.2658 27.1054 23.5202 27.2929 23.7077C27.4804 23.8953 27.7348 24.0006 28 24.0006C28.2652 24.0006 28.5196 23.8953 28.7071 23.7077C28.8946 23.5202 29 23.2658 29 23.0006C28.9974 20.6145 28.0483 18.3268 26.361 16.6396C24.6738 14.9523 22.3861 14.0033 20 14.0006V14.0006Z" fill="#374957"/>
</g>
<defs>
<clipPath id="clip0_321_537">
<rect width="24" height="24" fill="white" transform="translate(8)"/>
</clipPath>
</defs>
</svg>
