<svg width="50" height="50" viewBox="0 0 50 50" fill="none" xmlns="http://www.w3.org/2000/svg">
<circle cx="25" cy="25" r="23" fill="#F8FAFB" stroke="#374957" stroke-width="4"/>
<g clip-path="url(#clip0_77_327)">
<path d="M32 26.9999C31.2696 27.0026 30.5488 27.1663 29.8889 27.4793C29.229 27.7923 28.6462 28.2469 28.182 28.8109L22.782 26.3729C22.9194 25.9278 22.9928 25.4655 23 24.9999C22.9935 24.5392 22.9225 24.0818 22.789 23.6409L28.183 21.1909C28.9398 22.0816 29.9863 22.6772 31.1386 22.8731C32.2909 23.069 33.4754 22.8527 34.484 22.2621C35.4927 21.6715 36.2611 20.7445 36.6542 19.6438C37.0474 18.5431 37.0402 17.339 36.6339 16.2431C36.2276 15.1471 35.4481 14.2294 34.4325 13.6509C33.4168 13.0725 32.2298 12.8704 31.08 13.0801C29.9301 13.2897 28.8909 13.8978 28.1447 14.7975C27.3986 15.6972 26.9933 16.831 27 17.9999C27 18.1419 27.03 18.2759 27.042 18.4149L21.1 21.1119C20.224 20.398 19.13 20.0056 18 19.9999C16.6739 19.9999 15.4021 20.5266 14.4645 21.4643C13.5268 22.402 13 23.6738 13 24.9999C13 26.3259 13.5268 27.5977 14.4645 28.5354C15.4021 29.4731 16.6739 29.9999 18 29.9999C19.1251 29.9952 20.2151 29.6072 21.09 28.8999L27.042 31.5869C27.03 31.7259 27 31.8589 27 31.9999C27 32.9888 27.2932 33.9555 27.8427 34.7777C28.3921 35.6 29.173 36.2408 30.0866 36.6193C31.0002 36.9977 32.0056 37.0967 32.9755 36.9038C33.9454 36.7109 34.8363 36.2346 35.5355 35.5354C36.2348 34.8361 36.711 33.9452 36.9039 32.9753C37.0969 32.0054 36.9978 31.0001 36.6194 30.0864C36.241 29.1728 35.6001 28.3919 34.7779 27.8425C33.9556 27.2931 32.9889 26.9999 32 26.9999ZM32 15.9999C32.3956 15.9999 32.7822 16.1172 33.1111 16.3369C33.44 16.5567 33.6964 16.869 33.8478 17.2345C33.9991 17.5999 34.0387 18.0021 33.9616 18.39C33.8844 18.778 33.6939 19.1344 33.4142 19.4141C33.1345 19.6938 32.7781 19.8843 32.3902 19.9614C32.0022 20.0386 31.6001 19.999 31.2346 19.8476C30.8692 19.6962 30.5568 19.4399 30.3371 19.111C30.1173 18.7821 30 18.3954 30 17.9999C30 17.4694 30.2107 16.9607 30.5858 16.5856C30.9609 16.2106 31.4696 15.9999 32 15.9999ZM18 26.9999C17.6044 26.9999 17.2178 26.8826 16.8889 26.6628C16.56 26.443 16.3036 26.1307 16.1522 25.7652C16.0009 25.3998 15.9613 24.9976 16.0384 24.6097C16.1156 24.2217 16.3061 23.8653 16.5858 23.5856C16.8655 23.3059 17.2219 23.1155 17.6098 23.0383C17.9978 22.9611 18.3999 23.0007 18.7654 23.1521C19.1308 23.3035 19.4432 23.5598 19.6629 23.8887C19.8827 24.2176 20 24.6043 20 24.9999C20 25.5303 19.7893 26.039 19.4142 26.4141C19.0391 26.7891 18.5304 26.9999 18 26.9999ZM32 33.9999C31.6044 33.9999 31.2178 33.8826 30.8889 33.6628C30.56 33.443 30.3036 33.1307 30.1522 32.7652C30.0009 32.3998 29.9613 31.9976 30.0384 31.6097C30.1156 31.2217 30.3061 30.8653 30.5858 30.5856C30.8655 30.3059 31.2219 30.1155 31.6098 30.0383C31.9978 29.9611 32.3999 30.0007 32.7654 30.1521C33.1308 30.3035 33.4432 30.5598 33.6629 30.8887C33.8827 31.2176 34 31.6043 34 31.9999C34 32.5303 33.7893 33.039 33.4142 33.4141C33.0391 33.7891 32.5304 33.9999 32 33.9999Z" fill="#374957"/>
</g>
<defs>
<clipPath id="clip0_77_327">
<rect width="24" height="24" fill="white" transform="translate(13 13)"/>
</clipPath>
</defs>
</svg>
