<svg width="41" height="41" viewBox="0 0 41 41" fill="none" xmlns="http://www.w3.org/2000/svg">
<path d="M12.6671 34.155C12.6671 34.611 12.5471 34.983 12.3071 35.271C12.0731 35.553 11.7551 35.757 11.3531 35.883C10.9571 36.009 10.5131 36.063 10.0211 36.045C9.52908 36.033 9.02808 35.958 8.51808 35.82C8.51808 35.562 8.51808 35.304 8.51808 35.046C8.51808 34.788 8.51808 34.53 8.51808 34.272C8.98608 34.44 9.41208 34.545 9.79608 34.587C10.1801 34.629 10.4861 34.614 10.7141 34.542C10.9421 34.464 11.0561 34.335 11.0561 34.155C11.0561 34.029 10.9931 33.927 10.8671 33.849C10.7411 33.765 10.5761 33.69 10.3721 33.624C10.1741 33.558 9.96408 33.483 9.74208 33.399C9.52008 33.309 9.30708 33.198 9.10308 33.066C8.90508 32.928 8.74308 32.751 8.61708 32.535C8.49108 32.313 8.42808 32.037 8.42808 31.707C8.42808 31.299 8.53608 30.954 8.75208 30.672C8.96808 30.39 9.25908 30.177 9.62508 30.033C9.99708 29.889 10.4171 29.817 10.8851 29.817C11.3591 29.817 11.8481 29.889 12.3521 30.033C12.3521 30.291 12.3521 30.549 12.3521 30.807C12.3521 31.065 12.3521 31.323 12.3521 31.581C11.9321 31.401 11.5451 31.293 11.1911 31.257C10.8431 31.215 10.5641 31.233 10.3541 31.311C10.1441 31.383 10.0391 31.503 10.0391 31.671C10.0391 31.791 10.1021 31.89 10.2281 31.968C10.3541 32.046 10.5161 32.118 10.7141 32.184C10.9181 32.244 11.1311 32.319 11.3531 32.409C11.5751 32.493 11.7851 32.607 11.9831 32.751C12.1871 32.889 12.3521 33.072 12.4781 33.3C12.6041 33.522 12.6671 33.807 12.6671 34.155ZM13.4419 36C13.4419 34.914 13.4419 33.819 13.4419 32.715C13.4419 31.611 13.4419 30.516 13.4419 29.43C13.6879 29.43 13.9369 29.43 14.1889 29.43C14.4409 29.43 14.6869 29.43 14.9269 29.43C14.9269 29.784 14.9269 30.144 14.9269 30.51C14.9269 30.87 14.9269 31.227 14.9269 31.581C15.0889 31.467 15.2689 31.38 15.4669 31.32C15.6709 31.254 15.8899 31.221 16.1239 31.221C16.4659 31.221 16.7659 31.299 17.0239 31.455C17.2879 31.611 17.4919 31.836 17.6359 32.13C17.7859 32.418 17.8609 32.766 17.8609 33.174C17.8609 33.642 17.8609 34.113 17.8609 34.587C17.8609 35.061 17.8609 35.532 17.8609 36C17.6209 36 17.3749 36 17.1229 36C16.8709 36 16.6219 36 16.3759 36C16.3759 35.568 16.3759 35.13 16.3759 34.686C16.3759 34.242 16.3759 33.804 16.3759 33.372C16.3759 33.132 16.3189 32.94 16.2049 32.796C16.0969 32.646 15.9229 32.571 15.6829 32.571C15.4429 32.571 15.2569 32.64 15.1249 32.778C14.9929 32.916 14.9269 33.114 14.9269 33.372C14.9269 33.804 14.9269 34.242 14.9269 34.686C14.9269 35.13 14.9269 35.568 14.9269 36C14.6869 36 14.4409 36 14.1889 36C13.9369 36 13.6879 36 13.4419 36ZM20.9896 36.144C20.6416 36.144 20.3176 36.084 20.0176 35.964C19.7176 35.838 19.4566 35.664 19.2346 35.442C19.0126 35.214 18.8386 34.95 18.7126 34.65C18.5926 34.35 18.5326 34.023 18.5326 33.669C18.5326 33.315 18.5926 32.988 18.7126 32.688C18.8386 32.388 19.0126 32.127 19.2346 31.905C19.4566 31.683 19.7176 31.512 20.0176 31.392C20.3176 31.266 20.6416 31.203 20.9896 31.203C21.3436 31.203 21.6676 31.266 21.9616 31.392C22.2616 31.512 22.5226 31.683 22.7446 31.905C22.9666 32.127 23.1376 32.388 23.2576 32.688C23.3836 32.988 23.4466 33.315 23.4466 33.669C23.4466 34.023 23.3836 34.35 23.2576 34.65C23.1376 34.95 22.9666 35.214 22.7446 35.442C22.5226 35.664 22.2616 35.838 21.9616 35.964C21.6676 36.084 21.3436 36.144 20.9896 36.144ZM20.9896 34.803C21.2836 34.803 21.5176 34.698 21.6916 34.488C21.8716 34.272 21.9616 33.999 21.9616 33.669C21.9616 33.333 21.8716 33.063 21.6916 32.859C21.5176 32.649 21.2836 32.544 20.9896 32.544C20.6956 32.544 20.4586 32.649 20.2786 32.859C20.1046 33.063 20.0176 33.333 20.0176 33.669C20.0176 33.999 20.1046 34.272 20.2786 34.488C20.4586 34.698 20.6956 34.803 20.9896 34.803ZM24.181 36C24.181 35.232 24.181 34.458 24.181 33.678C24.181 32.892 24.181 32.115 24.181 31.347C24.427 31.347 24.676 31.347 24.928 31.347C25.18 31.347 25.426 31.347 25.666 31.347C25.666 31.389 25.666 31.431 25.666 31.473C25.666 31.515 25.666 31.557 25.666 31.599C25.852 31.467 26.062 31.368 26.296 31.302C26.53 31.236 26.785 31.218 27.061 31.248C27.061 31.488 27.061 31.731 27.061 31.977C27.061 32.223 27.061 32.466 27.061 32.706C26.587 32.64 26.236 32.682 26.008 32.832C25.78 32.976 25.666 33.213 25.666 33.543C25.666 33.945 25.666 34.353 25.666 34.767C25.666 35.181 25.666 35.592 25.666 36C25.426 36 25.18 36 24.928 36C24.676 36 24.427 36 24.181 36ZM28.2178 36C28.2178 35.448 28.2178 34.893 28.2178 34.335C28.2178 33.777 28.2178 33.225 28.2178 32.679C28.0978 32.679 27.9748 32.679 27.8488 32.679C27.7288 32.679 27.6088 32.679 27.4888 32.679C27.4888 32.457 27.4888 32.235 27.4888 32.013C27.4888 31.791 27.4888 31.569 27.4888 31.347C27.6088 31.347 27.7288 31.347 27.8488 31.347C27.9748 31.347 28.0978 31.347 28.2178 31.347C28.2178 31.137 28.2178 30.93 28.2178 30.726C28.2178 30.516 28.2178 30.309 28.2178 30.105C28.4638 30.105 28.7128 30.105 28.9648 30.105C29.2168 30.105 29.4628 30.105 29.7028 30.105C29.7028 30.309 29.7028 30.516 29.7028 30.726C29.7028 30.93 29.7028 31.137 29.7028 31.347C29.8408 31.347 29.9818 31.347 30.1258 31.347C30.2698 31.347 30.4108 31.347 30.5488 31.347C30.5488 31.569 30.5488 31.791 30.5488 32.013C30.5488 32.235 30.5488 32.457 30.5488 32.679C30.4108 32.679 30.2698 32.679 30.1258 32.679C29.9818 32.679 29.8408 32.679 29.7028 32.679C29.7028 33.225 29.7028 33.777 29.7028 34.335C29.7028 34.893 29.7028 35.448 29.7028 36C29.4628 36 29.2168 36 28.9648 36C28.7128 36 28.4638 36 28.2178 36ZM31.6358 36.144C31.4618 36.144 31.2998 36.102 31.1498 36.018C31.0058 35.934 30.8918 35.82 30.8078 35.676C30.7238 35.532 30.6818 35.376 30.6818 35.208C30.6818 35.04 30.7238 34.887 30.8078 34.749C30.8918 34.605 31.0058 34.491 31.1498 34.407C31.2998 34.323 31.4618 34.281 31.6358 34.281C31.8098 34.281 31.9658 34.323 32.1038 34.407C32.2478 34.491 32.3618 34.605 32.4458 34.749C32.5358 34.887 32.5808 35.04 32.5808 35.208C32.5808 35.376 32.5358 35.532 32.4458 35.676C32.3618 35.82 32.2478 35.934 32.1038 36.018C31.9658 36.102 31.8098 36.144 31.6358 36.144Z" fill="#374957"/>
<g clip-path="url(#clip0_321_490)">
<path d="M21.845 17.2669L18.583 20.5289C17.6359 21.4507 16.364 21.9625 15.0425 21.9537C13.7209 21.9448 12.456 21.416 11.5213 20.4816C10.5867 19.5472 10.0575 18.2825 10.0483 16.9609C10.0391 15.6393 10.5505 14.3673 11.472 13.4199L14.734 10.155C14.9215 9.96731 15.0268 9.71287 15.0267 9.4476C15.0266 9.18233 14.9212 8.92796 14.7335 8.74046C14.5459 8.55295 14.2914 8.44766 14.0262 8.44775C13.7609 8.44785 13.5065 8.55332 13.319 8.74096L10.058 12.0059C8.74029 13.3243 8.00026 15.1122 8.00073 16.9762C8.0012 18.8402 8.74213 20.6277 10.0605 21.9454C11.3789 23.2632 13.1668 24.0032 15.0308 24.0027C16.8948 24.0022 18.6823 23.2613 20 21.9429L23.262 18.6809C23.4442 18.4923 23.545 18.2397 23.5427 17.9775C23.5404 17.7153 23.4352 17.4645 23.2498 17.2791C23.0644 17.0937 22.8136 16.9885 22.5514 16.9863C22.2892 16.984 22.0366 17.0848 21.848 17.2669H21.845Z" fill="#374957"/>
<path d="M29.9441 2.06142C29.2934 1.40624 28.5191 0.8867 27.6662 0.532917C26.8132 0.179135 25.8985 -0.00185973 24.9751 0.000421369V0.000421369C24.0522 -0.00203036 23.1379 0.1785 22.2852 0.531573C21.4324 0.884646 20.6582 1.40326 20.0071 2.05742L16.7401 5.32042C16.5525 5.50793 16.447 5.7623 16.4469 6.02757C16.4468 6.29284 16.5521 6.54728 16.7396 6.73492C16.9271 6.92256 17.1815 7.02803 17.4467 7.02812C17.712 7.02822 17.9665 6.92293 18.1541 6.73542L21.4191 3.47342C21.8847 3.00507 22.4385 2.63372 23.0485 2.38088C23.6586 2.12804 24.3127 1.99872 24.9731 2.00042V2.00042C25.9674 2.00075 26.9392 2.29585 27.7658 2.84842C28.5924 3.40099 29.2366 4.18622 29.6169 5.10484C29.9973 6.02347 30.0968 7.03424 29.9028 8.0094C29.7088 8.98455 29.2301 9.88031 28.5271 10.5834L25.2651 13.8454C25.0775 14.0331 24.972 14.2876 24.972 14.5529C24.972 14.8183 25.0775 15.0728 25.2651 15.2604C25.4527 15.4481 25.7072 15.5535 25.9726 15.5535C26.238 15.5535 26.4925 15.4481 26.6801 15.2604L29.9421 12.0004C31.2581 10.6815 31.9974 8.89453 31.9978 7.03134C31.9982 5.16815 31.2596 3.38086 29.9441 2.06142V2.06142Z" fill="#374957"/>
<path d="M22.2932 8.2931L16.2932 14.2931C16.1977 14.3853 16.1215 14.4957 16.0691 14.6177C16.0167 14.7397 15.9891 14.8709 15.988 15.0037C15.9868 15.1365 16.0121 15.2681 16.0624 15.391C16.1127 15.5139 16.1869 15.6256 16.2808 15.7195C16.3747 15.8134 16.4864 15.8876 16.6092 15.9379C16.7321 15.9882 16.8638 16.0135 16.9966 16.0123C17.1294 16.0112 17.2606 15.9836 17.3826 15.9312C17.5046 15.8788 17.615 15.8026 17.7072 15.7071L23.7072 9.7071C23.8894 9.5185 23.9902 9.2659 23.9879 9.0037C23.9856 8.7415 23.8804 8.49069 23.695 8.30528C23.5096 8.11987 23.2588 8.01471 22.9966 8.01243C22.7344 8.01015 22.4818 8.11094 22.2932 8.2931Z" fill="#374957"/>
</g>
<defs>
<clipPath id="clip0_321_490">
<rect width="24" height="24" fill="white" transform="translate(8)"/>
</clipPath>
</defs>
</svg>
