<svg width="332" height="125" viewBox="0 0 332 125" fill="none" xmlns="http://www.w3.org/2000/svg">
<path d="M124.672 6.4C124.979 7.77333 125.285 9.16667 125.592 10.58C125.899 11.9933 126.199 13.3933 126.492 14.78C126.799 13.3933 127.105 11.9933 127.412 10.58C127.732 9.16667 128.039 7.77333 128.332 6.4C128.852 6.4 129.379 6.4 129.912 6.4C130.445 6.4 130.972 6.4 131.492 6.4C131.812 7.77333 132.132 9.16 132.452 10.56C132.772 11.96 133.092 13.3533 133.412 14.74C133.719 13.3533 134.019 11.96 134.312 10.56C134.619 9.16 134.919 7.77333 135.212 6.4C135.745 6.4 136.279 6.4 136.812 6.4C137.359 6.4 137.899 6.4 138.432 6.4C137.939 8.64 137.445 10.9067 136.952 13.2C136.459 15.4933 135.965 17.76 135.472 20C134.819 20 134.152 20 133.472 20C132.805 20 132.139 20 131.472 20C131.192 18.76 130.905 17.5133 130.612 16.26C130.319 14.9933 130.032 13.74 129.752 12.5C129.485 13.74 129.212 14.9933 128.932 16.26C128.652 17.5133 128.379 18.76 128.112 20C127.459 20 126.799 20 126.132 20C125.479 20 124.825 20 124.172 20C123.679 17.76 123.185 15.4933 122.692 13.2C122.199 10.9067 121.705 8.64 121.212 6.4C121.785 6.4 122.359 6.4 122.932 6.4C123.519 6.4 124.099 6.4 124.672 6.4ZM148.119 19.52C147.199 19.9067 146.286 20.1467 145.379 20.24C144.472 20.3333 143.612 20.28 142.799 20.08C141.999 19.8933 141.286 19.5667 140.659 19.1C140.032 18.6333 139.539 18.04 139.179 17.32C138.832 16.6 138.659 15.7667 138.659 14.82C138.659 14.0333 138.786 13.3133 139.039 12.66C139.306 11.9933 139.679 11.4133 140.159 10.92C140.639 10.4133 141.206 10.0267 141.859 9.76C142.512 9.48 143.226 9.34 143.999 9.34C144.692 9.34 145.319 9.45333 145.879 9.68C146.439 9.90667 146.926 10.2267 147.339 10.64C147.752 11.04 148.086 11.52 148.339 12.08C148.592 12.64 148.752 13.2533 148.819 13.92C148.886 14.5867 148.846 15.2933 148.699 16.04C147.606 16.04 146.506 16.04 145.399 16.04C144.292 16.04 143.192 16.04 142.099 16.04C142.352 16.5467 142.772 16.9067 143.359 17.12C143.959 17.3333 144.666 17.4 145.479 17.32C146.306 17.24 147.186 17.0267 148.119 16.68C148.119 17.1467 148.119 17.62 148.119 18.1C148.119 18.58 148.119 19.0533 148.119 19.52ZM143.919 12.3C143.532 12.3 143.172 12.4067 142.839 12.62C142.519 12.8333 142.272 13.16 142.099 13.6C142.699 13.6 143.299 13.6 143.899 13.6C144.512 13.6 145.119 13.6 145.719 13.6C145.559 13.1467 145.319 12.82 144.999 12.62C144.692 12.4067 144.332 12.3 143.919 12.3ZM150.667 20C150.667 17.5867 150.667 15.1533 150.667 12.7C150.667 10.2467 150.667 7.81333 150.667 5.4C151.213 5.4 151.767 5.4 152.327 5.4C152.887 5.4 153.433 5.4 153.967 5.4C153.967 7.81333 153.967 10.2467 153.967 12.7C153.967 15.1533 153.967 17.5867 153.967 20C153.433 20 152.887 20 152.327 20C151.767 20 151.213 20 150.667 20ZM155.71 14.82C155.71 13.8067 155.917 12.92 156.33 12.16C156.743 11.3867 157.317 10.7667 158.05 10.3C158.783 9.83333 159.637 9.55333 160.61 9.46C161.583 9.35333 162.623 9.46667 163.73 9.8C163.73 10.3067 163.73 10.82 163.73 11.34C163.73 11.86 163.73 12.3733 163.73 12.88C162.957 12.5067 162.217 12.3333 161.51 12.36C160.803 12.3867 160.223 12.6067 159.77 13.02C159.317 13.42 159.09 14.02 159.09 14.82C159.09 15.62 159.317 16.2267 159.77 16.64C160.223 17.04 160.803 17.2533 161.51 17.28C162.217 17.2933 162.957 17.12 163.73 16.76C163.73 17.2667 163.73 17.78 163.73 18.3C163.73 18.82 163.73 19.3333 163.73 19.84C162.623 20.1733 161.583 20.2867 160.61 20.18C159.637 20.0867 158.783 19.8067 158.05 19.34C157.317 18.8733 156.743 18.26 156.33 17.5C155.917 16.7267 155.71 15.8333 155.71 14.82ZM170.584 20.32C169.811 20.32 169.091 20.1867 168.424 19.92C167.757 19.64 167.177 19.2533 166.684 18.76C166.191 18.2533 165.804 17.6667 165.524 17C165.257 16.3333 165.124 15.6067 165.124 14.82C165.124 14.0333 165.257 13.3067 165.524 12.64C165.804 11.9733 166.191 11.3933 166.684 10.9C167.177 10.4067 167.757 10.0267 168.424 9.76C169.091 9.48 169.811 9.34 170.584 9.34C171.371 9.34 172.091 9.48 172.744 9.76C173.411 10.0267 173.991 10.4067 174.484 10.9C174.977 11.3933 175.357 11.9733 175.624 12.64C175.904 13.3067 176.044 14.0333 176.044 14.82C176.044 15.6067 175.904 16.3333 175.624 17C175.357 17.6667 174.977 18.2533 174.484 18.76C173.991 19.2533 173.411 19.64 172.744 19.92C172.091 20.1867 171.371 20.32 170.584 20.32ZM170.584 17.34C171.237 17.34 171.757 17.1067 172.144 16.64C172.544 16.16 172.744 15.5533 172.744 14.82C172.744 14.0733 172.544 13.4733 172.144 13.02C171.757 12.5533 171.237 12.32 170.584 12.32C169.931 12.32 169.404 12.5533 169.004 13.02C168.617 13.4733 168.424 14.0733 168.424 14.82C168.424 15.5533 168.617 16.16 169.004 16.64C169.404 17.1067 169.931 17.34 170.584 17.34ZM177.676 20C177.676 18.2933 177.676 16.5733 177.676 14.84C177.676 13.0933 177.676 11.3667 177.676 9.66C178.223 9.66 178.776 9.66 179.336 9.66C179.896 9.66 180.443 9.66 180.976 9.66C180.976 9.75333 180.976 9.84 180.976 9.92C180.976 10 180.976 10.0867 180.976 10.18C181.323 9.92667 181.71 9.73333 182.136 9.6C182.563 9.45333 183.003 9.38 183.456 9.38C183.95 9.38 184.403 9.46667 184.816 9.64C185.23 9.8 185.583 10.04 185.876 10.36C186.303 10.0533 186.783 9.81333 187.316 9.64C187.863 9.46667 188.423 9.38 188.996 9.38C189.81 9.38 190.51 9.54667 191.096 9.88C191.696 10.2133 192.156 10.6867 192.476 11.3C192.81 11.9133 192.976 12.6533 192.976 13.52C192.976 14.5867 192.976 15.6667 192.976 16.76C192.976 17.8533 192.976 18.9333 192.976 20C192.443 20 191.896 20 191.336 20C190.776 20 190.223 20 189.676 20C189.676 19 189.676 17.9867 189.676 16.96C189.676 15.9333 189.676 14.92 189.676 13.92C189.676 13.4667 189.57 13.1 189.356 12.82C189.156 12.5267 188.83 12.38 188.376 12.38C187.936 12.38 187.59 12.52 187.336 12.8C187.096 13.0667 186.976 13.44 186.976 13.92C186.976 14.92 186.976 15.9333 186.976 16.96C186.976 17.9867 186.976 19 186.976 20C186.443 20 185.896 20 185.336 20C184.776 20 184.223 20 183.676 20C183.676 19 183.676 17.9867 183.676 16.96C183.676 15.9333 183.676 14.92 183.676 13.92C183.676 13.4667 183.57 13.1 183.356 12.82C183.156 12.5267 182.83 12.38 182.376 12.38C181.936 12.38 181.59 12.52 181.336 12.8C181.096 13.0667 180.976 13.44 180.976 13.92C180.976 14.92 180.976 15.9333 180.976 16.96C180.976 17.9867 180.976 19 180.976 20C180.443 20 179.896 20 179.336 20C178.776 20 178.223 20 177.676 20ZM203.92 19.52C203 19.9067 202.087 20.1467 201.18 20.24C200.273 20.3333 199.413 20.28 198.6 20.08C197.8 19.8933 197.087 19.5667 196.46 19.1C195.833 18.6333 195.34 18.04 194.98 17.32C194.633 16.6 194.46 15.7667 194.46 14.82C194.46 14.0333 194.587 13.3133 194.84 12.66C195.107 11.9933 195.48 11.4133 195.96 10.92C196.44 10.4133 197.007 10.0267 197.66 9.76C198.313 9.48 199.027 9.34 199.8 9.34C200.493 9.34 201.12 9.45333 201.68 9.68C202.24 9.90667 202.727 10.2267 203.14 10.64C203.553 11.04 203.887 11.52 204.14 12.08C204.393 12.64 204.553 13.2533 204.62 13.92C204.687 14.5867 204.647 15.2933 204.5 16.04C203.407 16.04 202.307 16.04 201.2 16.04C200.093 16.04 198.993 16.04 197.9 16.04C198.153 16.5467 198.573 16.9067 199.16 17.12C199.76 17.3333 200.467 17.4 201.28 17.32C202.107 17.24 202.987 17.0267 203.92 16.68C203.92 17.1467 203.92 17.62 203.92 18.1C203.92 18.58 203.92 19.0533 203.92 19.52ZM199.72 12.3C199.333 12.3 198.973 12.4067 198.64 12.62C198.32 12.8333 198.073 13.16 197.9 13.6C198.5 13.6 199.1 13.6 199.7 13.6C200.313 13.6 200.92 13.6 201.52 13.6C201.36 13.1467 201.12 12.82 200.8 12.62C200.493 12.4067 200.133 12.3 199.72 12.3ZM206.528 15.1C206.514 13.66 206.501 12.2133 206.488 10.76C206.474 9.29333 206.454 7.84 206.428 6.4C207.014 6.4 207.601 6.4 208.188 6.4C208.774 6.4 209.354 6.4 209.928 6.4C209.914 7.84 209.901 9.29333 209.888 10.76C209.874 12.2133 209.854 13.66 209.828 15.1C209.294 15.1 208.748 15.1 208.188 15.1C207.628 15.1 207.074 15.1 206.528 15.1ZM208.188 20.32C207.801 20.32 207.441 20.2267 207.108 20.04C206.788 19.8533 206.534 19.6 206.348 19.28C206.161 18.96 206.068 18.6133 206.068 18.24C206.068 17.68 206.274 17.2 206.688 16.8C207.101 16.3867 207.601 16.18 208.188 16.18C208.574 16.18 208.921 16.2733 209.228 16.46C209.548 16.6467 209.801 16.9 209.988 17.22C210.188 17.5267 210.288 17.8667 210.288 18.24C210.288 18.6133 210.188 18.96 209.988 19.28C209.801 19.6 209.548 19.8533 209.228 20.04C208.921 20.2267 208.574 20.32 208.188 20.32ZM0.916875 38.2C0.916875 37.1733 1.07688 36.24 1.39688 35.4C1.73021 34.5467 2.19688 33.8067 2.79688 33.18C3.39688 32.5533 4.11688 32.0667 4.95688 31.72C5.79688 31.3733 6.72354 31.1867 7.73688 31.16C8.76354 31.1333 9.85688 31.2933 11.0169 31.64C11.0169 32.2 11.0169 32.7667 11.0169 33.34C11.0169 33.9 11.0169 34.46 11.0169 35.02C10.2302 34.6467 9.45021 34.4333 8.67688 34.38C7.90354 34.3267 7.20354 34.4333 6.57688 34.7C5.95021 34.9667 5.45021 35.3933 5.07688 35.98C4.70354 36.5533 4.51688 37.2933 4.51688 38.2C4.51688 39.1067 4.70354 39.8533 5.07688 40.44C5.45021 41.0133 5.95021 41.4333 6.57688 41.7C7.20354 41.9667 7.90354 42.0733 8.67688 42.02C9.45021 41.9667 10.2302 41.7533 11.0169 41.38C11.0169 41.94 11.0169 42.5067 11.0169 43.08C11.0169 43.64 11.0169 44.2 11.0169 44.76C9.85688 45.1067 8.76354 45.2667 7.73688 45.24C6.72354 45.2133 5.79688 45.0267 4.95688 44.68C4.11688 44.3333 3.39688 43.8467 2.79688 43.22C2.19688 42.5933 1.73021 41.86 1.39688 41.02C1.07688 40.1667 0.916875 39.2267 0.916875 38.2ZM13.2156 45C13.2156 42.5867 13.2156 40.1533 13.2156 37.7C13.2156 35.2467 13.2156 32.8133 13.2156 30.4C13.7623 30.4 14.3156 30.4 14.8756 30.4C15.4356 30.4 15.9823 30.4 16.5156 30.4C16.5156 32.8133 16.5156 35.2467 16.5156 37.7C16.5156 40.1533 16.5156 42.5867 16.5156 45C15.9823 45 15.4356 45 14.8756 45C14.3156 45 13.7623 45 13.2156 45ZM20.5788 33.48C20.1921 33.48 19.8388 33.3867 19.5188 33.2C19.2121 33.0133 18.9654 32.7667 18.7788 32.46C18.5921 32.1533 18.4988 31.8133 18.4988 31.44C18.4988 31.0667 18.5921 30.7333 18.7788 30.44C18.9654 30.1333 19.2121 29.8867 19.5188 29.7C19.8388 29.5133 20.1921 29.42 20.5788 29.42C20.9521 29.42 21.2921 29.5133 21.5988 29.7C21.9188 29.8867 22.1721 30.1333 22.3588 30.44C22.5454 30.7333 22.6388 31.0667 22.6388 31.44C22.6388 31.8133 22.5454 32.1533 22.3588 32.46C22.1721 32.7667 21.9188 33.0133 21.5988 33.2C21.2921 33.3867 20.9521 33.48 20.5788 33.48ZM18.9188 45C18.9188 43.2933 18.9188 41.5733 18.9188 39.84C18.9188 38.0933 18.9188 36.3667 18.9188 34.66C19.4654 34.66 20.0188 34.66 20.5788 34.66C21.1388 34.66 21.6854 34.66 22.2188 34.66C22.2188 36.3667 22.2188 38.0933 22.2188 39.84C22.2188 41.5733 22.2188 43.2933 22.2188 45C21.6854 45 21.1388 45 20.5788 45C20.0188 45 19.4654 45 18.9188 45ZM23.9619 39.82C23.9619 38.8067 24.1685 37.92 24.5819 37.16C24.9952 36.3867 25.5685 35.7667 26.3019 35.3C27.0352 34.8333 27.8885 34.5533 28.8619 34.46C29.8352 34.3533 30.8752 34.4667 31.9819 34.8C31.9819 35.3067 31.9819 35.82 31.9819 36.34C31.9819 36.86 31.9819 37.3733 31.9819 37.88C31.2085 37.5067 30.4685 37.3333 29.7619 37.36C29.0552 37.3867 28.4752 37.6067 28.0219 38.02C27.5685 38.42 27.3419 39.02 27.3419 39.82C27.3419 40.62 27.5685 41.2267 28.0219 41.64C28.4752 42.04 29.0552 42.2533 29.7619 42.28C30.4685 42.2933 31.2085 42.12 31.9819 41.76C31.9819 42.2667 31.9819 42.78 31.9819 43.3C31.9819 43.82 31.9819 44.3333 31.9819 44.84C30.8752 45.1733 29.8352 45.2867 28.8619 45.18C27.8885 45.0867 27.0352 44.8067 26.3019 44.34C25.5685 43.8733 24.9952 43.26 24.5819 42.5C24.1685 41.7267 23.9619 40.8333 23.9619 39.82ZM34.1336 45C34.1336 42.5867 34.1336 40.1533 34.1336 37.7C34.1336 35.2467 34.1336 32.8133 34.1336 30.4C34.6803 30.4 35.2336 30.4 35.7936 30.4C36.3536 30.4 36.9003 30.4 37.4336 30.4C37.4336 31.7067 37.4336 33.0333 37.4336 34.38C37.4336 35.7267 37.4336 37.0533 37.4336 38.36C37.9136 37.7467 38.3936 37.1333 38.8736 36.52C39.3536 35.8933 39.8336 35.2733 40.3136 34.66C40.9536 34.66 41.5936 34.66 42.2336 34.66C42.8869 34.66 43.5336 34.66 44.1736 34.66C43.5469 35.4467 42.9069 36.24 42.2536 37.04C41.6136 37.84 40.9803 38.6333 40.3536 39.42C41.0203 40.34 41.6869 41.2733 42.3536 42.22C43.0336 43.1533 43.7003 44.08 44.3536 45C43.7003 45 43.0469 45 42.3936 45C41.7403 45 41.0869 45 40.4336 45C39.9403 44.2933 39.4403 43.58 38.9336 42.86C38.4269 42.1267 37.9269 41.4067 37.4336 40.7C37.4336 41.4067 37.4336 42.1267 37.4336 42.86C37.4336 43.58 37.4336 44.2933 37.4336 45C36.9003 45 36.3536 45 35.7936 45C35.2336 45 34.6803 45 34.1336 45ZM50.7386 45C50.7386 43.7733 50.7386 42.54 50.7386 41.3C50.7386 40.06 50.7386 38.8333 50.7386 37.62C50.4719 37.62 50.1986 37.62 49.9186 37.62C49.6519 37.62 49.3853 37.62 49.1186 37.62C49.1186 37.1267 49.1186 36.6333 49.1186 36.14C49.1186 35.6467 49.1186 35.1533 49.1186 34.66C49.3853 34.66 49.6519 34.66 49.9186 34.66C50.1986 34.66 50.4719 34.66 50.7386 34.66C50.7386 34.1933 50.7386 33.7333 50.7386 33.28C50.7386 32.8133 50.7386 32.3533 50.7386 31.9C51.2853 31.9 51.8386 31.9 52.3986 31.9C52.9586 31.9 53.5053 31.9 54.0386 31.9C54.0386 32.3533 54.0386 32.8133 54.0386 33.28C54.0386 33.7333 54.0386 34.1933 54.0386 34.66C54.3453 34.66 54.6586 34.66 54.9786 34.66C55.2986 34.66 55.6119 34.66 55.9186 34.66C55.9186 35.1533 55.9186 35.6467 55.9186 36.14C55.9186 36.6333 55.9186 37.1267 55.9186 37.62C55.6119 37.62 55.2986 37.62 54.9786 37.62C54.6586 37.62 54.3453 37.62 54.0386 37.62C54.0386 38.8333 54.0386 40.06 54.0386 41.3C54.0386 42.54 54.0386 43.7733 54.0386 45C53.5053 45 52.9586 45 52.3986 45C51.8386 45 51.2853 45 50.7386 45ZM57.6102 45C57.6102 42.5867 57.6102 40.1533 57.6102 37.7C57.6102 35.2467 57.6102 32.8133 57.6102 30.4C58.1568 30.4 58.7102 30.4 59.2702 30.4C59.8302 30.4 60.3768 30.4 60.9102 30.4C60.9102 31.1867 60.9102 31.9867 60.9102 32.8C60.9102 33.6 60.9102 34.3933 60.9102 35.18C61.2702 34.9267 61.6702 34.7333 62.1102 34.6C62.5635 34.4533 63.0502 34.38 63.5702 34.38C64.3302 34.38 64.9968 34.5533 65.5702 34.9C66.1568 35.2467 66.6102 35.7467 66.9302 36.4C67.2635 37.04 67.4302 37.8133 67.4302 38.72C67.4302 39.76 67.4302 40.8067 67.4302 41.86C67.4302 42.9133 67.4302 43.96 67.4302 45C66.8968 45 66.3502 45 65.7902 45C65.2302 45 64.6768 45 64.1302 45C64.1302 44.04 64.1302 43.0667 64.1302 42.08C64.1302 41.0933 64.1302 40.12 64.1302 39.16C64.1302 38.6267 64.0035 38.2 63.7502 37.88C63.5102 37.5467 63.1235 37.38 62.5902 37.38C62.0568 37.38 61.6435 37.5333 61.3502 37.84C61.0568 38.1467 60.9102 38.5867 60.9102 39.16C60.9102 40.12 60.9102 41.0933 60.9102 42.08C60.9102 43.0667 60.9102 44.04 60.9102 45C60.3768 45 59.8302 45 59.2702 45C58.7102 45 58.1568 45 57.6102 45ZM71.2428 33.48C70.8561 33.48 70.5028 33.3867 70.1828 33.2C69.8761 33.0133 69.6295 32.7667 69.4428 32.46C69.2561 32.1533 69.1628 31.8133 69.1628 31.44C69.1628 31.0667 69.2561 30.7333 69.4428 30.44C69.6295 30.1333 69.8761 29.8867 70.1828 29.7C70.5028 29.5133 70.8561 29.42 71.2428 29.42C71.6161 29.42 71.9561 29.5133 72.2628 29.7C72.5828 29.8867 72.8361 30.1333 73.0228 30.44C73.2095 30.7333 73.3028 31.0667 73.3028 31.44C73.3028 31.8133 73.2095 32.1533 73.0228 32.46C72.8361 32.7667 72.5828 33.0133 72.2628 33.2C71.9561 33.3867 71.6161 33.48 71.2428 33.48ZM69.5828 45C69.5828 43.2933 69.5828 41.5733 69.5828 39.84C69.5828 38.0933 69.5828 36.3667 69.5828 34.66C70.1295 34.66 70.6828 34.66 71.2428 34.66C71.8028 34.66 72.3495 34.66 72.8828 34.66C72.8828 36.3667 72.8828 38.0933 72.8828 39.84C72.8828 41.5733 72.8828 43.2933 72.8828 45C72.3495 45 71.8028 45 71.2428 45C70.6828 45 70.1295 45 69.5828 45ZM83.0859 41.8C83.0859 42.6267 82.8526 43.3067 82.3859 43.84C81.9326 44.36 81.3193 44.74 80.5459 44.98C79.7726 45.22 78.9059 45.32 77.9459 45.28C76.9993 45.2533 76.0326 45.1 75.0459 44.82C75.0459 44.3133 75.0459 43.7933 75.0459 43.26C75.0459 42.7267 75.0459 42.2067 75.0459 41.7C75.6059 41.9533 76.1659 42.1533 76.7259 42.3C77.2859 42.4333 77.7926 42.5133 78.2459 42.54C78.6993 42.5667 79.0659 42.5333 79.3459 42.44C79.6259 42.3333 79.7659 42.16 79.7659 41.92C79.7659 41.7333 79.6459 41.5867 79.4059 41.48C79.1793 41.3733 78.8793 41.28 78.5059 41.2C78.1326 41.1067 77.7326 41 77.3059 40.88C76.8926 40.7467 76.4993 40.5667 76.1259 40.34C75.7526 40.1 75.4459 39.7867 75.2059 39.4C74.9793 39 74.8659 38.4867 74.8659 37.86C74.8659 37.1133 75.0793 36.48 75.5059 35.96C75.9459 35.4267 76.5326 35.0267 77.2659 34.76C77.9993 34.48 78.8193 34.34 79.7259 34.34C80.6326 34.34 81.5593 34.4933 82.5059 34.8C82.5059 35.3067 82.5059 35.8267 82.5059 36.36C82.5059 36.8933 82.5059 37.4133 82.5059 37.92C81.7593 37.56 81.0593 37.32 80.4059 37.2C79.7526 37.08 79.2259 37.0667 78.8259 37.16C78.4259 37.24 78.2259 37.42 78.2259 37.7C78.2259 37.8867 78.3393 38.0333 78.5659 38.14C78.8059 38.2333 79.1059 38.32 79.4659 38.4C79.8393 38.48 80.2326 38.5867 80.6459 38.72C81.0726 38.8533 81.4659 39.04 81.8259 39.28C82.1993 39.5067 82.4993 39.8267 82.7259 40.24C82.9659 40.64 83.0859 41.16 83.0859 41.8ZM90.6373 33.48C90.2507 33.48 89.8973 33.3867 89.5773 33.2C89.2707 33.0133 89.024 32.7667 88.8373 32.46C88.6507 32.1533 88.5573 31.8133 88.5573 31.44C88.5573 31.0667 88.6507 30.7333 88.8373 30.44C89.024 30.1333 89.2707 29.8867 89.5773 29.7C89.8973 29.5133 90.2507 29.42 90.6373 29.42C91.0107 29.42 91.3507 29.5133 91.6573 29.7C91.9773 29.8867 92.2307 30.1333 92.4173 30.44C92.604 30.7333 92.6973 31.0667 92.6973 31.44C92.6973 31.8133 92.604 32.1533 92.4173 32.46C92.2307 32.7667 91.9773 33.0133 91.6573 33.2C91.3507 33.3867 91.0107 33.48 90.6373 33.48ZM88.9773 45C88.9773 43.2933 88.9773 41.5733 88.9773 39.84C88.9773 38.0933 88.9773 36.3667 88.9773 34.66C89.524 34.66 90.0773 34.66 90.6373 34.66C91.1973 34.66 91.744 34.66 92.2773 34.66C92.2773 36.3667 92.2773 38.0933 92.2773 39.84C92.2773 41.5733 92.2773 43.2933 92.2773 45C91.744 45 91.1973 45 90.6373 45C90.0773 45 89.524 45 88.9773 45ZM94.0205 39.82C94.0205 38.8067 94.2271 37.92 94.6405 37.16C95.0538 36.3867 95.6271 35.7667 96.3605 35.3C97.0938 34.8333 97.9471 34.5533 98.9205 34.46C99.8938 34.3533 100.934 34.4667 102.04 34.8C102.04 35.3067 102.04 35.82 102.04 36.34C102.04 36.86 102.04 37.3733 102.04 37.88C101.267 37.5067 100.527 37.3333 99.8205 37.36C99.1138 37.3867 98.5338 37.6067 98.0805 38.02C97.6271 38.42 97.4005 39.02 97.4005 39.82C97.4005 40.62 97.6271 41.2267 98.0805 41.64C98.5338 42.04 99.1138 42.2533 99.8205 42.28C100.527 42.2933 101.267 42.12 102.04 41.76C102.04 42.2667 102.04 42.78 102.04 43.3C102.04 43.82 102.04 44.3333 102.04 44.84C100.934 45.1733 99.8938 45.2867 98.9205 45.18C97.9471 45.0867 97.0938 44.8067 96.3605 44.34C95.6271 43.8733 95.0538 43.26 94.6405 42.5C94.2271 41.7267 94.0205 40.8333 94.0205 39.82ZM108.895 45.32C108.121 45.32 107.401 45.1867 106.735 44.92C106.068 44.64 105.488 44.2533 104.995 43.76C104.501 43.2533 104.115 42.6667 103.835 42C103.568 41.3333 103.435 40.6067 103.435 39.82C103.435 39.0333 103.568 38.3067 103.835 37.64C104.115 36.9733 104.501 36.3933 104.995 35.9C105.488 35.4067 106.068 35.0267 106.735 34.76C107.401 34.48 108.121 34.34 108.895 34.34C109.681 34.34 110.401 34.48 111.055 34.76C111.721 35.0267 112.301 35.4067 112.795 35.9C113.288 36.3933 113.668 36.9733 113.935 37.64C114.215 38.3067 114.355 39.0333 114.355 39.82C114.355 40.6067 114.215 41.3333 113.935 42C113.668 42.6667 113.288 43.2533 112.795 43.76C112.301 44.2533 111.721 44.64 111.055 44.92C110.401 45.1867 109.681 45.32 108.895 45.32ZM108.895 42.34C109.548 42.34 110.068 42.1067 110.455 41.64C110.855 41.16 111.055 40.5533 111.055 39.82C111.055 39.0733 110.855 38.4733 110.455 38.02C110.068 37.5533 109.548 37.32 108.895 37.32C108.241 37.32 107.715 37.5533 107.315 38.02C106.928 38.4733 106.735 39.0733 106.735 39.82C106.735 40.5533 106.928 41.16 107.315 41.64C107.715 42.1067 108.241 42.34 108.895 42.34ZM115.987 45C115.987 43.2933 115.987 41.5733 115.987 39.84C115.987 38.0933 115.987 36.3667 115.987 34.66C116.533 34.66 117.087 34.66 117.647 34.66C118.207 34.66 118.753 34.66 119.287 34.66C119.287 34.7533 119.287 34.84 119.287 34.92C119.287 35 119.287 35.0867 119.287 35.18C119.647 34.9267 120.047 34.7333 120.487 34.6C120.94 34.4533 121.427 34.38 121.947 34.38C122.707 34.38 123.373 34.5533 123.947 34.9C124.533 35.2467 124.987 35.7467 125.307 36.4C125.64 37.04 125.807 37.8133 125.807 38.72C125.807 39.76 125.807 40.8067 125.807 41.86C125.807 42.9133 125.807 43.96 125.807 45C125.273 45 124.727 45 124.167 45C123.607 45 123.053 45 122.507 45C122.507 44.04 122.507 43.0667 122.507 42.08C122.507 41.0933 122.507 40.12 122.507 39.16C122.507 38.6267 122.38 38.2 122.127 37.88C121.887 37.5467 121.5 37.38 120.967 37.38C120.433 37.38 120.02 37.5333 119.727 37.84C119.433 38.1467 119.287 38.5867 119.287 39.16C119.287 40.12 119.287 41.0933 119.287 42.08C119.287 43.0667 119.287 44.04 119.287 45C118.753 45 118.207 45 117.647 45C117.087 45 116.533 45 115.987 45ZM135.441 45C134.908 45 134.361 45 133.801 45C133.241 45 132.688 45 132.141 45C132.141 42.5867 132.141 40.1533 132.141 37.7C132.141 35.2467 132.141 32.8133 132.141 30.4C132.688 30.4 133.241 30.4 133.801 30.4C134.361 30.4 134.908 30.4 135.441 30.4C135.441 31.2 135.441 32.0067 135.441 32.82C135.441 33.6333 135.441 34.44 135.441 35.24C135.775 34.9733 136.155 34.7667 136.581 34.62C137.008 34.46 137.461 34.38 137.941 34.38C138.608 34.38 139.241 34.5133 139.841 34.78C140.441 35.0333 140.968 35.4 141.421 35.88C141.888 36.36 142.248 36.9333 142.501 37.6C142.768 38.2667 142.901 39.0067 142.901 39.82C142.901 40.62 142.768 41.3533 142.501 42.02C142.248 42.6867 141.888 43.2667 141.421 43.76C140.968 44.24 140.441 44.6133 139.841 44.88C139.241 45.1467 138.601 45.28 137.921 45.28C137.441 45.28 136.988 45.2 136.561 45.04C136.148 44.8933 135.775 44.68 135.441 44.4C135.441 44.4933 135.441 44.5933 135.441 44.7C135.441 44.7933 135.441 44.8933 135.441 45ZM137.481 42.36C138.135 42.36 138.648 42.1333 139.021 41.68C139.408 41.2133 139.601 40.5933 139.601 39.82C139.601 39.0467 139.408 38.4333 139.021 37.98C138.648 37.5267 138.135 37.3 137.481 37.3C136.841 37.3 136.328 37.5333 135.941 38C135.555 38.4533 135.361 39.06 135.361 39.82C135.361 40.58 135.555 41.1933 135.941 41.66C136.328 42.1267 136.841 42.36 137.481 42.36ZM154.201 34.66C154.201 36.3667 154.201 38.0933 154.201 39.84C154.201 41.5733 154.201 43.2933 154.201 45C153.668 45 153.121 45 152.561 45C152.001 45 151.448 45 150.901 45C150.901 44.9067 150.901 44.82 150.901 44.74C150.901 44.66 150.901 44.5733 150.901 44.48C150.541 44.7333 150.135 44.9267 149.681 45.06C149.241 45.2067 148.761 45.28 148.241 45.28C147.481 45.28 146.808 45.1067 146.221 44.76C145.648 44.4133 145.195 43.9133 144.861 43.26C144.541 42.6067 144.381 41.8333 144.381 40.94C144.381 39.9 144.381 38.8533 144.381 37.8C144.381 36.7467 144.381 35.7 144.381 34.66C144.928 34.66 145.481 34.66 146.041 34.66C146.601 34.66 147.148 34.66 147.681 34.66C147.681 35.62 147.681 36.5933 147.681 37.58C147.681 38.5667 147.681 39.54 147.681 40.5C147.681 41.0333 147.801 41.4667 148.041 41.8C148.295 42.12 148.688 42.28 149.221 42.28C149.755 42.28 150.168 42.1267 150.461 41.82C150.755 41.5133 150.901 41.0733 150.901 40.5C150.901 39.54 150.901 38.5667 150.901 37.58C150.901 36.5933 150.901 35.62 150.901 34.66C151.448 34.66 152.001 34.66 152.561 34.66C153.121 34.66 153.668 34.66 154.201 34.66ZM157.477 45C157.477 43.7733 157.477 42.54 157.477 41.3C157.477 40.06 157.477 38.8333 157.477 37.62C157.21 37.62 156.937 37.62 156.657 37.62C156.39 37.62 156.124 37.62 155.857 37.62C155.857 37.1267 155.857 36.6333 155.857 36.14C155.857 35.6467 155.857 35.1533 155.857 34.66C156.124 34.66 156.39 34.66 156.657 34.66C156.937 34.66 157.21 34.66 157.477 34.66C157.477 34.1933 157.477 33.7333 157.477 33.28C157.477 32.8133 157.477 32.3533 157.477 31.9C158.024 31.9 158.577 31.9 159.137 31.9C159.697 31.9 160.244 31.9 160.777 31.9C160.777 32.3533 160.777 32.8133 160.777 33.28C160.777 33.7333 160.777 34.1933 160.777 34.66C161.084 34.66 161.397 34.66 161.717 34.66C162.037 34.66 162.35 34.66 162.657 34.66C162.657 35.1533 162.657 35.6467 162.657 36.14C162.657 36.6333 162.657 37.1267 162.657 37.62C162.35 37.62 162.037 37.62 161.717 37.62C161.397 37.62 161.084 37.62 160.777 37.62C160.777 38.8333 160.777 40.06 160.777 41.3C160.777 42.54 160.777 43.7733 160.777 45C160.244 45 159.697 45 159.137 45C158.577 45 158.024 45 157.477 45ZM165.328 45C165.328 43.7733 165.328 42.54 165.328 41.3C165.328 40.06 165.328 38.8333 165.328 37.62C165.062 37.62 164.788 37.62 164.508 37.62C164.242 37.62 163.975 37.62 163.708 37.62C163.708 37.1267 163.708 36.6333 163.708 36.14C163.708 35.6467 163.708 35.1533 163.708 34.66C163.975 34.66 164.242 34.66 164.508 34.66C164.788 34.66 165.062 34.66 165.328 34.66C165.328 34.1933 165.328 33.7333 165.328 33.28C165.328 32.8133 165.328 32.3533 165.328 31.9C165.875 31.9 166.428 31.9 166.988 31.9C167.548 31.9 168.095 31.9 168.628 31.9C168.628 32.3533 168.628 32.8133 168.628 33.28C168.628 33.7333 168.628 34.1933 168.628 34.66C168.935 34.66 169.248 34.66 169.568 34.66C169.888 34.66 170.202 34.66 170.508 34.66C170.508 35.1533 170.508 35.6467 170.508 36.14C170.508 36.6333 170.508 37.1267 170.508 37.62C170.202 37.62 169.888 37.62 169.568 37.62C169.248 37.62 168.935 37.62 168.628 37.62C168.628 38.8333 168.628 40.06 168.628 41.3C168.628 42.54 168.628 43.7733 168.628 45C168.095 45 167.548 45 166.988 45C166.428 45 165.875 45 165.328 45ZM176.902 45.32C176.129 45.32 175.409 45.1867 174.742 44.92C174.076 44.64 173.496 44.2533 173.002 43.76C172.509 43.2533 172.122 42.6667 171.842 42C171.576 41.3333 171.442 40.6067 171.442 39.82C171.442 39.0333 171.576 38.3067 171.842 37.64C172.122 36.9733 172.509 36.3933 173.002 35.9C173.496 35.4067 174.076 35.0267 174.742 34.76C175.409 34.48 176.129 34.34 176.902 34.34C177.689 34.34 178.409 34.48 179.062 34.76C179.729 35.0267 180.309 35.4067 180.802 35.9C181.296 36.3933 181.676 36.9733 181.942 37.64C182.222 38.3067 182.362 39.0333 182.362 39.82C182.362 40.6067 182.222 41.3333 181.942 42C181.676 42.6667 181.296 43.2533 180.802 43.76C180.309 44.2533 179.729 44.64 179.062 44.92C178.409 45.1867 177.689 45.32 176.902 45.32ZM176.902 42.34C177.556 42.34 178.076 42.1067 178.462 41.64C178.862 41.16 179.062 40.5533 179.062 39.82C179.062 39.0733 178.862 38.4733 178.462 38.02C178.076 37.5533 177.556 37.32 176.902 37.32C176.249 37.32 175.722 37.5533 175.322 38.02C174.936 38.4733 174.742 39.0733 174.742 39.82C174.742 40.5533 174.936 41.16 175.322 41.64C175.722 42.1067 176.249 42.34 176.902 42.34ZM183.995 45C183.995 43.2933 183.995 41.5733 183.995 39.84C183.995 38.0933 183.995 36.3667 183.995 34.66C184.541 34.66 185.095 34.66 185.655 34.66C186.215 34.66 186.761 34.66 187.295 34.66C187.295 34.7533 187.295 34.84 187.295 34.92C187.295 35 187.295 35.0867 187.295 35.18C187.655 34.9267 188.055 34.7333 188.495 34.6C188.948 34.4533 189.435 34.38 189.955 34.38C190.715 34.38 191.381 34.5533 191.955 34.9C192.541 35.2467 192.995 35.7467 193.315 36.4C193.648 37.04 193.815 37.8133 193.815 38.72C193.815 39.76 193.815 40.8067 193.815 41.86C193.815 42.9133 193.815 43.96 193.815 45C193.281 45 192.735 45 192.175 45C191.615 45 191.061 45 190.515 45C190.515 44.04 190.515 43.0667 190.515 42.08C190.515 41.0933 190.515 40.12 190.515 39.16C190.515 38.6267 190.388 38.2 190.135 37.88C189.895 37.5467 189.508 37.38 188.975 37.38C188.441 37.38 188.028 37.5333 187.735 37.84C187.441 38.1467 187.295 38.5867 187.295 39.16C187.295 40.12 187.295 41.0933 187.295 42.08C187.295 43.0667 187.295 44.04 187.295 45C186.761 45 186.215 45 185.655 45C185.095 45 184.541 45 183.995 45ZM204.949 45.32C204.176 45.32 203.456 45.1867 202.789 44.92C202.123 44.64 201.543 44.2533 201.049 43.76C200.556 43.2533 200.169 42.6667 199.889 42C199.623 41.3333 199.489 40.6067 199.489 39.82C199.489 39.0333 199.623 38.3067 199.889 37.64C200.169 36.9733 200.556 36.3933 201.049 35.9C201.543 35.4067 202.123 35.0267 202.789 34.76C203.456 34.48 204.176 34.34 204.949 34.34C205.736 34.34 206.456 34.48 207.109 34.76C207.776 35.0267 208.356 35.4067 208.849 35.9C209.343 36.3933 209.723 36.9733 209.989 37.64C210.269 38.3067 210.409 39.0333 210.409 39.82C210.409 40.6067 210.269 41.3333 209.989 42C209.723 42.6667 209.343 43.2533 208.849 43.76C208.356 44.2533 207.776 44.64 207.109 44.92C206.456 45.1867 205.736 45.32 204.949 45.32ZM204.949 42.34C205.603 42.34 206.123 42.1067 206.509 41.64C206.909 41.16 207.109 40.5533 207.109 39.82C207.109 39.0733 206.909 38.4733 206.509 38.02C206.123 37.5533 205.603 37.32 204.949 37.32C204.296 37.32 203.769 37.5533 203.369 38.02C202.983 38.4733 202.789 39.0733 202.789 39.82C202.789 40.5533 202.983 41.16 203.369 41.64C203.769 42.1067 204.296 42.34 204.949 42.34ZM212.041 45C212.041 43.2933 212.041 41.5733 212.041 39.84C212.041 38.0933 212.041 36.3667 212.041 34.66C212.588 34.66 213.141 34.66 213.701 34.66C214.261 34.66 214.808 34.66 215.341 34.66C215.341 34.7533 215.341 34.84 215.341 34.92C215.341 35 215.341 35.0867 215.341 35.18C215.701 34.9267 216.101 34.7333 216.541 34.6C216.995 34.4533 217.481 34.38 218.001 34.38C218.761 34.38 219.428 34.5533 220.001 34.9C220.588 35.2467 221.041 35.7467 221.361 36.4C221.695 37.04 221.861 37.8133 221.861 38.72C221.861 39.76 221.861 40.8067 221.861 41.86C221.861 42.9133 221.861 43.96 221.861 45C221.328 45 220.781 45 220.221 45C219.661 45 219.108 45 218.561 45C218.561 44.04 218.561 43.0667 218.561 42.08C218.561 41.0933 218.561 40.12 218.561 39.16C218.561 38.6267 218.435 38.2 218.181 37.88C217.941 37.5467 217.555 37.38 217.021 37.38C216.488 37.38 216.075 37.5333 215.781 37.84C215.488 38.1467 215.341 38.5867 215.341 39.16C215.341 40.12 215.341 41.0933 215.341 42.08C215.341 43.0667 215.341 44.04 215.341 45C214.808 45 214.261 45 213.701 45C213.141 45 212.588 45 212.041 45ZM229.176 45C229.176 43.7733 229.176 42.54 229.176 41.3C229.176 40.06 229.176 38.8333 229.176 37.62C228.909 37.62 228.636 37.62 228.356 37.62C228.089 37.62 227.823 37.62 227.556 37.62C227.556 37.1267 227.556 36.6333 227.556 36.14C227.556 35.6467 227.556 35.1533 227.556 34.66C227.823 34.66 228.089 34.66 228.356 34.66C228.636 34.66 228.909 34.66 229.176 34.66C229.176 34.1933 229.176 33.7333 229.176 33.28C229.176 32.8133 229.176 32.3533 229.176 31.9C229.723 31.9 230.276 31.9 230.836 31.9C231.396 31.9 231.943 31.9 232.476 31.9C232.476 32.3533 232.476 32.8133 232.476 33.28C232.476 33.7333 232.476 34.1933 232.476 34.66C232.783 34.66 233.096 34.66 233.416 34.66C233.736 34.66 234.049 34.66 234.356 34.66C234.356 35.1533 234.356 35.6467 234.356 36.14C234.356 36.6333 234.356 37.1267 234.356 37.62C234.049 37.62 233.736 37.62 233.416 37.62C233.096 37.62 232.783 37.62 232.476 37.62C232.476 38.8333 232.476 40.06 232.476 41.3C232.476 42.54 232.476 43.7733 232.476 45C231.943 45 231.396 45 230.836 45C230.276 45 229.723 45 229.176 45ZM236.048 45C236.048 42.5867 236.048 40.1533 236.048 37.7C236.048 35.2467 236.048 32.8133 236.048 30.4C236.594 30.4 237.148 30.4 237.708 30.4C238.268 30.4 238.814 30.4 239.348 30.4C239.348 31.1867 239.348 31.9867 239.348 32.8C239.348 33.6 239.348 34.3933 239.348 35.18C239.708 34.9267 240.108 34.7333 240.548 34.6C241.001 34.4533 241.488 34.38 242.008 34.38C242.768 34.38 243.434 34.5533 244.008 34.9C244.594 35.2467 245.048 35.7467 245.368 36.4C245.701 37.04 245.868 37.8133 245.868 38.72C245.868 39.76 245.868 40.8067 245.868 41.86C245.868 42.9133 245.868 43.96 245.868 45C245.334 45 244.788 45 244.228 45C243.668 45 243.114 45 242.568 45C242.568 44.04 242.568 43.0667 242.568 42.08C242.568 41.0933 242.568 40.12 242.568 39.16C242.568 38.6267 242.441 38.2 242.188 37.88C241.948 37.5467 241.561 37.38 241.028 37.38C240.494 37.38 240.081 37.5333 239.788 37.84C239.494 38.1467 239.348 38.5867 239.348 39.16C239.348 40.12 239.348 41.0933 239.348 42.08C239.348 43.0667 239.348 44.04 239.348 45C238.814 45 238.268 45 237.708 45C237.148 45 236.594 45 236.048 45ZM256.82 44.52C255.9 44.9067 254.987 45.1467 254.08 45.24C253.174 45.3333 252.314 45.28 251.5 45.08C250.7 44.8933 249.987 44.5667 249.36 44.1C248.734 43.6333 248.24 43.04 247.88 42.32C247.534 41.6 247.36 40.7667 247.36 39.82C247.36 39.0333 247.487 38.3133 247.74 37.66C248.007 36.9933 248.38 36.4133 248.86 35.92C249.34 35.4133 249.907 35.0267 250.56 34.76C251.214 34.48 251.927 34.34 252.7 34.34C253.394 34.34 254.02 34.4533 254.58 34.68C255.14 34.9067 255.627 35.2267 256.04 35.64C256.454 36.04 256.787 36.52 257.04 37.08C257.294 37.64 257.454 38.2533 257.52 38.92C257.587 39.5867 257.547 40.2933 257.4 41.04C256.307 41.04 255.207 41.04 254.1 41.04C252.994 41.04 251.894 41.04 250.8 41.04C251.054 41.5467 251.474 41.9067 252.06 42.12C252.66 42.3333 253.367 42.4 254.18 42.32C255.007 42.24 255.887 42.0267 256.82 41.68C256.82 42.1467 256.82 42.62 256.82 43.1C256.82 43.58 256.82 44.0533 256.82 44.52ZM252.62 37.3C252.234 37.3 251.874 37.4067 251.54 37.62C251.22 37.8333 250.974 38.16 250.8 38.6C251.4 38.6 252 38.6 252.6 38.6C253.214 38.6 253.82 38.6 254.42 38.6C254.26 38.1467 254.02 37.82 253.7 37.62C253.394 37.4067 253.034 37.3 252.62 37.3ZM266.867 45C266.334 45 265.787 45 265.227 45C264.667 45 264.114 45 263.567 45C263.567 42.5867 263.567 40.1533 263.567 37.7C263.567 35.2467 263.567 32.8133 263.567 30.4C264.114 30.4 264.667 30.4 265.227 30.4C265.787 30.4 266.334 30.4 266.867 30.4C266.867 31.2 266.867 32.0067 266.867 32.82C266.867 33.6333 266.867 34.44 266.867 35.24C267.201 34.9733 267.581 34.7667 268.007 34.62C268.434 34.46 268.887 34.38 269.367 34.38C270.034 34.38 270.667 34.5133 271.267 34.78C271.867 35.0333 272.394 35.4 272.847 35.88C273.314 36.36 273.674 36.9333 273.927 37.6C274.194 38.2667 274.327 39.0067 274.327 39.82C274.327 40.62 274.194 41.3533 273.927 42.02C273.674 42.6867 273.314 43.2667 272.847 43.76C272.394 44.24 271.867 44.6133 271.267 44.88C270.667 45.1467 270.027 45.28 269.347 45.28C268.867 45.28 268.414 45.2 267.987 45.04C267.574 44.8933 267.201 44.68 266.867 44.4C266.867 44.4933 266.867 44.5933 266.867 44.7C266.867 44.7933 266.867 44.8933 266.867 45ZM268.907 42.36C269.561 42.36 270.074 42.1333 270.447 41.68C270.834 41.2133 271.027 40.5933 271.027 39.82C271.027 39.0467 270.834 38.4333 270.447 37.98C270.074 37.5267 269.561 37.3 268.907 37.3C268.267 37.3 267.754 37.5333 267.367 38C266.981 38.4533 266.787 39.06 266.787 39.82C266.787 40.58 266.981 41.1933 267.367 41.66C267.754 42.1267 268.267 42.36 268.907 42.36ZM280.867 45.32C280.094 45.32 279.374 45.1867 278.707 44.92C278.041 44.64 277.461 44.2533 276.967 43.76C276.474 43.2533 276.087 42.6667 275.807 42C275.541 41.3333 275.407 40.6067 275.407 39.82C275.407 39.0333 275.541 38.3067 275.807 37.64C276.087 36.9733 276.474 36.3933 276.967 35.9C277.461 35.4067 278.041 35.0267 278.707 34.76C279.374 34.48 280.094 34.34 280.867 34.34C281.654 34.34 282.374 34.48 283.027 34.76C283.694 35.0267 284.274 35.4067 284.767 35.9C285.261 36.3933 285.641 36.9733 285.907 37.64C286.187 38.3067 286.327 39.0333 286.327 39.82C286.327 40.6067 286.187 41.3333 285.907 42C285.641 42.6667 285.261 43.2533 284.767 43.76C284.274 44.2533 283.694 44.64 283.027 44.92C282.374 45.1867 281.654 45.32 280.867 45.32ZM280.867 42.34C281.521 42.34 282.041 42.1067 282.427 41.64C282.827 41.16 283.027 40.5533 283.027 39.82C283.027 39.0733 282.827 38.4733 282.427 38.02C282.041 37.5533 281.521 37.32 280.867 37.32C280.214 37.32 279.687 37.5533 279.287 38.02C278.901 38.4733 278.707 39.0733 278.707 39.82C278.707 40.5533 278.901 41.16 279.287 41.64C279.687 42.1067 280.214 42.34 280.867 42.34ZM288.942 45C288.942 43.7733 288.942 42.54 288.942 41.3C288.942 40.06 288.942 38.8333 288.942 37.62C288.675 37.62 288.402 37.62 288.122 37.62C287.855 37.62 287.588 37.62 287.322 37.62C287.322 37.1267 287.322 36.6333 287.322 36.14C287.322 35.6467 287.322 35.1533 287.322 34.66C287.588 34.66 287.855 34.66 288.122 34.66C288.402 34.66 288.675 34.66 288.942 34.66C288.942 34.1933 288.942 33.7333 288.942 33.28C288.942 32.8133 288.942 32.3533 288.942 31.9C289.488 31.9 290.042 31.9 290.602 31.9C291.162 31.9 291.708 31.9 292.242 31.9C292.242 32.3533 292.242 32.8133 292.242 33.28C292.242 33.7333 292.242 34.1933 292.242 34.66C292.548 34.66 292.862 34.66 293.182 34.66C293.502 34.66 293.815 34.66 294.122 34.66C294.122 35.1533 294.122 35.6467 294.122 36.14C294.122 36.6333 294.122 37.1267 294.122 37.62C293.815 37.62 293.502 37.62 293.182 37.62C292.862 37.62 292.548 37.62 292.242 37.62C292.242 38.8333 292.242 40.06 292.242 41.3C292.242 42.54 292.242 43.7733 292.242 45C291.708 45 291.162 45 290.602 45C290.042 45 289.488 45 288.942 45ZM296.793 45C296.793 43.7733 296.793 42.54 296.793 41.3C296.793 40.06 296.793 38.8333 296.793 37.62C296.527 37.62 296.253 37.62 295.973 37.62C295.707 37.62 295.44 37.62 295.173 37.62C295.173 37.1267 295.173 36.6333 295.173 36.14C295.173 35.6467 295.173 35.1533 295.173 34.66C295.44 34.66 295.707 34.66 295.973 34.66C296.253 34.66 296.527 34.66 296.793 34.66C296.793 34.1933 296.793 33.7333 296.793 33.28C296.793 32.8133 296.793 32.3533 296.793 31.9C297.34 31.9 297.893 31.9 298.453 31.9C299.013 31.9 299.56 31.9 300.093 31.9C300.093 32.3533 300.093 32.8133 300.093 33.28C300.093 33.7333 300.093 34.1933 300.093 34.66C300.4 34.66 300.713 34.66 301.033 34.66C301.353 34.66 301.667 34.66 301.973 34.66C301.973 35.1533 301.973 35.6467 301.973 36.14C301.973 36.6333 301.973 37.1267 301.973 37.62C301.667 37.62 301.353 37.62 301.033 37.62C300.713 37.62 300.4 37.62 300.093 37.62C300.093 38.8333 300.093 40.06 300.093 41.3C300.093 42.54 300.093 43.7733 300.093 45C299.56 45 299.013 45 298.453 45C297.893 45 297.34 45 296.793 45ZM308.367 45.32C307.594 45.32 306.874 45.1867 306.207 44.92C305.541 44.64 304.961 44.2533 304.467 43.76C303.974 43.2533 303.587 42.6667 303.307 42C303.041 41.3333 302.907 40.6067 302.907 39.82C302.907 39.0333 303.041 38.3067 303.307 37.64C303.587 36.9733 303.974 36.3933 304.467 35.9C304.961 35.4067 305.541 35.0267 306.207 34.76C306.874 34.48 307.594 34.34 308.367 34.34C309.154 34.34 309.874 34.48 310.527 34.76C311.194 35.0267 311.774 35.4067 312.267 35.9C312.761 36.3933 313.141 36.9733 313.407 37.64C313.687 38.3067 313.827 39.0333 313.827 39.82C313.827 40.6067 313.687 41.3333 313.407 42C313.141 42.6667 312.761 43.2533 312.267 43.76C311.774 44.2533 311.194 44.64 310.527 44.92C309.874 45.1867 309.154 45.32 308.367 45.32ZM308.367 42.34C309.021 42.34 309.541 42.1067 309.927 41.64C310.327 41.16 310.527 40.5533 310.527 39.82C310.527 39.0733 310.327 38.4733 309.927 38.02C309.541 37.5533 309.021 37.32 308.367 37.32C307.714 37.32 307.187 37.5533 306.787 38.02C306.401 38.4733 306.207 39.0733 306.207 39.82C306.207 40.5533 306.401 41.16 306.787 41.64C307.187 42.1067 307.714 42.34 308.367 42.34ZM315.459 45C315.459 43.2933 315.459 41.5733 315.459 39.84C315.459 38.0933 315.459 36.3667 315.459 34.66C316.006 34.66 316.559 34.66 317.119 34.66C317.679 34.66 318.226 34.66 318.759 34.66C318.759 34.7533 318.759 34.84 318.759 34.92C318.759 35 318.759 35.0867 318.759 35.18C319.106 34.9267 319.493 34.7333 319.919 34.6C320.346 34.4533 320.786 34.38 321.239 34.38C321.733 34.38 322.186 34.4667 322.599 34.64C323.013 34.8 323.366 35.04 323.659 35.36C324.086 35.0533 324.566 34.8133 325.099 34.64C325.646 34.4667 326.206 34.38 326.779 34.38C327.593 34.38 328.293 34.5467 328.879 34.88C329.479 35.2133 329.939 35.6867 330.259 36.3C330.593 36.9133 330.759 37.6533 330.759 38.52C330.759 39.5867 330.759 40.6667 330.759 41.76C330.759 42.8533 330.759 43.9333 330.759 45C330.226 45 329.679 45 329.119 45C328.559 45 328.006 45 327.459 45C327.459 44 327.459 42.9867 327.459 41.96C327.459 40.9333 327.459 39.92 327.459 38.92C327.459 38.4667 327.353 38.1 327.139 37.82C326.939 37.5267 326.613 37.38 326.159 37.38C325.719 37.38 325.373 37.52 325.119 37.8C324.879 38.0667 324.759 38.44 324.759 38.92C324.759 39.92 324.759 40.9333 324.759 41.96C324.759 42.9867 324.759 44 324.759 45C324.226 45 323.679 45 323.119 45C322.559 45 322.006 45 321.459 45C321.459 44 321.459 42.9867 321.459 41.96C321.459 40.9333 321.459 39.92 321.459 38.92C321.459 38.4667 321.353 38.1 321.139 37.82C320.939 37.5267 320.613 37.38 320.159 37.38C319.719 37.38 319.373 37.52 319.119 37.8C318.879 38.0667 318.759 38.44 318.759 38.92C318.759 39.92 318.759 40.9333 318.759 41.96C318.759 42.9867 318.759 44 318.759 45C318.226 45 317.679 45 317.119 45C316.559 45 316.006 45 315.459 45ZM87.2816 120C87.2816 118.773 87.2816 117.54 87.2816 116.3C87.2816 115.06 87.2816 113.833 87.2816 112.62C87.0149 112.62 86.7416 112.62 86.4616 112.62C86.1949 112.62 85.9282 112.62 85.6616 112.62C85.6616 112.127 85.6616 111.633 85.6616 111.14C85.6616 110.647 85.6616 110.153 85.6616 109.66C85.9282 109.66 86.1949 109.66 86.4616 109.66C86.7416 109.66 87.0149 109.66 87.2816 109.66C87.2816 109.193 87.2816 108.733 87.2816 108.28C87.2816 107.813 87.2816 107.353 87.2816 106.9C87.8282 106.9 88.3816 106.9 88.9416 106.9C89.5016 106.9 90.0482 106.9 90.5816 106.9C90.5816 107.353 90.5816 107.813 90.5816 108.28C90.5816 108.733 90.5816 109.193 90.5816 109.66C90.8882 109.66 91.2016 109.66 91.5216 109.66C91.8416 109.66 92.1549 109.66 92.4616 109.66C92.4616 110.153 92.4616 110.647 92.4616 111.14C92.4616 111.633 92.4616 112.127 92.4616 112.62C92.1549 112.62 91.8416 112.62 91.5216 112.62C91.2016 112.62 90.8882 112.62 90.5816 112.62C90.5816 113.833 90.5816 115.06 90.5816 116.3C90.5816 117.54 90.5816 118.773 90.5816 120C90.0482 120 89.5016 120 88.9416 120C88.3816 120 87.8282 120 87.2816 120ZM98.8555 120.32C98.0821 120.32 97.3621 120.187 96.6955 119.92C96.0288 119.64 95.4488 119.253 94.9555 118.76C94.4621 118.253 94.0755 117.667 93.7955 117C93.5288 116.333 93.3955 115.607 93.3955 114.82C93.3955 114.033 93.5288 113.307 93.7955 112.64C94.0755 111.973 94.4621 111.393 94.9555 110.9C95.4488 110.407 96.0288 110.027 96.6955 109.76C97.3621 109.48 98.0821 109.34 98.8555 109.34C99.6421 109.34 100.362 109.48 101.015 109.76C101.682 110.027 102.262 110.407 102.755 110.9C103.249 111.393 103.629 111.973 103.895 112.64C104.175 113.307 104.315 114.033 104.315 114.82C104.315 115.607 104.175 116.333 103.895 117C103.629 117.667 103.249 118.253 102.755 118.76C102.262 119.253 101.682 119.64 101.015 119.92C100.362 120.187 99.6421 120.32 98.8555 120.32ZM98.8555 117.34C99.5088 117.34 100.029 117.107 100.415 116.64C100.815 116.16 101.015 115.553 101.015 114.82C101.015 114.073 100.815 113.473 100.415 113.02C100.029 112.553 99.5088 112.32 98.8555 112.32C98.2021 112.32 97.6755 112.553 97.2755 113.02C96.8888 113.473 96.6955 114.073 96.6955 114.82C96.6955 115.553 96.8888 116.16 97.2755 116.64C97.6755 117.107 98.2021 117.34 98.8555 117.34ZM117.047 120C117.047 119.893 117.047 119.793 117.047 119.7C117.047 119.593 117.047 119.493 117.047 119.4C116.714 119.68 116.334 119.893 115.907 120.04C115.494 120.2 115.047 120.28 114.567 120.28C113.887 120.28 113.247 120.153 112.647 119.9C112.047 119.633 111.514 119.26 111.047 118.78C110.594 118.287 110.234 117.707 109.967 117.04C109.714 116.373 109.587 115.633 109.587 114.82C109.587 113.993 109.714 113.247 109.967 112.58C110.234 111.913 110.594 111.347 111.047 110.88C111.514 110.4 112.047 110.033 112.647 109.78C113.247 109.513 113.88 109.38 114.547 109.38C115.027 109.38 115.48 109.46 115.907 109.62C116.334 109.767 116.714 109.973 117.047 110.24C117.047 110.133 117.047 110.033 117.047 109.94C117.047 109.847 117.047 109.753 117.047 109.66C117.594 109.66 118.147 109.66 118.707 109.66C119.267 109.66 119.814 109.66 120.347 109.66C120.347 111.367 120.347 113.093 120.347 114.84C120.347 116.573 120.347 118.293 120.347 120C119.814 120 119.267 120 118.707 120C118.147 120 117.594 120 117.047 120ZM115.007 117.36C115.647 117.36 116.16 117.127 116.547 116.66C116.934 116.193 117.127 115.58 117.127 114.82C117.127 114.06 116.934 113.453 116.547 113C116.16 112.533 115.647 112.3 115.007 112.3C114.354 112.3 113.834 112.527 113.447 112.98C113.074 113.433 112.887 114.047 112.887 114.82C112.887 115.593 113.074 116.213 113.447 116.68C113.834 117.133 114.354 117.36 115.007 117.36ZM129.449 120C129.449 119.893 129.449 119.793 129.449 119.7C129.449 119.593 129.449 119.493 129.449 119.4C129.116 119.68 128.736 119.893 128.309 120.04C127.896 120.2 127.449 120.28 126.969 120.28C126.289 120.28 125.649 120.147 125.049 119.88C124.449 119.613 123.916 119.24 123.449 118.76C122.996 118.267 122.636 117.687 122.369 117.02C122.116 116.353 121.989 115.62 121.989 114.82C121.989 114.007 122.116 113.267 122.369 112.6C122.636 111.933 122.996 111.36 123.449 110.88C123.916 110.4 124.449 110.033 125.049 109.78C125.649 109.513 126.283 109.38 126.949 109.38C127.429 109.38 127.883 109.46 128.309 109.62C128.736 109.767 129.116 109.973 129.449 110.24C129.449 109.44 129.449 108.633 129.449 107.82C129.449 107.007 129.449 106.2 129.449 105.4C129.996 105.4 130.549 105.4 131.109 105.4C131.669 105.4 132.216 105.4 132.749 105.4C132.749 107.813 132.749 110.247 132.749 112.7C132.749 115.153 132.749 117.587 132.749 120C132.216 120 131.669 120 131.109 120C130.549 120 129.996 120 129.449 120ZM127.409 117.36C128.049 117.36 128.563 117.127 128.949 116.66C129.336 116.193 129.529 115.58 129.529 114.82C129.529 114.06 129.336 113.453 128.949 113C128.563 112.533 128.049 112.3 127.409 112.3C126.756 112.3 126.236 112.527 125.849 112.98C125.476 113.433 125.289 114.047 125.289 114.82C125.289 115.593 125.476 116.213 125.849 116.68C126.236 117.133 126.756 117.36 127.409 117.36ZM141.949 120C141.949 119.893 141.949 119.793 141.949 119.7C141.949 119.593 141.949 119.493 141.949 119.4C141.616 119.68 141.236 119.893 140.809 120.04C140.396 120.2 139.949 120.28 139.469 120.28C138.789 120.28 138.149 120.147 137.549 119.88C136.949 119.613 136.416 119.24 135.949 118.76C135.496 118.267 135.136 117.687 134.869 117.02C134.616 116.353 134.489 115.62 134.489 114.82C134.489 114.007 134.616 113.267 134.869 112.6C135.136 111.933 135.496 111.36 135.949 110.88C136.416 110.4 136.949 110.033 137.549 109.78C138.149 109.513 138.783 109.38 139.449 109.38C139.929 109.38 140.383 109.46 140.809 109.62C141.236 109.767 141.616 109.973 141.949 110.24C141.949 109.44 141.949 108.633 141.949 107.82C141.949 107.007 141.949 106.2 141.949 105.4C142.496 105.4 143.049 105.4 143.609 105.4C144.169 105.4 144.716 105.4 145.249 105.4C145.249 107.813 145.249 110.247 145.249 112.7C145.249 115.153 145.249 117.587 145.249 120C144.716 120 144.169 120 143.609 120C143.049 120 142.496 120 141.949 120ZM139.909 117.36C140.549 117.36 141.063 117.127 141.449 116.66C141.836 116.193 142.029 115.58 142.029 114.82C142.029 114.06 141.836 113.453 141.449 113C141.063 112.533 140.549 112.3 139.909 112.3C139.256 112.3 138.736 112.527 138.349 112.98C137.976 113.433 137.789 114.047 137.789 114.82C137.789 115.593 137.976 116.213 138.349 116.68C138.736 117.133 139.256 117.36 139.909 117.36ZM152.708 123.2C152.975 122.493 153.248 121.78 153.528 121.06C153.822 120.353 154.102 119.653 154.368 118.96C153.742 117.427 153.102 115.88 152.448 114.32C151.808 112.747 151.175 111.193 150.548 109.66C151.135 109.66 151.722 109.66 152.308 109.66C152.895 109.66 153.475 109.66 154.048 109.66C154.395 110.513 154.742 111.38 155.088 112.26C155.448 113.14 155.802 114.013 156.148 114.88C156.468 114.013 156.795 113.14 157.128 112.26C157.462 111.38 157.788 110.513 158.108 109.66C158.682 109.66 159.255 109.66 159.828 109.66C160.402 109.66 160.975 109.66 161.548 109.66C160.655 111.887 159.755 114.147 158.848 116.44C157.955 118.72 157.062 120.973 156.168 123.2C155.595 123.2 155.015 123.2 154.428 123.2C153.855 123.2 153.282 123.2 152.708 123.2ZM167.254 120.32C166.481 120.32 165.761 120.187 165.094 119.92C164.427 119.64 163.847 119.253 163.354 118.76C162.861 118.253 162.474 117.667 162.194 117C161.927 116.333 161.794 115.607 161.794 114.82C161.794 114.033 161.927 113.307 162.194 112.64C162.474 111.973 162.861 111.393 163.354 110.9C163.847 110.407 164.427 110.027 165.094 109.76C165.761 109.48 166.481 109.34 167.254 109.34C168.041 109.34 168.761 109.48 169.414 109.76C170.081 110.027 170.661 110.407 171.154 110.9C171.647 111.393 172.027 111.973 172.294 112.64C172.574 113.307 172.714 114.033 172.714 114.82C172.714 115.607 172.574 116.333 172.294 117C172.027 117.667 171.647 118.253 171.154 118.76C170.661 119.253 170.081 119.64 169.414 119.92C168.761 120.187 168.041 120.32 167.254 120.32ZM167.254 117.34C167.907 117.34 168.427 117.107 168.814 116.64C169.214 116.16 169.414 115.553 169.414 114.82C169.414 114.073 169.214 113.473 168.814 113.02C168.427 112.553 167.907 112.32 167.254 112.32C166.601 112.32 166.074 112.553 165.674 113.02C165.287 113.473 165.094 114.073 165.094 114.82C165.094 115.553 165.287 116.16 165.674 116.64C166.074 117.107 166.601 117.34 167.254 117.34ZM184.006 109.66C184.006 111.367 184.006 113.093 184.006 114.84C184.006 116.573 184.006 118.293 184.006 120C183.473 120 182.926 120 182.366 120C181.806 120 181.253 120 180.706 120C180.706 119.907 180.706 119.82 180.706 119.74C180.706 119.66 180.706 119.573 180.706 119.48C180.346 119.733 179.939 119.927 179.486 120.06C179.046 120.207 178.566 120.28 178.046 120.28C177.286 120.28 176.613 120.107 176.026 119.76C175.453 119.413 174.999 118.913 174.666 118.26C174.346 117.607 174.186 116.833 174.186 115.94C174.186 114.9 174.186 113.853 174.186 112.8C174.186 111.747 174.186 110.7 174.186 109.66C174.733 109.66 175.286 109.66 175.846 109.66C176.406 109.66 176.953 109.66 177.486 109.66C177.486 110.62 177.486 111.593 177.486 112.58C177.486 113.567 177.486 114.54 177.486 115.5C177.486 116.033 177.606 116.467 177.846 116.8C178.099 117.12 178.493 117.28 179.026 117.28C179.559 117.28 179.973 117.127 180.266 116.82C180.559 116.513 180.706 116.073 180.706 115.5C180.706 114.54 180.706 113.567 180.706 112.58C180.706 111.593 180.706 110.62 180.706 109.66C181.253 109.66 181.806 109.66 182.366 109.66C182.926 109.66 183.473 109.66 184.006 109.66ZM186.202 120C186.202 118.293 186.202 116.573 186.202 114.84C186.202 113.093 186.202 111.367 186.202 109.66C186.748 109.66 187.302 109.66 187.862 109.66C188.422 109.66 188.968 109.66 189.502 109.66C189.502 109.753 189.502 109.847 189.502 109.94C189.502 110.033 189.502 110.127 189.502 110.22C189.915 109.927 190.382 109.707 190.902 109.56C191.422 109.413 191.988 109.373 192.602 109.44C192.602 109.973 192.602 110.513 192.602 111.06C192.602 111.607 192.602 112.147 192.602 112.68C191.548 112.533 190.768 112.627 190.262 112.96C189.755 113.28 189.502 113.807 189.502 114.54C189.502 115.433 189.502 116.34 189.502 117.26C189.502 118.18 189.502 119.093 189.502 120C188.968 120 188.422 120 187.862 120C187.302 120 186.748 120 186.202 120ZM198.391 120C198.391 117.587 198.391 115.153 198.391 112.7C198.391 110.247 198.391 107.813 198.391 105.4C198.938 105.4 199.491 105.4 200.051 105.4C200.611 105.4 201.158 105.4 201.691 105.4C201.691 107.813 201.691 110.247 201.691 112.7C201.691 115.153 201.691 117.587 201.691 120C201.158 120 200.611 120 200.051 120C199.491 120 198.938 120 198.391 120ZM205.755 108.48C205.368 108.48 205.015 108.387 204.695 108.2C204.388 108.013 204.141 107.767 203.955 107.46C203.768 107.153 203.675 106.813 203.675 106.44C203.675 106.067 203.768 105.733 203.955 105.44C204.141 105.133 204.388 104.887 204.695 104.7C205.015 104.513 205.368 104.42 205.755 104.42C206.128 104.42 206.468 104.513 206.775 104.7C207.095 104.887 207.348 105.133 207.535 105.44C207.721 105.733 207.815 106.067 207.815 106.44C207.815 106.813 207.721 107.153 207.535 107.46C207.348 107.767 207.095 108.013 206.775 108.2C206.468 108.387 206.128 108.48 205.755 108.48ZM204.095 120C204.095 118.293 204.095 116.573 204.095 114.84C204.095 113.093 204.095 111.367 204.095 109.66C204.641 109.66 205.195 109.66 205.755 109.66C206.315 109.66 206.861 109.66 207.395 109.66C207.395 111.367 207.395 113.093 207.395 114.84C207.395 116.573 207.395 118.293 207.395 120C206.861 120 206.315 120 205.755 120C205.195 120 204.641 120 204.095 120ZM209.698 120C209.698 118.293 209.698 116.573 209.698 114.84C209.698 113.093 209.698 111.367 209.698 109.66C210.244 109.66 210.798 109.66 211.358 109.66C211.918 109.66 212.464 109.66 212.998 109.66C212.998 109.753 212.998 109.84 212.998 109.92C212.998 110 212.998 110.087 212.998 110.18C213.358 109.927 213.758 109.733 214.198 109.6C214.651 109.453 215.138 109.38 215.658 109.38C216.418 109.38 217.084 109.553 217.658 109.9C218.244 110.247 218.698 110.747 219.018 111.4C219.351 112.04 219.518 112.813 219.518 113.72C219.518 114.76 219.518 115.807 219.518 116.86C219.518 117.913 219.518 118.96 219.518 120C218.984 120 218.438 120 217.878 120C217.318 120 216.764 120 216.218 120C216.218 119.04 216.218 118.067 216.218 117.08C216.218 116.093 216.218 115.12 216.218 114.16C216.218 113.627 216.091 113.2 215.838 112.88C215.598 112.547 215.211 112.38 214.678 112.38C214.144 112.38 213.731 112.533 213.438 112.84C213.144 113.147 212.998 113.587 212.998 114.16C212.998 115.12 212.998 116.093 212.998 117.08C212.998 118.067 212.998 119.04 212.998 120C212.464 120 211.918 120 211.358 120C210.798 120 210.244 120 209.698 120ZM221.555 120C221.555 117.587 221.555 115.153 221.555 112.7C221.555 110.247 221.555 107.813 221.555 105.4C222.102 105.4 222.655 105.4 223.215 105.4C223.775 105.4 224.322 105.4 224.855 105.4C224.855 106.707 224.855 108.033 224.855 109.38C224.855 110.727 224.855 112.053 224.855 113.36C225.335 112.747 225.815 112.133 226.295 111.52C226.775 110.893 227.255 110.273 227.735 109.66C228.375 109.66 229.015 109.66 229.655 109.66C230.309 109.66 230.955 109.66 231.595 109.66C230.969 110.447 230.329 111.24 229.675 112.04C229.035 112.84 228.402 113.633 227.775 114.42C228.442 115.34 229.109 116.273 229.775 117.22C230.455 118.153 231.122 119.08 231.775 120C231.122 120 230.469 120 229.815 120C229.162 120 228.509 120 227.855 120C227.362 119.293 226.862 118.58 226.355 117.86C225.849 117.127 225.349 116.407 224.855 115.7C224.855 116.407 224.855 117.127 224.855 117.86C224.855 118.58 224.855 119.293 224.855 120C224.322 120 223.775 120 223.215 120C222.655 120 222.102 120 221.555 120ZM240.684 116.8C240.684 117.627 240.45 118.307 239.984 118.84C239.53 119.36 238.917 119.74 238.144 119.98C237.37 120.22 236.504 120.32 235.544 120.28C234.597 120.253 233.63 120.1 232.644 119.82C232.644 119.313 232.644 118.793 232.644 118.26C232.644 117.727 232.644 117.207 232.644 116.7C233.204 116.953 233.764 117.153 234.324 117.3C234.884 117.433 235.39 117.513 235.844 117.54C236.297 117.567 236.664 117.533 236.944 117.44C237.224 117.333 237.364 117.16 237.364 116.92C237.364 116.733 237.244 116.587 237.004 116.48C236.777 116.373 236.477 116.28 236.104 116.2C235.73 116.107 235.33 116 234.904 115.88C234.49 115.747 234.097 115.567 233.724 115.34C233.35 115.1 233.044 114.787 232.804 114.4C232.577 114 232.464 113.487 232.464 112.86C232.464 112.113 232.677 111.48 233.104 110.96C233.544 110.427 234.13 110.027 234.864 109.76C235.597 109.48 236.417 109.34 237.324 109.34C238.23 109.34 239.157 109.493 240.104 109.8C240.104 110.307 240.104 110.827 240.104 111.36C240.104 111.893 240.104 112.413 240.104 112.92C239.357 112.56 238.657 112.32 238.004 112.2C237.35 112.08 236.824 112.067 236.424 112.16C236.024 112.24 235.824 112.42 235.824 112.7C235.824 112.887 235.937 113.033 236.164 113.14C236.404 113.233 236.704 113.32 237.064 113.4C237.437 113.48 237.83 113.587 238.244 113.72C238.67 113.853 239.064 114.04 239.424 114.28C239.797 114.507 240.097 114.827 240.324 115.24C240.564 115.64 240.684 116.16 240.684 116.8ZM243.998 120.32C243.611 120.32 243.251 120.227 242.918 120.04C242.598 119.853 242.345 119.6 242.158 119.28C241.971 118.96 241.878 118.613 241.878 118.24C241.878 117.867 241.971 117.527 242.158 117.22C242.345 116.9 242.598 116.647 242.918 116.46C243.251 116.273 243.611 116.18 243.998 116.18C244.385 116.18 244.731 116.273 245.038 116.46C245.358 116.647 245.611 116.9 245.798 117.22C245.998 117.527 246.098 117.867 246.098 118.24C246.098 118.613 245.998 118.96 245.798 119.28C245.611 119.6 245.358 119.853 245.038 120.04C244.731 120.227 244.385 120.32 243.998 120.32Z" fill="black"/>
<path d="M147.701 94.5C147.701 92.484 147.701 90.444 147.701 88.38C147.701 86.316 147.701 84.276 147.701 82.26C148.229 82.26 148.757 82.26 149.285 82.26C149.813 82.26 150.335 82.26 150.851 82.26C150.851 83.808 150.851 85.374 150.851 86.958C150.851 88.53 150.851 90.09 150.851 91.638C151.487 91.638 152.129 91.638 152.777 91.638C153.425 91.638 154.061 91.638 154.685 91.638C154.685 92.106 154.685 92.586 154.685 93.078C154.685 93.558 154.685 94.032 154.685 94.5C153.533 94.5 152.369 94.5 151.193 94.5C150.017 94.5 148.853 94.5 147.701 94.5ZM157.806 84.132C157.458 84.132 157.14 84.048 156.852 83.88C156.576 83.712 156.354 83.49 156.186 83.214C156.018 82.938 155.934 82.632 155.934 82.296C155.934 81.96 156.018 81.66 156.186 81.396C156.354 81.12 156.576 80.898 156.852 80.73C157.14 80.562 157.458 80.478 157.806 80.478C158.142 80.478 158.448 80.562 158.724 80.73C159.012 80.898 159.24 81.12 159.408 81.396C159.576 81.66 159.66 81.96 159.66 82.296C159.66 82.632 159.576 82.938 159.408 83.214C159.24 83.49 159.012 83.712 158.724 83.88C158.448 84.048 158.142 84.132 157.806 84.132ZM156.312 94.5C156.312 92.964 156.312 91.416 156.312 89.856C156.312 88.284 156.312 86.73 156.312 85.194C156.804 85.194 157.302 85.194 157.806 85.194C158.31 85.194 158.802 85.194 159.282 85.194C159.282 86.73 159.282 88.284 159.282 89.856C159.282 91.416 159.282 92.964 159.282 94.5C158.802 94.5 158.31 94.5 157.806 94.5C157.302 94.5 156.804 94.5 156.312 94.5ZM161.355 94.5C161.355 92.964 161.355 91.416 161.355 89.856C161.355 88.284 161.355 86.73 161.355 85.194C161.847 85.194 162.345 85.194 162.849 85.194C163.353 85.194 163.845 85.194 164.325 85.194C164.325 85.278 164.325 85.356 164.325 85.428C164.325 85.5 164.325 85.578 164.325 85.662C164.649 85.434 165.009 85.26 165.405 85.14C165.813 85.008 166.251 84.942 166.719 84.942C167.403 84.942 168.003 85.098 168.519 85.41C169.047 85.722 169.455 86.172 169.743 86.76C170.043 87.336 170.193 88.032 170.193 88.848C170.193 89.784 170.193 90.726 170.193 91.674C170.193 92.622 170.193 93.564 170.193 94.5C169.713 94.5 169.221 94.5 168.717 94.5C168.213 94.5 167.715 94.5 167.223 94.5C167.223 93.636 167.223 92.76 167.223 91.872C167.223 90.984 167.223 90.108 167.223 89.244C167.223 88.764 167.109 88.38 166.881 88.092C166.665 87.792 166.317 87.642 165.837 87.642C165.357 87.642 164.985 87.78 164.721 88.056C164.457 88.332 164.325 88.728 164.325 89.244C164.325 90.108 164.325 90.984 164.325 91.872C164.325 92.76 164.325 93.636 164.325 94.5C163.845 94.5 163.353 94.5 162.849 94.5C162.345 94.5 161.847 94.5 161.355 94.5ZM172.027 94.5C172.027 92.328 172.027 90.138 172.027 87.93C172.027 85.722 172.027 83.532 172.027 81.36C172.519 81.36 173.017 81.36 173.521 81.36C174.025 81.36 174.517 81.36 174.997 81.36C174.997 82.536 174.997 83.73 174.997 84.942C174.997 86.154 174.997 87.348 174.997 88.524C175.429 87.972 175.861 87.42 176.293 86.868C176.725 86.304 177.157 85.746 177.589 85.194C178.165 85.194 178.741 85.194 179.317 85.194C179.905 85.194 180.487 85.194 181.063 85.194C180.499 85.902 179.923 86.616 179.335 87.336C178.759 88.056 178.189 88.77 177.625 89.478C178.225 90.306 178.825 91.146 179.425 91.998C180.037 92.838 180.637 93.672 181.225 94.5C180.637 94.5 180.049 94.5 179.461 94.5C178.873 94.5 178.285 94.5 177.697 94.5C177.253 93.864 176.803 93.222 176.347 92.574C175.891 91.914 175.441 91.266 174.997 90.63C174.997 91.266 174.997 91.914 174.997 92.574C174.997 93.222 174.997 93.864 174.997 94.5C174.517 94.5 174.025 94.5 173.521 94.5C173.017 94.5 172.519 94.5 172.027 94.5ZM183.858 94.788C183.51 94.788 183.186 94.704 182.886 94.536C182.598 94.368 182.37 94.14 182.202 93.852C182.034 93.564 181.95 93.252 181.95 92.916C181.95 92.58 182.034 92.274 182.202 91.998C182.37 91.71 182.598 91.482 182.886 91.314C183.186 91.146 183.51 91.062 183.858 91.062C184.206 91.062 184.518 91.146 184.794 91.314C185.082 91.482 185.31 91.71 185.478 91.998C185.658 92.274 185.748 92.58 185.748 92.916C185.748 93.252 185.658 93.564 185.478 93.852C185.31 94.14 185.082 94.368 184.794 94.536C184.518 94.704 184.206 94.788 183.858 94.788Z" fill="#374957"/>
<g clip-path="url(#clip0_31_66)">
<path d="M161.862 61.8242H175.261C175.483 61.8242 175.696 61.7219 175.853 61.5399C176.01 61.3578 176.098 61.1109 176.098 60.8535C176.098 60.5961 176.01 60.3492 175.853 60.1672C175.696 59.9851 175.483 59.8829 175.261 59.8829H161.862C161.64 59.8829 161.427 59.9851 161.27 60.1672C161.113 60.3492 161.025 60.5961 161.025 60.8535C161.025 61.1109 161.113 61.3578 161.27 61.5399C161.427 61.7219 161.64 61.8242 161.862 61.8242Z" fill="#374957"/>
<path d="M175.261 66.6768H161.862C161.64 66.6768 161.427 66.7791 161.27 66.9611C161.113 67.1431 161.025 67.39 161.025 67.6474C161.025 67.9049 161.113 68.1518 161.27 68.3338C161.427 68.5158 161.64 68.6181 161.862 68.6181H175.261C175.483 68.6181 175.696 68.5158 175.853 68.3338C176.01 68.1518 176.098 67.9049 176.098 67.6474C176.098 67.39 176.01 67.1431 175.853 66.9611C175.696 66.7791 175.483 66.6768 175.261 66.6768Z" fill="#374957"/>
<path d="M175.261 73.4716H161.862C161.64 73.4716 161.427 73.5739 161.27 73.7559C161.113 73.9379 161.025 74.1848 161.025 74.4422C161.025 74.6997 161.113 74.9466 161.27 75.1286C161.427 75.3106 161.64 75.4129 161.862 75.4129H175.261C175.483 75.4129 175.696 75.3106 175.853 75.1286C176.01 74.9466 176.098 74.6997 176.098 74.4422C176.098 74.1848 176.01 73.9379 175.853 73.7559C175.696 73.5739 175.483 73.4716 175.261 73.4716Z" fill="#374957"/>
<path d="M157.675 62.7945C158.6 62.7945 159.35 61.9254 159.35 60.8532C159.35 59.7811 158.6 58.9119 157.675 58.9119C156.75 58.9119 156 59.7811 156 60.8532C156 61.9254 156.75 62.7945 157.675 62.7945Z" fill="#374957"/>
<path d="M157.675 69.5893C158.6 69.5893 159.35 68.7202 159.35 67.648C159.35 66.5759 158.6 65.7067 157.675 65.7067C156.75 65.7067 156 66.5759 156 67.648C156 68.7202 156.75 69.5893 157.675 69.5893Z" fill="#374957"/>
<path d="M157.675 76.3832C158.6 76.3832 159.35 75.5141 159.35 74.4419C159.35 73.3698 158.6 72.5006 157.675 72.5006C156.75 72.5006 156 73.3698 156 74.4419C156 75.5141 156.75 76.3832 157.675 76.3832Z" fill="#374957"/>
</g>
<defs>
<clipPath id="clip0_31_66">
<rect width="20.098" height="23.2955" fill="white" transform="translate(156 56)"/>
</clipPath>
</defs>
</svg>
